solid limn
facet normal 5.38563156217937e-20 -0.25881905110038295 0.9659258246819459
  outer loop
    vertex 4.399879301761228 128.6329961818518 6.4885928558347725
    vertex 0.3998793017612353 129.26006666017636 6.748333956626275
    vertex 0.3998793017612353 128.6329961818518 6.4885928558347725
  endloop
endfacet
facet normal 8.32889379791244e-20 -0.5000000043021372 0.8660254013005987
  outer loop
    vertex 0.3998793017612353 129.26006666017636 6.748333956626275
    vertex 4.399879301761228 128.6329961818518 6.4885928558347725
    vertex 4.399879301761228 129.26006666017636 6.748333956626275
  endloop
endfacet
facet normal -0.0009897558635380758 -0.06540316376902758 0.9978584301153809
  outer loop
    vertex 4.399879301761228 128.14011121893685 6.423703316018833
    vertex 0.3998793017612353 128.6329961818518 6.4885928558347725
    vertex 0.3998793017612353 128.14011121893685 6.423703316018833
  endloop
endfacet
facet normal 5.38563156217937e-20 -0.25881905110038295 0.9659258246819459
  outer loop
    vertex 0.3998793017612353 128.6329961818518 6.4885928558347725
    vertex 4.399879301761228 128.14011121893685 6.423703316018833
    vertex 4.399879301761228 128.6329961818518 6.4885928558347725
  endloop
endfacet
facet normal -0.0009897558629743625 0.06540315759362034 0.9978584305201396
  outer loop
    vertex 4.399879301761228 127.78002209705937 6.4237033160186074
    vertex 0.3998793017612353 127.960066668364 6.400000000007833
    vertex 0.3998793017612353 127.78002209705937 6.4237033160186074
  endloop
endfacet
facet normal -0.0019752724807675943 1.2626570321404103e-09 0.9999980491474105
  outer loop
    vertex 0.3998793017612353 127.960066668364 6.400000000007833
    vertex 4.399879301761228 127.78002209705937 6.4237033160186074
    vertex 0.3998793017612353 128.14011121893685 6.423703316018833
  endloop
endfacet
facet normal -0.0009898377851186473 -0.06539775038098215 0.997858784831935
  outer loop
    vertex 0.3998793017612353 128.14011121893685 6.423703316018833
    vertex 4.399879301761228 127.78002209705937 6.4237033160186074
    vertex 4.399879301761228 128.14011121893685 6.423703316018833
  endloop
endfacet
facet normal 0.0 1.0 6.316724920907303e-13
  outer loop
    vertex 50.39987930176119 125.36006664898835 13.000000000006203
    vertex 9.399879301761219 125.36006664898709 15.0000000000062
    vertex 50.39987930176119 125.36006664898709 15.0000000000062
  endloop
endfacet
facet normal 0.0 1.0 6.316724920907303e-13
  outer loop
    vertex 9.399879301761219 125.36006664898709 15.0000000000062
    vertex 50.39987930176119 125.36006664898835 13.000000000006203
    vertex 9.399879301761219 125.36006664898835 13.000000000006203
  endloop
endfacet
facet normal 8.32889379791244e-20 -0.5000000043021372 0.8660254013005987
  outer loop
    vertex 4.399879301761228 129.26006666017636 6.748333956626275
    vertex 0.3998793017612353 129.79854428692587 7.161522375772825
    vertex 0.3998793017612353 129.26006666017636 6.748333956626275
  endloop
endfacet
facet normal 3.243576689517312e-20 -0.7071067838211685 0.7071067785519265
  outer loop
    vertex 0.3998793017612353 129.79854428692587 7.161522375772825
    vertex 4.399879301761228 129.26006666017636 6.748333956626275
    vertex 4.399879301761228 129.79854428692587 7.161522375772825
  endloop
endfacet
facet normal 3.243576689517312e-20 -0.7071067838211685 0.7071067785519265
  outer loop
    vertex 0.3998793017612353 129.79854428692587 7.161522375772825
    vertex 4.399879301761228 130.2117327020598 7.700000005601316
    vertex 0.3998793017612353 130.2117327020598 7.700000005601316
  endloop
endfacet
facet normal -2.0627848079195767e-20 -0.8660254050265155 0.49999999784866017
  outer loop
    vertex 4.399879301761228 130.2117327020598 7.700000005601316
    vertex 0.3998793017612353 129.79854428692587 7.161522375772825
    vertex 4.399879301761228 129.79854428692587 7.161522375772825
  endloop
endfacet
facet normal -2.0627848079195767e-20 -0.8660254050265155 0.49999999784866017
  outer loop
    vertex 0.3998793017612353 130.2117327020598 7.700000005601316
    vertex 4.399879301761228 130.47147379817844 8.327070485861427
    vertex 0.3998793017612353 130.47147379817844 8.327070485861427
  endloop
endfacet
facet normal -2.3630992617038222e-20 -0.9659258266106225 0.2588190439024644
  outer loop
    vertex 4.399879301761228 130.47147379817844 8.327070485861427
    vertex 0.3998793017612353 130.2117327020598 7.700000005601316
    vertex 4.399879301761228 130.2117327020598 7.700000005601316
  endloop
endfacet
facet normal -2.3630992617038222e-20 -0.9659258266106225 0.2588190439024644
  outer loop
    vertex 0.3998793017612353 130.47147379817844 8.327070485861427
    vertex 4.399879301761228 130.56006664899084 9.00000000000946
    vertex 0.3998793017612353 130.56006664899084 9.00000000000946
  endloop
endfacet
facet normal 0.0 -0.9978589232589483 0.06540312891974169
  outer loop
    vertex 4.399879301761228 130.56006664899084 9.00000000000946
    vertex 0.3998793017612353 130.47147379817844 8.327070485861427
    vertex 4.399879301761228 130.47147379817844 8.327070485861427
  endloop
endfacet
facet normal 1.0 -1.0562012525283879e-27 1.685497207959664e-15
  outer loop
    vertex 50.39987930176119 130.5600666489871 15.000000000009459
    vertex 50.39987930176123 136.46006664899457 3.0000000000131664
    vertex 50.39987930176123 136.4600666489871 15.000000000013156
  endloop
endfacet
facet normal 1.0 -1.0562012525283879e-27 1.685497207959664e-15
  outer loop
    vertex 50.39987930176123 119.46006664898708 15.000000000002503
    vertex 50.39987930176119 125.36006664898835 13.000000000006203
    vertex 50.39987930176119 125.36006664898709 15.0000000000062
  endloop
endfacet
facet normal 1.0 -1.0562012525283879e-27 1.685497207959664e-15
  outer loop
    vertex 50.39987930176119 125.36006664898835 13.000000000006203
    vertex 50.39987930176123 119.46006664898708 15.000000000002503
    vertex 50.39987930176119 125.36006664899085 9.000000000006201
  endloop
endfacet
facet normal 1.0 -1.0562012525283879e-27 1.685497207959664e-15
  outer loop
    vertex 50.39987930176123 140.46006664899454 3.0000000000156737
    vertex 50.39987930176123 115.46006664899649 0.0
    vertex 50.39987930176123 140.46006664899647 1.566773377703612e-11
  endloop
endfacet
facet normal 1.0 -1.0562012525283879e-27 1.685497207959664e-15
  outer loop
    vertex 50.39987930176123 115.46006664899649 0.0
    vertex 50.39987930176123 140.46006664899454 3.0000000000156737
    vertex 50.39987930176123 136.46006664899457 3.0000000000131664
  endloop
endfacet
facet normal 1.0 -1.0562012525283879e-27 1.685497207959664e-15
  outer loop
    vertex 50.39987930176123 115.46006664899649 0.0
    vertex 50.39987930176123 136.46006664899457 3.0000000000131664
    vertex 50.39987930176119 129.26006664899222 6.748333950169104
  endloop
endfacet
facet normal 1.0 -1.0562012525283879e-27 1.685497207959664e-15
  outer loop
    vertex 50.39987930176119 129.26006664899222 6.748333950169104
    vertex 50.39987930176123 136.46006664899457 3.0000000000131664
    vertex 50.39987930176119 129.798544280077 7.161522368923961
  endloop
endfacet
facet normal 1.0 -1.0562012525283879e-27 1.685497207959664e-15
  outer loop
    vertex 50.39987930176119 129.798544280077 7.161522368923961
    vertex 50.39987930176123 136.46006664899457 3.0000000000131664
    vertex 50.39987930176119 130.2117326988312 7.7000000000092435
  endloop
endfacet
facet normal 1.0 -1.0562012525283879e-27 1.685497207959664e-15
  outer loop
    vertex 50.39987930176119 130.2117326988312 7.7000000000092435
    vertex 50.39987930176123 136.46006664899457 3.0000000000131664
    vertex 50.39987930176119 130.4714737973428 8.327070482742847
  endloop
endfacet
facet normal 1.0 -1.0562012525283879e-27 1.685497207959664e-15
  outer loop
    vertex 50.39987930176119 130.4714737973428 8.327070482742847
    vertex 50.39987930176123 136.46006664899457 3.0000000000131664
    vertex 50.39987930176119 130.56006664899084 9.00000000000946
  endloop
endfacet
facet normal 1.0 -1.0562012525283879e-27 1.685497207959664e-15
  outer loop
    vertex 50.39987930176119 130.56006664899084 9.00000000000946
    vertex 50.39987930176123 136.46006664899457 3.0000000000131664
    vertex 50.39987930176119 130.5600666489871 15.000000000009459
  endloop
endfacet
facet normal 1.0 -1.0562012525283879e-27 1.685497207959664e-15
  outer loop
    vertex 50.39987930176119 130.56006664899084 9.00000000000946
    vertex 50.39987930176119 130.5600666489871 15.000000000009459
    vertex 50.39987930176119 130.56006664898834 13.000000000009463
  endloop
endfacet
facet normal 1.0 -1.0562012525283879e-27 1.685497207959664e-15
  outer loop
    vertex 50.39987930176123 115.46006664899649 0.0
    vertex 50.39987930176119 129.26006664899222 6.748333950169104
    vertex 50.39987930176119 128.63299616625892 6.488592851656676
  endloop
endfacet
facet normal 1.0 -1.0562012525283879e-27 1.685497207959664e-15
  outer loop
    vertex 50.39987930176123 115.46006664899649 0.0
    vertex 50.39987930176119 128.63299616625892 6.488592851656676
    vertex 50.39987930176119 127.96006664899247 6.400000000007833
  endloop
endfacet
facet normal 1.0 -1.0562012525283879e-27 1.685497207959664e-15
  outer loop
    vertex 50.39987930176123 115.46006664899649 0.0
    vertex 50.39987930176119 127.96006664899247 6.400000000007833
    vertex 50.39987930176119 127.28713713172584 6.488592851655834
  endloop
endfacet
facet normal 1.0 -1.0562012525283879e-27 1.685497207959664e-15
  outer loop
    vertex 50.39987930176123 115.46006664899649 0.0
    vertex 50.39987930176119 127.28713713172584 6.488592851655834
    vertex 50.39987930176119 126.66006664899223 6.748333950167473
  endloop
endfacet
facet normal 1.0 -1.0562012525283879e-27 1.685497207959664e-15
  outer loop
    vertex 50.39987930176123 115.46006664899649 0.0
    vertex 50.39987930176119 126.66006664899223 6.748333950167473
    vertex 50.39987930176119 126.12158901790698 7.161522368921659
  endloop
endfacet
facet normal 1.0 -1.0562012525283879e-27 1.685497207959664e-15
  outer loop
    vertex 50.39987930176123 115.46006664899649 0.0
    vertex 50.39987930176119 126.12158901790698 7.161522368921659
    vertex 50.39987930176123 119.46006664899457 3.0000000000025127
  endloop
endfacet
facet normal 1.0 -1.0562012525283879e-27 1.685497207959664e-15
  outer loop
    vertex 50.39987930176123 119.46006664899457 3.0000000000025127
    vertex 50.39987930176119 126.12158901790698 7.161522368921659
    vertex 50.39987930176119 125.70840059915211 7.70000000000642
  endloop
endfacet
facet normal 1.0 -1.0562012525283879e-27 1.685497207959664e-15
  outer loop
    vertex 50.39987930176123 119.46006664899457 3.0000000000025127
    vertex 50.39987930176119 125.70840059915211 7.70000000000642
    vertex 50.39987930176119 125.44865950063966 8.327070482739707
  endloop
endfacet
facet normal 1.0 -1.0562012525283879e-27 1.685497207959664e-15
  outer loop
    vertex 50.39987930176123 119.46006664899457 3.0000000000025127
    vertex 50.39987930176119 125.44865950063966 8.327070482739707
    vertex 50.39987930176119 125.36006664899085 9.000000000006201
  endloop
endfacet
facet normal 1.0 -1.0562012525283879e-27 1.685497207959664e-15
  outer loop
    vertex 50.39987930176123 119.46006664899457 3.0000000000025127
    vertex 50.39987930176119 125.36006664899085 9.000000000006201
    vertex 50.39987930176123 119.46006664898708 15.000000000002503
  endloop
endfacet
facet normal 1.0 -1.0562012525283879e-27 1.685497207959664e-15
  outer loop
    vertex 50.39987930176123 115.46006664899649 0.0
    vertex 50.39987930176123 119.46006664899457 3.0000000000025127
    vertex 50.39987930176123 115.46006664899457 3.0000000000000058
  endloop
endfacet
facet normal 1.326226790170926e-18 -6.266080889159508e-13 1.0
  outer loop
    vertex 0.3998793017612353 119.46006664898708 15.000000000002503
    vertex 4.399879301761228 123.9600666489871 15.000000000005322
    vertex 0.3998793017612353 125.36006664898709 15.0000000000062
  endloop
endfacet
facet normal 1.326226790170926e-18 -6.266080889159508e-13 1.0
  outer loop
    vertex 4.399879301761228 123.9600666489871 15.000000000005322
    vertex 0.3998793017612353 119.46006664898708 15.000000000002503
    vertex 50.39987930176123 119.46006664898708 15.000000000002503
  endloop
endfacet
facet normal 1.326226790170926e-18 -6.266080889159508e-13 1.0
  outer loop
    vertex 4.399879301761228 123.9600666489871 15.000000000005322
    vertex 50.39987930176123 119.46006664898708 15.000000000002503
    vertex 9.399879301761219 123.9600666489871 15.000000000005322
  endloop
endfacet
facet normal 1.326226790170926e-18 -6.266080889159508e-13 1.0
  outer loop
    vertex 9.399879301761219 123.9600666489871 15.000000000005322
    vertex 50.39987930176123 119.46006664898708 15.000000000002503
    vertex 9.399879301761219 125.36006664898709 15.0000000000062
  endloop
endfacet
facet normal 1.326226790170926e-18 -6.266080889159508e-13 1.0
  outer loop
    vertex 9.399879301761219 125.36006664898709 15.0000000000062
    vertex 50.39987930176123 119.46006664898708 15.000000000002503
    vertex 50.39987930176119 125.36006664898709 15.0000000000062
  endloop
endfacet
facet normal 1.326226790170926e-18 -6.266080889159508e-13 1.0
  outer loop
    vertex 4.399879301761228 125.36006664898709 15.0000000000062
    vertex 0.3998793017612353 125.36006664898709 15.0000000000062
    vertex 4.399879301761228 123.9600666489871 15.000000000005322
  endloop
endfacet
facet normal -1.0 0.0 -0.0
  outer loop
    vertex 0.3998793017612353 115.46006664899649 0.0
    vertex 0.3998793017612353 140.46006664899457 3.000000000015668
    vertex 0.3998793017612353 140.46006664899647 1.566773377703612e-11
  endloop
endfacet
facet normal -1.0 0.0 -0.0
  outer loop
    vertex 0.3998793017612353 140.46006664899457 3.000000000015668
    vertex 0.3998793017612353 115.46006664899649 0.0
    vertex 0.3998793017612353 136.46006664899457 3.000000000013161
  endloop
endfacet
facet normal -1.0 0.0 -0.0
  outer loop
    vertex 0.3998793017612353 136.46006664899457 3.000000000013161
    vertex 0.3998793017612353 115.46006664899649 0.0
    vertex 0.3998793017612353 129.26006666017636 6.748333956626275
  endloop
endfacet
facet normal -1.0 0.0 -0.0
  outer loop
    vertex 0.3998793017612353 136.46006664899457 3.000000000013161
    vertex 0.3998793017612353 129.26006666017636 6.748333956626275
    vertex 0.3998793017612353 129.79854428692587 7.161522375772825
  endloop
endfacet
facet normal -1.0 0.0 -0.0
  outer loop
    vertex 0.3998793017612353 136.46006664899457 3.000000000013161
    vertex 0.3998793017612353 129.79854428692587 7.161522375772825
    vertex 0.3998793017612353 130.2117327020598 7.700000005601316
  endloop
endfacet
facet normal -1.0 0.0 -0.0
  outer loop
    vertex 0.3998793017612353 136.46006664899457 3.000000000013161
    vertex 0.3998793017612353 130.2117327020598 7.700000005601316
    vertex 0.3998793017612353 130.47147379817844 8.327070485861427
  endloop
endfacet
facet normal -1.0 0.0 -0.0
  outer loop
    vertex 0.3998793017612353 136.46006664899457 3.000000000013161
    vertex 0.3998793017612353 130.47147379817844 8.327070485861427
    vertex 0.3998793017612353 130.56006664899084 9.00000000000946
  endloop
endfacet
facet normal -1.0 0.0 -0.0
  outer loop
    vertex 0.3998793017612353 129.26006666017636 6.748333956626275
    vertex 0.3998793017612353 115.46006664899649 0.0
    vertex 0.3998793017612353 128.6329961818518 6.4885928558347725
  endloop
endfacet
facet normal -1.0 0.0 -0.0
  outer loop
    vertex 0.3998793017612353 128.6329961818518 6.4885928558347725
    vertex 0.3998793017612353 115.46006664899649 0.0
    vertex 0.3998793017612353 128.14011121893685 6.423703316018833
  endloop
endfacet
facet normal -1.0 0.0 -0.0
  outer loop
    vertex 0.3998793017612353 128.14011121893685 6.423703316018833
    vertex 0.3998793017612353 115.46006664899649 0.0
    vertex 0.3998793017612353 127.960066668364 6.400000000007833
  endloop
endfacet
facet normal -1.0 0.0 -0.0
  outer loop
    vertex 0.3998793017612353 127.960066668364 6.400000000007833
    vertex 0.3998793017612353 115.46006664899649 0.0
    vertex 0.3998793017612353 127.78002209705937 6.4237033160186074
  endloop
endfacet
facet normal -1.0 0.0 -0.0
  outer loop
    vertex 0.3998793017612353 127.78002209705937 6.4237033160186074
    vertex 0.3998793017612353 115.46006664899649 0.0
    vertex 0.3998793017612353 127.28713715355585 6.488592845806502
  endloop
endfacet
facet normal -1.0 0.0 -0.0
  outer loop
    vertex 0.3998793017612353 127.28713715355585 6.488592845806502
    vertex 0.3998793017612353 115.46006664899649 0.0
    vertex 0.3998793017612353 126.66006667136051 6.748333937253138
  endloop
endfacet
facet normal -1.0 0.0 -0.0
  outer loop
    vertex 0.3998793017612353 126.66006667136051 6.748333937253138
    vertex 0.3998793017612353 115.46006664899649 0.0
    vertex 0.3998793017612353 126.12158903845356 7.161522348375067
  endloop
endfacet
facet normal -1.0 0.0 -0.0
  outer loop
    vertex 0.3998793017612353 126.12158903845356 7.161522348375067
    vertex 0.3998793017612353 115.46006664899649 0.0
    vertex 0.3998793017612353 119.46006664899457 3.0000000000025127
  endloop
endfacet
facet normal -1.0 0.0 -0.0
  outer loop
    vertex 0.3998793017612353 126.12158903845356 7.161522348375067
    vertex 0.3998793017612353 119.46006664899457 3.0000000000025127
    vertex 0.3998793017612353 125.70840061529505 7.699999972046057
  endloop
endfacet
facet normal -1.0 0.0 -0.0
  outer loop
    vertex 0.3998793017612353 125.70840061529505 7.699999972046057
    vertex 0.3998793017612353 119.46006664899457 3.0000000000025127
    vertex 0.3998793017612353 125.44865950983147 8.327070448435396
  endloop
endfacet
facet normal -1.0 0.0 -0.0
  outer loop
    vertex 0.3998793017612353 125.44865950983147 8.327070448435396
    vertex 0.3998793017612353 119.46006664899457 3.0000000000025127
    vertex 0.3998793017612353 125.36006664899085 8.999999961263182
  endloop
endfacet
facet normal -1.0 0.0 -0.0
  outer loop
    vertex 0.3998793017612353 125.36006664899085 8.999999961263182
    vertex 0.3998793017612353 119.46006664899457 3.0000000000025127
    vertex 0.3998793017612353 125.36006664898835 13.000000000006203
  endloop
endfacet
facet normal -1.0 0.0 -0.0
  outer loop
    vertex 0.3998793017612353 125.36006664898835 13.000000000006203
    vertex 0.3998793017612353 119.46006664899457 3.0000000000025127
    vertex 0.3998793017612353 125.36006664898709 15.0000000000062
  endloop
endfacet
facet normal -1.0 0.0 -0.0
  outer loop
    vertex 0.3998793017612353 125.36006664898709 15.0000000000062
    vertex 0.3998793017612353 119.46006664899457 3.0000000000025127
    vertex 0.3998793017612353 119.46006664898708 15.000000000002503
  endloop
endfacet
facet normal -1.0 0.0 -0.0
  outer loop
    vertex 0.3998793017612353 119.46006664899457 3.0000000000025127
    vertex 0.3998793017612353 115.46006664899649 0.0
    vertex 0.3998793017612353 115.46006664899457 3.0000000000000058
  endloop
endfacet
facet normal -1.0 0.0 -0.0
  outer loop
    vertex 0.3998793017612353 136.46006664899457 3.000000000013161
    vertex 0.3998793017612353 136.4600666489871 15.000000000013156
    vertex 0.3998793017612353 136.46006664899335 5.0000000000131575
  endloop
endfacet
facet normal -1.0 0.0 -0.0
  outer loop
    vertex 0.3998793017612353 136.4600666489871 15.000000000013156
    vertex 0.3998793017612353 136.46006664899457 3.000000000013161
    vertex 0.3998793017612353 130.5600666489871 15.000000000009459
  endloop
endfacet
facet normal -1.0 0.0 -0.0
  outer loop
    vertex 0.3998793017612353 130.5600666489871 15.000000000009459
    vertex 0.3998793017612353 136.46006664899457 3.000000000013161
    vertex 0.3998793017612353 130.56006664899084 9.00000000000946
  endloop
endfacet
facet normal 0.0 1.0 6.267208974009009e-13
  outer loop
    vertex 9.399879301761219 123.96006664899336 5.000000000005324
    vertex 4.399879301761228 123.9600666489871 15.000000000005322
    vertex 9.399879301761219 123.9600666489871 15.000000000005322
  endloop
endfacet
facet normal 0.0 1.0 6.267208974009009e-13
  outer loop
    vertex 4.399879301761228 123.9600666489871 15.000000000005322
    vertex 9.399879301761219 123.96006664899336 5.000000000005324
    vertex 4.399879301761228 123.96006664899336 5.000000000005324
  endloop
endfacet
facet normal 1.5001548121377637e-33 0.9978589227715751 0.06540313635562
  outer loop
    vertex 4.399879301761228 125.36006664899085 8.999999961263182
    vertex 0.3998793017612353 125.36006664898835 13.000000000006203
    vertex 4.399879301761228 125.36006664898835 13.000000000006203
  endloop
endfacet
facet normal 2.99388572966089e-33 1.0 6.269777055283777e-13
  outer loop
    vertex 0.3998793017612353 125.36006664898835 13.000000000006203
    vertex 4.399879301761228 125.36006664899085 8.999999961263182
    vertex 0.3998793017612353 125.36006664899085 8.999999961263182
  endloop
endfacet
facet normal 1.0 4.1130440060998873e-32 3.477607707083592e-32
  outer loop
    vertex 4.399879301761228 123.9600666489871 15.000000000005322
    vertex 4.399879301761228 125.36006664898835 13.000000000006203
    vertex 4.399879301761228 125.36006664898709 15.0000000000062
  endloop
endfacet
facet normal 1.0 4.1130440060998873e-32 3.477607707083592e-32
  outer loop
    vertex 4.399879301761228 125.36006664898835 13.000000000006203
    vertex 4.399879301761228 123.9600666489871 15.000000000005322
    vertex 4.399879301761228 125.36006664899085 8.999999961263182
  endloop
endfacet
facet normal 1.0 4.1130440060998873e-32 3.477607707083592e-32
  outer loop
    vertex 4.399879301761228 130.5600666489871 15.000000000009459
    vertex 4.399879301761228 131.96006664899335 5.0000000000103375
    vertex 4.399879301761228 131.96006664898707 15.000000000010337
  endloop
endfacet
facet normal 1.0 4.1130440060998873e-32 3.477607707083592e-32
  outer loop
    vertex 4.399879301761228 131.96006664899335 5.0000000000103375
    vertex 4.399879301761228 130.5600666489871 15.000000000009459
    vertex 4.399879301761228 130.56006664899084 9.00000000000946
  endloop
endfacet
facet normal 1.0 4.1130440060998873e-32 3.477607707083592e-32
  outer loop
    vertex 4.399879301761228 131.96006664899335 5.0000000000103375
    vertex 4.399879301761228 130.56006664899084 9.00000000000946
    vertex 4.399879301761228 130.47147379817844 8.327070485861427
  endloop
endfacet
facet normal 1.0 4.1130440060998873e-32 3.477607707083592e-32
  outer loop
    vertex 4.399879301761228 131.96006664899335 5.0000000000103375
    vertex 4.399879301761228 130.47147379817844 8.327070485861427
    vertex 4.399879301761228 130.2117327020598 7.700000005601316
  endloop
endfacet
facet normal 1.0 4.1130440060998873e-32 3.477607707083592e-32
  outer loop
    vertex 4.399879301761228 131.96006664899335 5.0000000000103375
    vertex 4.399879301761228 130.2117327020598 7.700000005601316
    vertex 4.399879301761228 129.79854428692587 7.161522375772825
  endloop
endfacet
facet normal 1.0 4.1130440060998873e-32 3.477607707083592e-32
  outer loop
    vertex 4.399879301761228 131.96006664899335 5.0000000000103375
    vertex 4.399879301761228 129.79854428692587 7.161522375772825
    vertex 4.399879301761228 129.26006666017636 6.748333956626275
  endloop
endfacet
facet normal 1.0 4.1130440060998873e-32 3.477607707083592e-32
  outer loop
    vertex 4.399879301761228 131.96006664899335 5.0000000000103375
    vertex 4.399879301761228 129.26006666017636 6.748333956626275
    vertex 4.399879301761228 128.6329961818518 6.4885928558347725
  endloop
endfacet
facet normal 1.0 4.1130440060998873e-32 3.477607707083592e-32
  outer loop
    vertex 4.399879301761228 131.96006664899335 5.0000000000103375
    vertex 4.399879301761228 128.6329961818518 6.4885928558347725
    vertex 4.399879301761228 123.96006664899336 5.000000000005324
  endloop
endfacet
facet normal 1.0 4.1130440060998873e-32 3.477607707083592e-32
  outer loop
    vertex 4.399879301761228 123.96006664899336 5.000000000005324
    vertex 4.399879301761228 128.6329961818518 6.4885928558347725
    vertex 4.399879301761228 128.14011121893685 6.423703316018833
  endloop
endfacet
facet normal 1.0 4.1130440060998873e-32 3.477607707083592e-32
  outer loop
    vertex 4.399879301761228 123.96006664899336 5.000000000005324
    vertex 4.399879301761228 128.14011121893685 6.423703316018833
    vertex 4.399879301761228 127.78002209705937 6.4237033160186074
  endloop
endfacet
facet normal 1.0 4.1130440060998873e-32 3.477607707083592e-32
  outer loop
    vertex 4.399879301761228 123.96006664899336 5.000000000005324
    vertex 4.399879301761228 127.78002209705937 6.4237033160186074
    vertex 4.399879301761228 127.28713715355585 6.488592845806502
  endloop
endfacet
facet normal 1.0 4.1130440060998873e-32 3.477607707083592e-32
  outer loop
    vertex 4.399879301761228 123.96006664899336 5.000000000005324
    vertex 4.399879301761228 127.28713715355585 6.488592845806502
    vertex 4.399879301761228 126.66006667136051 6.748333937253138
  endloop
endfacet
facet normal 1.0 4.1130440060998873e-32 3.477607707083592e-32
  outer loop
    vertex 4.399879301761228 123.96006664899336 5.000000000005324
    vertex 4.399879301761228 126.66006667136051 6.748333937253138
    vertex 4.399879301761228 126.12158903845356 7.161522348375067
  endloop
endfacet
facet normal 1.0 4.1130440060998873e-32 3.477607707083592e-32
  outer loop
    vertex 4.399879301761228 123.96006664899336 5.000000000005324
    vertex 4.399879301761228 126.12158903845356 7.161522348375067
    vertex 4.399879301761228 125.70840061529505 7.699999972046057
  endloop
endfacet
facet normal 1.0 4.1130440060998873e-32 3.477607707083592e-32
  outer loop
    vertex 4.399879301761228 123.96006664899336 5.000000000005324
    vertex 4.399879301761228 125.70840061529505 7.699999972046057
    vertex 4.399879301761228 125.44865950983147 8.327070448435396
  endloop
endfacet
facet normal 1.0 4.1130440060998873e-32 3.477607707083592e-32
  outer loop
    vertex 4.399879301761228 123.96006664899336 5.000000000005324
    vertex 4.399879301761228 125.44865950983147 8.327070448435396
    vertex 4.399879301761228 125.36006664899085 8.999999961263182
  endloop
endfacet
facet normal 1.0 4.1130440060998873e-32 3.477607707083592e-32
  outer loop
    vertex 4.399879301761228 123.96006664899336 5.000000000005324
    vertex 4.399879301761228 125.36006664899085 8.999999961263182
    vertex 4.399879301761228 123.9600666489871 15.000000000005322
  endloop
endfacet
facet normal 1.0574874309554617e-16 -6.268109311605023e-13 1.0
  outer loop
    vertex 9.399879301761219 123.96006664899336 5.000000000005324
    vertex 4.399879301761228 131.96006664899335 5.0000000000103375
    vertex 4.399879301761228 123.96006664899336 5.000000000005324
  endloop
endfacet
facet normal 1.0574874309554617e-16 -6.268109311605023e-13 1.0
  outer loop
    vertex 4.399879301761228 131.96006664899335 5.0000000000103375
    vertex 9.399879301761219 123.96006664899336 5.000000000005324
    vertex 9.399879301761219 131.96006664899335 5.0000000000103375
  endloop
endfacet
facet normal 0.0 -1.0 -6.267208974009009e-13
  outer loop
    vertex 4.399879301761228 131.96006664899335 5.0000000000103375
    vertex 9.399879301761219 131.96006664898707 15.000000000010337
    vertex 4.399879301761228 131.96006664898707 15.000000000010337
  endloop
endfacet
facet normal 0.0 -1.0 -6.267208974009009e-13
  outer loop
    vertex 9.399879301761219 131.96006664898707 15.000000000010337
    vertex 4.399879301761228 131.96006664899335 5.0000000000103375
    vertex 9.399879301761219 131.96006664899335 5.0000000000103375
  endloop
endfacet
facet normal -1.0 0.0 -0.0
  outer loop
    vertex 9.399879301761219 131.96006664899335 5.0000000000103375
    vertex 9.399879301761219 130.4714737973428 8.327070482742847
    vertex 9.399879301761219 131.96006664898707 15.000000000010337
  endloop
endfacet
facet normal -1.0 0.0 -0.0
  outer loop
    vertex 9.399879301761219 130.4714737973428 8.327070482742847
    vertex 9.399879301761219 131.96006664899335 5.0000000000103375
    vertex 9.399879301761219 130.2117326988312 7.7000000000092435
  endloop
endfacet
facet normal -1.0 0.0 -0.0
  outer loop
    vertex 9.399879301761219 130.2117326988312 7.7000000000092435
    vertex 9.399879301761219 131.96006664899335 5.0000000000103375
    vertex 9.399879301761219 129.798544280077 7.161522368923961
  endloop
endfacet
facet normal -1.0 0.0 -0.0
  outer loop
    vertex 9.399879301761219 129.798544280077 7.161522368923961
    vertex 9.399879301761219 131.96006664899335 5.0000000000103375
    vertex 9.399879301761219 129.26006664899222 6.748333950169104
  endloop
endfacet
facet normal -1.0 0.0 -0.0
  outer loop
    vertex 9.399879301761219 129.26006664899222 6.748333950169104
    vertex 9.399879301761219 131.96006664899335 5.0000000000103375
    vertex 9.399879301761219 128.63299616625892 6.488592851656676
  endloop
endfacet
facet normal -1.0 0.0 -0.0
  outer loop
    vertex 9.399879301761219 128.63299616625892 6.488592851656676
    vertex 9.399879301761219 131.96006664899335 5.0000000000103375
    vertex 9.399879301761219 123.96006664899336 5.000000000005324
  endloop
endfacet
facet normal -1.0 0.0 -0.0
  outer loop
    vertex 9.399879301761219 131.96006664898707 15.000000000010337
    vertex 9.399879301761219 130.4714737973428 8.327070482742847
    vertex 9.399879301761219 130.56006664899084 9.00000000000946
  endloop
endfacet
facet normal -1.0 0.0 -0.0
  outer loop
    vertex 9.399879301761219 128.63299616625892 6.488592851656676
    vertex 9.399879301761219 123.96006664899336 5.000000000005324
    vertex 9.399879301761219 127.96006664899247 6.400000000007833
  endloop
endfacet
facet normal -1.0 0.0 -0.0
  outer loop
    vertex 9.399879301761219 127.96006664899247 6.400000000007833
    vertex 9.399879301761219 123.96006664899336 5.000000000005324
    vertex 9.399879301761219 127.28713713172584 6.488592851655834
  endloop
endfacet
facet normal -1.0 0.0 -0.0
  outer loop
    vertex 9.399879301761219 127.28713713172584 6.488592851655834
    vertex 9.399879301761219 123.96006664899336 5.000000000005324
    vertex 9.399879301761219 126.66006664899223 6.748333950167473
  endloop
endfacet
facet normal -1.0 0.0 -0.0
  outer loop
    vertex 9.399879301761219 126.66006664899223 6.748333950167473
    vertex 9.399879301761219 123.96006664899336 5.000000000005324
    vertex 9.399879301761219 126.12158901790698 7.161522368921659
  endloop
endfacet
facet normal -1.0 0.0 -0.0
  outer loop
    vertex 9.399879301761219 126.12158901790698 7.161522368921659
    vertex 9.399879301761219 123.96006664899336 5.000000000005324
    vertex 9.399879301761219 125.70840059915211 7.70000000000642
  endloop
endfacet
facet normal -1.0 0.0 -0.0
  outer loop
    vertex 9.399879301761219 125.70840059915211 7.70000000000642
    vertex 9.399879301761219 123.96006664899336 5.000000000005324
    vertex 9.399879301761219 125.44865950063966 8.327070482739707
  endloop
endfacet
facet normal -1.0 0.0 -0.0
  outer loop
    vertex 9.399879301761219 125.44865950063966 8.327070482739707
    vertex 9.399879301761219 123.96006664899336 5.000000000005324
    vertex 9.399879301761219 125.36006664899085 9.000000000006201
  endloop
endfacet
facet normal -1.0 0.0 -0.0
  outer loop
    vertex 9.399879301761219 125.36006664899085 9.000000000006201
    vertex 9.399879301761219 123.96006664899336 5.000000000005324
    vertex 9.399879301761219 125.36006664898835 13.000000000006203
  endloop
endfacet
facet normal -1.0 0.0 -0.0
  outer loop
    vertex 9.399879301761219 125.36006664898835 13.000000000006203
    vertex 9.399879301761219 123.96006664899336 5.000000000005324
    vertex 9.399879301761219 125.36006664898709 15.0000000000062
  endloop
endfacet
facet normal -1.0 0.0 -0.0
  outer loop
    vertex 9.399879301761219 125.36006664898709 15.0000000000062
    vertex 9.399879301761219 123.96006664899336 5.000000000005324
    vertex 9.399879301761219 123.9600666489871 15.000000000005322
  endloop
endfacet
facet normal -1.0 0.0 -0.0
  outer loop
    vertex 9.399879301761219 130.56006664899084 9.00000000000946
    vertex 9.399879301761219 130.5600666489871 15.000000000009459
    vertex 9.399879301761219 131.96006664898707 15.000000000010337
  endloop
endfacet
facet normal -1.0 0.0 -0.0
  outer loop
    vertex 9.399879301761219 130.5600666489871 15.000000000009459
    vertex 9.399879301761219 130.56006664899084 9.00000000000946
    vertex 9.399879301761219 130.56006664898834 13.000000000009463
  endloop
endfacet
facet normal 0.0 -0.9978589232589483 0.06540312891974169
  outer loop
    vertex 0.3998793017612353 130.56006664899084 9.00000000000946
    vertex 4.399879301761228 130.5600666489871 15.000000000009459
    vertex 0.3998793017612353 130.5600666489871 15.000000000009459
  endloop
endfacet
facet normal 0.0 -1.0 -6.26653228295052e-13
  outer loop
    vertex 4.399879301761228 130.5600666489871 15.000000000009459
    vertex 0.3998793017612353 130.56006664899084 9.00000000000946
    vertex 4.399879301761228 130.56006664899084 9.00000000000946
  endloop
endfacet
facet normal -9.160174639855749e-19 0.25881903670575546 0.9659258285389748
  outer loop
    vertex 4.399879301761228 127.28713715355585 6.488592845806502
    vertex 0.3998793017612353 127.78002209705937 6.4237033160186074
    vertex 0.3998793017612353 127.28713715355585 6.488592845806502
  endloop
endfacet
facet normal -0.0009898377845422837 0.06539774420712836 0.9978587852365581
  outer loop
    vertex 0.3998793017612353 127.78002209705937 6.4237033160186074
    vertex 4.399879301761228 127.28713715355585 6.488592845806502
    vertex 4.399879301761228 127.78002209705937 6.4237033160186074
  endloop
endfacet
facet normal -1.6858046517934282e-18 0.49999999139626805 0.8660254087518056
  outer loop
    vertex 4.399879301761228 126.66006667136051 6.748333937253138
    vertex 0.3998793017612353 127.28713715355585 6.488592845806502
    vertex 0.3998793017612353 126.66006667136051 6.748333937253138
  endloop
endfacet
facet normal -9.160174639855749e-19 0.25881903670575546 0.9659258285389748
  outer loop
    vertex 0.3998793017612353 127.28713715355585 6.488592845806502
    vertex 4.399879301761228 126.66006667136051 6.748333937253138
    vertex 4.399879301761228 127.28713715355585 6.488592845806502
  endloop
endfacet
facet normal -1.3408843752171656e-18 0.7071067732835706 0.7071067890895244
  outer loop
    vertex 4.399879301761228 126.12158903845356 7.161522348375067
    vertex 0.3998793017612353 126.66006667136051 6.748333937253138
    vertex 0.3998793017612353 126.12158903845356 7.161522348375067
  endloop
endfacet
facet normal -1.6858046517934282e-18 0.49999999139626805 0.8660254087518056
  outer loop
    vertex 0.3998793017612353 126.66006667136051 6.748333937253138
    vertex 4.399879301761228 126.12158903845356 7.161522348375067
    vertex 4.399879301761228 126.66006667136051 6.748333937253138
  endloop
endfacet
facet normal -1.3408843752171656e-18 0.7071067732835706 0.7071067890895244
  outer loop
    vertex 4.399879301761228 126.12158903845356 7.161522348375067
    vertex 0.3998793017612353 125.70840061529505 7.699999972046057
    vertex 4.399879301761228 125.70840061529505 7.699999972046057
  endloop
endfacet
facet normal -9.045850452479558e-19 0.8660253975753077 0.5000000107545302
  outer loop
    vertex 0.3998793017612353 125.70840061529505 7.699999972046057
    vertex 4.399879301761228 126.12158903845356 7.161522348375067
    vertex 0.3998793017612353 126.12158903845356 7.161522348375067
  endloop
endfacet
facet normal -9.045850452479558e-19 0.8660253975753077 0.5000000107545302
  outer loop
    vertex 4.399879301761228 125.70840061529505 7.699999972046057
    vertex 0.3998793017612353 125.44865950983147 8.327070448435396
    vertex 4.399879301761228 125.44865950983147 8.327070448435396
  endloop
endfacet
facet normal -3.33487857838644e-19 0.9659258227535937 0.258819058297091
  outer loop
    vertex 0.3998793017612353 125.44865950983147 8.327070448435396
    vertex 4.399879301761228 125.70840061529505 7.699999972046057
    vertex 0.3998793017612353 125.70840061529505 7.699999972046057
  endloop
endfacet
facet normal -3.33487857838644e-19 0.9659258227535937 0.258819058297091
  outer loop
    vertex 4.399879301761228 125.44865950983147 8.327070448435396
    vertex 0.3998793017612353 125.36006664899085 8.999999961263182
    vertex 4.399879301761228 125.36006664899085 8.999999961263182
  endloop
endfacet
facet normal 1.5001548121377637e-33 0.9978589227715751 0.06540313635562
  outer loop
    vertex 0.3998793017612353 125.36006664899085 8.999999961263182
    vertex 4.399879301761228 125.44865950983147 8.327070448435396
    vertex 0.3998793017612353 125.44865950983147 8.327070448435396
  endloop
endfacet
facet normal 1.151709023835291e-19 0.49999999999945804 0.8660254037847517
  outer loop
    vertex 50.39987930176119 126.66006664899223 6.748333950167473
    vertex 9.399879301761219 127.28713713172584 6.488592851655834
    vertex 9.399879301761219 126.66006664899223 6.748333950167473
  endloop
endfacet
facet normal 7.14190090395584e-20 0.2588190451019161 0.9659258262892303
  outer loop
    vertex 9.399879301761219 127.28713713172584 6.488592851655834
    vertex 50.39987930176119 126.66006664899223 6.748333950167473
    vertex 50.39987930176119 127.28713713172584 6.488592851655834
  endloop
endfacet
facet normal 1.5107408905897735e-19 0.7071067811861043 0.7071067811869909
  outer loop
    vertex 50.39987930176119 126.12158901790698 7.161522368921659
    vertex 9.399879301761219 126.66006664899223 6.748333950167473
    vertex 9.399879301761219 126.12158901790698 7.161522368921659
  endloop
endfacet
facet normal 1.151709023835291e-19 0.49999999999945804 0.8660254037847517
  outer loop
    vertex 9.399879301761219 126.66006664899223 6.748333950167473
    vertex 50.39987930176119 126.12158901790698 7.161522368921659
    vertex 50.39987930176119 126.66006664899223 6.748333950167473
  endloop
endfacet
facet normal 7.14190090395584e-20 0.2588190451019161 0.9659258262892303
  outer loop
    vertex 50.39987930176119 127.28713713172584 6.488592851655834
    vertex 9.399879301761219 127.96006664899247 6.400000000007833
    vertex 9.399879301761219 127.28713713172584 6.488592851655834
  endloop
endfacet
facet normal 2.2800028255034635e-20 -6.266050529722574e-13 1.0
  outer loop
    vertex 9.399879301761219 127.96006664899247 6.400000000007833
    vertex 50.39987930176119 127.28713713172584 6.488592851655834
    vertex 50.39987930176119 127.96006664899247 6.400000000007833
  endloop
endfacet
facet normal 2.2800028255034635e-20 -6.266050529722574e-13 1.0
  outer loop
    vertex 50.39987930176119 127.96006664899247 6.400000000007833
    vertex 9.399879301761219 128.63299616625892 6.488592851656676
    vertex 9.399879301761219 127.96006664899247 6.400000000007833
  endloop
endfacet
facet normal -2.737273677624135e-20 -0.2588190451031256 0.9659258262889062
  outer loop
    vertex 9.399879301761219 128.63299616625892 6.488592851656676
    vertex 50.39987930176119 127.96006664899247 6.400000000007833
    vertex 50.39987930176119 128.63299616625892 6.488592851656676
  endloop
endfacet
facet normal -2.737273677624135e-20 -0.2588190451031256 0.9659258262889062
  outer loop
    vertex 50.39987930176119 128.63299616625892 6.488592851656676
    vertex 9.399879301761219 129.26006664899222 6.748333950169104
    vertex 9.399879301761219 128.63299616625892 6.488592851656676
  endloop
endfacet
facet normal -7.56800950318029e-20 -0.5000000000005423 0.8660254037841256
  outer loop
    vertex 9.399879301761219 129.26006664899222 6.748333950169104
    vertex 50.39987930176119 128.63299616625892 6.488592851656676
    vertex 50.39987930176119 129.26006664899222 6.748333950169104
  endloop
endfacet
facet normal -7.56800950318029e-20 -0.5000000000005423 0.8660254037841256
  outer loop
    vertex 50.39987930176119 129.26006664899222 6.748333950169104
    vertex 9.399879301761219 129.798544280077 7.161522368923961
    vertex 9.399879301761219 129.26006664899222 6.748333950169104
  endloop
endfacet
facet normal -1.188299798782175e-19 -0.7071067811869902 0.7071067811861048
  outer loop
    vertex 9.399879301761219 129.798544280077 7.161522368923961
    vertex 50.39987930176119 129.26006664899222 6.748333950169104
    vertex 50.39987930176119 129.798544280077 7.161522368923961
  endloop
endfacet
facet normal -1.188299798782175e-19 -0.7071067811869902 0.7071067811861048
  outer loop
    vertex 9.399879301761219 129.798544280077 7.161522368923961
    vertex 50.39987930176119 130.2117326988312 7.7000000000092435
    vertex 9.399879301761219 130.2117326988312 7.7000000000092435
  endloop
endfacet
facet normal -1.5388179797175825e-19 -0.8660254037847516 0.49999999999945827
  outer loop
    vertex 50.39987930176119 130.2117326988312 7.7000000000092435
    vertex 9.399879301761219 129.798544280077 7.161522368923961
    vertex 50.39987930176119 129.798544280077 7.161522368923961
  endloop
endfacet
facet normal -1.5388179797175825e-19 -0.8660254037847516 0.49999999999945827
  outer loop
    vertex 9.399879301761219 130.2117326988312 7.7000000000092435
    vertex 50.39987930176119 130.4714737973428 8.327070482742847
    vertex 9.399879301761219 130.4714737973428 8.327070482742847
  endloop
endfacet
facet normal -1.7844682583521876e-19 -0.9659258262892304 0.2588190451019159
  outer loop
    vertex 50.39987930176119 130.4714737973428 8.327070482742847
    vertex 9.399879301761219 130.2117326988312 7.7000000000092435
    vertex 50.39987930176119 130.2117326988312 7.7000000000092435
  endloop
endfacet
facet normal -1.7844682583521876e-19 -0.9659258262892304 0.2588190451019159
  outer loop
    vertex 9.399879301761219 130.4714737973428 8.327070482742847
    vertex 50.39987930176119 130.56006664899084 9.00000000000946
    vertex 9.399879301761219 130.56006664899084 9.00000000000946
  endloop
endfacet
facet normal -1.8624223980485798e-19 -0.9914448613738923 0.13052619221943043
  outer loop
    vertex 50.39987930176119 130.56006664899084 9.00000000000946
    vertex 9.399879301761219 130.4714737973428 8.327070482742847
    vertex 50.39987930176119 130.4714737973428 8.327070482742847
  endloop
endfacet
facet normal -1.9085099741533193e-19 -1.0 -6.267208974009009e-13
  outer loop
    vertex 9.399879301761219 130.56006664899084 9.00000000000946
    vertex 50.39987930176119 130.56006664898834 13.000000000009463
    vertex 9.399879301761219 130.56006664898834 13.000000000009463
  endloop
endfacet
facet normal -1.9085099741533193e-19 -1.0 -6.267208974009009e-13
  outer loop
    vertex 50.39987930176119 130.56006664898834 13.000000000009463
    vertex 9.399879301761219 130.56006664899084 9.00000000000946
    vertex 50.39987930176119 130.56006664899084 9.00000000000946
  endloop
endfacet
facet normal 0.0 -1.0 -6.316724920907303e-13
  outer loop
    vertex 9.399879301761219 130.56006664898834 13.000000000009463
    vertex 50.39987930176119 130.5600666489871 15.000000000009459
    vertex 9.399879301761219 130.5600666489871 15.000000000009459
  endloop
endfacet
facet normal 0.0 -1.0 -6.316724920907303e-13
  outer loop
    vertex 50.39987930176119 130.5600666489871 15.000000000009459
    vertex 9.399879301761219 130.56006664898834 13.000000000009463
    vertex 50.39987930176119 130.56006664898834 13.000000000009463
  endloop
endfacet
facet normal 0.0 1.0 6.267208974009009e-13
  outer loop
    vertex 4.399879301761228 125.36006664898835 13.000000000006203
    vertex 0.3998793017612353 125.36006664898709 15.0000000000062
    vertex 4.399879301761228 125.36006664898709 15.0000000000062
  endloop
endfacet
facet normal 0.0 1.0 6.267208974009009e-13
  outer loop
    vertex 0.3998793017612353 125.36006664898709 15.0000000000062
    vertex 4.399879301761228 125.36006664898835 13.000000000006203
    vertex 0.3998793017612353 125.36006664898835 13.000000000006203
  endloop
endfacet
facet normal 1.9085099741533196e-19 1.0 6.270733932112194e-13
  outer loop
    vertex 50.39987930176119 125.36006664899085 9.000000000006201
    vertex 9.399879301761219 125.36006664898835 13.000000000006203
    vertex 50.39987930176119 125.36006664898835 13.000000000006203
  endloop
endfacet
facet normal 1.9085099741533196e-19 1.0 6.270733932112194e-13
  outer loop
    vertex 9.399879301761219 125.36006664898835 13.000000000006203
    vertex 50.39987930176119 125.36006664899085 9.000000000006201
    vertex 9.399879301761219 125.36006664899085 9.000000000006201
  endloop
endfacet
facet normal 1.5107408905897735e-19 0.7071067811861043 0.7071067811869909
  outer loop
    vertex 50.39987930176119 126.12158901790698 7.161522368921659
    vertex 9.399879301761219 125.70840059915211 7.70000000000642
    vertex 50.39987930176119 125.70840059915211 7.70000000000642
  endloop
endfacet
facet normal 1.7668182622679298e-19 0.8660254037841255 0.5000000000005423
  outer loop
    vertex 9.399879301761219 125.70840059915211 7.70000000000642
    vertex 50.39987930176119 126.12158901790698 7.161522368921659
    vertex 9.399879301761219 126.12158901790698 7.161522368921659
  endloop
endfacet
facet normal 1.7668182622679298e-19 0.8660254037841255 0.5000000000005423
  outer loop
    vertex 50.39987930176119 125.70840059915211 7.70000000000642
    vertex 9.399879301761219 125.44865950063966 8.327070482739707
    vertex 50.39987930176119 125.44865950063966 8.327070482739707
  endloop
endfacet
facet normal 1.9024898891777587e-19 0.9659258262889062 0.25881904510312564
  outer loop
    vertex 9.399879301761219 125.44865950063966 8.327070482739707
    vertex 50.39987930176119 125.70840059915211 7.70000000000642
    vertex 9.399879301761219 125.70840059915211 7.70000000000642
  endloop
endfacet
facet normal 1.9024898891777587e-19 0.9659258262889062 0.25881904510312564
  outer loop
    vertex 50.39987930176119 125.44865950063966 8.327070482739707
    vertex 9.399879301761219 125.36006664899085 9.000000000006201
    vertex 50.39987930176119 125.36006664899085 9.000000000006201
  endloop
endfacet
facet normal 1.921942415461365e-19 0.9914448613737287 0.13052619222067371
  outer loop
    vertex 9.399879301761219 125.36006664899085 9.000000000006201
    vertex 50.39987930176119 125.44865950063966 8.327070482739707
    vertex 9.399879301761219 125.44865950063966 8.327070482739707
  endloop
endfacet
facet normal 0.0 6.267208974009009e-13 -1.0
  outer loop
    vertex 50.39987930176123 140.46006664899647 1.566773377703612e-11
    vertex 39.343193553153895 136.4600666489965 1.3160783574051037e-11
    vertex 39.343193553153895 140.46006664899647 1.566773377703612e-11
  endloop
endfacet
facet normal 0.0 6.267208974009009e-13 -1.0
  outer loop
    vertex 39.343193553153895 136.4600666489965 1.3160783574051037e-11
    vertex 50.39987930176123 140.46006664899647 1.566773377703612e-11
    vertex 39.343193553153895 119.46006664899647 2.506950202985081e-12
  endloop
endfacet
facet normal 0.0 6.267208974009009e-13 -1.0
  outer loop
    vertex 39.343193553153895 119.46006664899647 2.506950202985081e-12
    vertex 50.39987930176123 140.46006664899647 1.566773377703612e-11
    vertex 39.343193553153895 115.46006664899649 0.0
  endloop
endfacet
facet normal 0.0 6.267208974009009e-13 -1.0
  outer loop
    vertex 39.343193553153895 115.46006664899649 0.0
    vertex 50.39987930176123 140.46006664899647 1.566773377703612e-11
    vertex 50.39987930176123 115.46006664899649 0.0
  endloop
endfacet
facet normal 0.0 6.267208974009009e-13 -1.0
  outer loop
    vertex 39.343193553153895 136.4600666489965 1.3160783574051037e-11
    vertex 36.3431935531539 119.46006664899647 2.506950202985081e-12
    vertex 36.3431935531539 136.4600666489965 1.3160783574051037e-11
  endloop
endfacet
facet normal 0.0 6.267208974009009e-13 -1.0
  outer loop
    vertex 36.3431935531539 119.46006664899647 2.506950202985081e-12
    vertex 39.343193553153895 136.4600666489965 1.3160783574051037e-11
    vertex 39.343193553153895 119.46006664899647 2.506950202985081e-12
  endloop
endfacet
facet normal 0.0 6.267208974009009e-13 -1.0
  outer loop
    vertex 36.3431935531539 140.46006664899647 1.566773377703612e-11
    vertex 12.343193553153903 136.4600666489965 1.3160783574051037e-11
    vertex 12.343193553153903 140.46006664899647 1.566773377703612e-11
  endloop
endfacet
facet normal 0.0 6.267208974009009e-13 -1.0
  outer loop
    vertex 12.343193553153903 136.4600666489965 1.3160783574051037e-11
    vertex 36.3431935531539 140.46006664899647 1.566773377703612e-11
    vertex 12.343193553153903 119.46006664899647 2.506950202985081e-12
  endloop
endfacet
facet normal 0.0 6.267208974009009e-13 -1.0
  outer loop
    vertex 12.343193553153903 119.46006664899647 2.506950202985081e-12
    vertex 36.3431935531539 140.46006664899647 1.566773377703612e-11
    vertex 12.343193553153903 115.46006664899649 0.0
  endloop
endfacet
facet normal 0.0 6.267208974009009e-13 -1.0
  outer loop
    vertex 12.343193553153903 115.46006664899649 0.0
    vertex 36.3431935531539 140.46006664899647 1.566773377703612e-11
    vertex 36.3431935531539 115.46006664899649 0.0
  endloop
endfacet
facet normal 0.0 6.267208974009009e-13 -1.0
  outer loop
    vertex 36.3431935531539 115.46006664899649 0.0
    vertex 36.3431935531539 140.46006664899647 1.566773377703612e-11
    vertex 36.3431935531539 136.4600666489965 1.3160783574051037e-11
  endloop
endfacet
facet normal 0.0 6.267208974009009e-13 -1.0
  outer loop
    vertex 36.3431935531539 115.46006664899649 0.0
    vertex 36.3431935531539 136.4600666489965 1.3160783574051037e-11
    vertex 36.3431935531539 119.46006664899647 2.506950202985081e-12
  endloop
endfacet
facet normal 0.0 6.267208974009009e-13 -1.0
  outer loop
    vertex 12.343193553153903 136.4600666489965 1.3160783574051037e-11
    vertex 9.343193553153908 119.46006664899647 2.506950202985081e-12
    vertex 9.343193553153908 136.4600666489965 1.3160783574051037e-11
  endloop
endfacet
facet normal 0.0 6.267208974009009e-13 -1.0
  outer loop
    vertex 9.343193553153908 119.46006664899647 2.506950202985081e-12
    vertex 12.343193553153903 136.4600666489965 1.3160783574051037e-11
    vertex 12.343193553153903 119.46006664899647 2.506950202985081e-12
  endloop
endfacet
facet normal 0.0 6.267208974009009e-13 -1.0
  outer loop
    vertex 9.343193553153908 140.46006664899647 1.566773377703612e-11
    vertex 0.3998793017612353 115.46006664899649 0.0
    vertex 0.3998793017612353 140.46006664899647 1.566773377703612e-11
  endloop
endfacet
facet normal 0.0 6.267208974009009e-13 -1.0
  outer loop
    vertex 0.3998793017612353 115.46006664899649 0.0
    vertex 9.343193553153908 140.46006664899647 1.566773377703612e-11
    vertex 9.343193553153908 115.46006664899649 0.0
  endloop
endfacet
facet normal 0.0 6.267208974009009e-13 -1.0
  outer loop
    vertex 9.343193553153908 115.46006664899649 0.0
    vertex 9.343193553153908 140.46006664899647 1.566773377703612e-11
    vertex 9.343193553153908 136.4600666489965 1.3160783574051037e-11
  endloop
endfacet
facet normal 0.0 6.267208974009009e-13 -1.0
  outer loop
    vertex 9.343193553153908 115.46006664899649 0.0
    vertex 9.343193553153908 136.4600666489965 1.3160783574051037e-11
    vertex 9.343193553153908 119.46006664899647 2.506950202985081e-12
  endloop
endfacet
facet normal 0.0 1.0 6.267208974009009e-13
  outer loop
    vertex 42.399879301761246 134.46006664899207 7.000000000011906
    vertex 11.399879301761239 134.46006664899022 10.000000000011903
    vertex 42.399879301761246 134.46006664899022 10.000000000011903
  endloop
endfacet
facet normal 0.0 1.0 6.267208974009009e-13
  outer loop
    vertex 11.399879301761239 134.46006664899022 10.000000000011903
    vertex 42.399879301761246 134.46006664899207 7.000000000011906
    vertex 11.399879301761239 134.46006664899207 7.000000000011906
  endloop
endfacet
facet normal 1.0 0.0 0.0
  outer loop
    vertex 11.399879301761239 134.46006664899022 10.000000000011903
    vertex 11.399879301761239 136.46006664899207 7.000000000013159
    vertex 11.399879301761239 136.46006664899022 10.000000000013156
  endloop
endfacet
facet normal 1.0 0.0 0.0
  outer loop
    vertex 11.399879301761239 136.46006664899207 7.000000000013159
    vertex 11.399879301761239 134.46006664899022 10.000000000011903
    vertex 11.399879301761239 134.46006664899207 7.000000000011906
  endloop
endfacet
facet normal 0.0 6.267208974009009e-13 -1.0
  outer loop
    vertex 42.399879301761246 136.46006664899022 10.000000000013156
    vertex 11.399879301761239 134.46006664899022 10.000000000011903
    vertex 11.399879301761239 136.46006664899022 10.000000000013156
  endloop
endfacet
facet normal 0.0 6.267208974009009e-13 -1.0
  outer loop
    vertex 11.399879301761239 134.46006664899022 10.000000000011903
    vertex 42.399879301761246 136.46006664899022 10.000000000013156
    vertex 42.399879301761246 134.46006664899022 10.000000000011903
  endloop
endfacet
facet normal -1.0 0.0 -0.0
  outer loop
    vertex 42.399879301761246 136.46006664899207 7.000000000013159
    vertex 42.399879301761246 134.46006664899022 10.000000000011903
    vertex 42.399879301761246 136.46006664899022 10.000000000013156
  endloop
endfacet
facet normal -1.0 0.0 -0.0
  outer loop
    vertex 42.399879301761246 134.46006664899022 10.000000000011903
    vertex 42.399879301761246 136.46006664899207 7.000000000013159
    vertex 42.399879301761246 134.46006664899207 7.000000000011906
  endloop
endfacet
facet normal 0.0 -6.267208974009009e-13 1.0
  outer loop
    vertex 42.399879301761246 134.46006664899207 7.000000000011906
    vertex 11.399879301761239 136.46006664899207 7.000000000013159
    vertex 11.399879301761239 134.46006664899207 7.000000000011906
  endloop
endfacet
facet normal 0.0 -6.267208974009009e-13 1.0
  outer loop
    vertex 11.399879301761239 136.46006664899207 7.000000000013159
    vertex 42.399879301761246 134.46006664899207 7.000000000011906
    vertex 42.399879301761246 136.46006664899207 7.000000000013159
  endloop
endfacet
facet normal -1.2445351856785733e-46 -1.0 -6.286008750559328e-13
  outer loop
    vertex 11.39987930176126 121.46006664899208 7.000000000003783
    vertex 42.399879301761224 121.46006664899022 10.00000000000378
    vertex 11.39987930176126 121.46006664899022 10.00000000000378
  endloop
endfacet
facet normal -1.2445351856785733e-46 -1.0 -6.286008750559328e-13
  outer loop
    vertex 42.399879301761224 121.46006664899022 10.00000000000378
    vertex 11.39987930176126 121.46006664899208 7.000000000003783
    vertex 42.399879301761224 121.46006664899208 7.000000000003783
  endloop
endfacet
facet normal 1.0 -1.2445351856785735e-46 -7.823159067554491e-59
  outer loop
    vertex 11.39987930176126 119.46006664899024 10.000000000002522
    vertex 11.39987930176126 121.46006664899208 7.000000000003783
    vertex 11.39987930176126 121.46006664899022 10.00000000000378
  endloop
endfacet
facet normal 1.0 -1.2445351856785735e-46 -7.823159067554491e-59
  outer loop
    vertex 11.39987930176126 121.46006664899208 7.000000000003783
    vertex 11.39987930176126 119.46006664899024 10.000000000002522
    vertex 11.39987930176126 119.46006664899208 7.0000000000025295
  endloop
endfacet
facet normal 0.0 -6.286008750559328e-13 1.0
  outer loop
    vertex 42.399879301761224 119.46006664899208 7.0000000000025295
    vertex 11.39987930176126 121.46006664899208 7.000000000003783
    vertex 11.39987930176126 119.46006664899208 7.0000000000025295
  endloop
endfacet
facet normal 0.0 -6.286008750559328e-13 1.0
  outer loop
    vertex 11.39987930176126 121.46006664899208 7.000000000003783
    vertex 42.399879301761224 119.46006664899208 7.0000000000025295
    vertex 42.399879301761224 121.46006664899208 7.000000000003783
  endloop
endfacet
facet normal -1.0 1.2445351856785735e-46 7.823159067554491e-59
  outer loop
    vertex 42.399879301761224 121.46006664899208 7.000000000003783
    vertex 42.399879301761224 119.46006664899024 10.000000000002522
    vertex 42.399879301761224 121.46006664899022 10.00000000000378
  endloop
endfacet
facet normal -1.0 1.2445351856785735e-46 7.823159067554491e-59
  outer loop
    vertex 42.399879301761224 119.46006664899024 10.000000000002522
    vertex 42.399879301761224 121.46006664899208 7.000000000003783
    vertex 42.399879301761224 119.46006664899208 7.0000000000025295
  endloop
endfacet
facet normal 0.0 6.286008750559328e-13 -1.0
  outer loop
    vertex 42.399879301761224 121.46006664899022 10.00000000000378
    vertex 11.39987930176126 119.46006664899024 10.000000000002522
    vertex 11.39987930176126 121.46006664899022 10.00000000000378
  endloop
endfacet
facet normal 0.0 6.286008750559328e-13 -1.0
  outer loop
    vertex 11.39987930176126 119.46006664899024 10.000000000002522
    vertex 42.399879301761224 121.46006664899022 10.00000000000378
    vertex 42.399879301761224 119.46006664899024 10.000000000002522
  endloop
endfacet
facet normal 0.0 1.0 6.267208974009009e-13
  outer loop
    vertex 9.343193553153908 140.46006664899647 1.566773377703612e-11
    vertex 0.3998793017612353 140.46006664899457 3.000000000015668
    vertex 9.343193553153908 140.46006664899457 3.000000000015668
  endloop
endfacet
facet normal 0.0 1.0 6.267208974009009e-13
  outer loop
    vertex 0.3998793017612353 140.46006664899457 3.000000000015668
    vertex 9.343193553153908 140.46006664899647 1.566773377703612e-11
    vertex 0.3998793017612353 140.46006664899647 1.566773377703612e-11
  endloop
endfacet
facet normal 1.0 0.0 0.0
  outer loop
    vertex 9.343193553153908 140.46006664899457 3.000000000015668
    vertex 9.343193553153908 136.4600666489965 1.3160783574051037e-11
    vertex 9.343193553153908 140.46006664899647 1.566773377703612e-11
  endloop
endfacet
facet normal 1.0 0.0 0.0
  outer loop
    vertex 9.343193553153908 136.4600666489965 1.3160783574051037e-11
    vertex 9.343193553153908 140.46006664899457 3.000000000015668
    vertex 9.343193553153908 136.46006664899457 3.000000000013161
  endloop
endfacet
facet normal 0.0 1.0 6.267208974009009e-13
  outer loop
    vertex 36.3431935531539 140.46006664899647 1.566773377703612e-11
    vertex 12.343193553153903 140.46006664899457 3.000000000015668
    vertex 36.3431935531539 140.46006664899457 3.000000000015668
  endloop
endfacet
facet normal 0.0 1.0 6.267208974009009e-13
  outer loop
    vertex 12.343193553153903 140.46006664899457 3.000000000015668
    vertex 36.3431935531539 140.46006664899647 1.566773377703612e-11
    vertex 12.343193553153903 140.46006664899647 1.566773377703612e-11
  endloop
endfacet
facet normal -1.0 0.0 0.0
  outer loop
    vertex 12.343193553153903 136.4600666489965 1.3160783574051037e-11
    vertex 12.343193553153903 140.46006664899457 3.000000000015668
    vertex 12.343193553153903 140.46006664899647 1.566773377703612e-11
  endloop
endfacet
facet normal -1.0 0.0 0.0
  outer loop
    vertex 12.343193553153903 140.46006664899457 3.000000000015668
    vertex 12.343193553153903 136.4600666489965 1.3160783574051037e-11
    vertex 12.343193553153903 136.46006664899457 3.000000000013161
  endloop
endfacet
facet normal 0.0 -6.267208974009009e-13 1.0
  outer loop
    vertex 36.3431935531539 136.46006664899457 3.000000000013161
    vertex 12.343193553153903 140.46006664899457 3.000000000015668
    vertex 12.343193553153903 136.46006664899457 3.000000000013161
  endloop
endfacet
facet normal 0.0 -6.267208974009009e-13 1.0
  outer loop
    vertex 12.343193553153903 140.46006664899457 3.000000000015668
    vertex 36.3431935531539 136.46006664899457 3.000000000013161
    vertex 36.3431935531539 140.46006664899457 3.000000000015668
  endloop
endfacet
facet normal 1.0 0.0 0.0
  outer loop
    vertex 36.3431935531539 140.46006664899457 3.000000000015668
    vertex 36.3431935531539 136.4600666489965 1.3160783574051037e-11
    vertex 36.3431935531539 140.46006664899647 1.566773377703612e-11
  endloop
endfacet
facet normal 1.0 0.0 0.0
  outer loop
    vertex 36.3431935531539 136.4600666489965 1.3160783574051037e-11
    vertex 36.3431935531539 140.46006664899457 3.000000000015668
    vertex 36.3431935531539 136.46006664899457 3.000000000013161
  endloop
endfacet
facet normal 0.0 1.0 6.267208974009009e-13
  outer loop
    vertex 50.39987930176123 140.46006664899647 1.566773377703612e-11
    vertex 39.343193553153895 140.46006664899454 3.000000000015668
    vertex 50.39987930176123 140.46006664899454 3.0000000000156737
  endloop
endfacet
facet normal 0.0 1.0 6.267208974009009e-13
  outer loop
    vertex 39.343193553153895 140.46006664899454 3.000000000015668
    vertex 50.39987930176123 140.46006664899647 1.566773377703612e-11
    vertex 39.343193553153895 140.46006664899647 1.566773377703612e-11
  endloop
endfacet
facet normal -1.0 0.0 0.0
  outer loop
    vertex 39.343193553153895 136.4600666489965 1.3160783574051037e-11
    vertex 39.343193553153895 140.46006664899454 3.000000000015668
    vertex 39.343193553153895 140.46006664899647 1.566773377703612e-11
  endloop
endfacet
facet normal -1.0 0.0 0.0
  outer loop
    vertex 39.343193553153895 140.46006664899454 3.000000000015668
    vertex 39.343193553153895 136.4600666489965 1.3160783574051037e-11
    vertex 39.343193553153895 136.46006664899457 3.000000000013161
  endloop
endfacet
facet normal -5.306808278629917e-16 -6.267208974009009e-13 1.0
  outer loop
    vertex 50.39987930176123 136.46006664899457 3.0000000000131664
    vertex 39.343193553153895 140.46006664899454 3.000000000015668
    vertex 39.343193553153895 136.46006664899457 3.000000000013161
  endloop
endfacet
facet normal -5.306808278629917e-16 -6.267208974009009e-13 1.0
  outer loop
    vertex 39.343193553153895 140.46006664899454 3.000000000015668
    vertex 50.39987930176123 136.46006664899457 3.0000000000131664
    vertex 50.39987930176123 140.46006664899454 3.0000000000156737
  endloop
endfacet
facet normal 0.0 -1.0 -6.267208974009009e-13
  outer loop
    vertex 0.3998793017612353 119.46006664898708 15.000000000002503
    vertex 11.39987930176126 119.46006664899024 10.000000000002522
    vertex 50.39987930176123 119.46006664898708 15.000000000002503
  endloop
endfacet
facet normal 0.0 -1.0 -6.267208974009009e-13
  outer loop
    vertex 11.39987930176126 119.46006664899024 10.000000000002522
    vertex 0.3998793017612353 119.46006664898708 15.000000000002503
    vertex 0.3998793017612353 119.46006664899457 3.0000000000025127
  endloop
endfacet
facet normal 0.0 -1.0 -6.267208974009009e-13
  outer loop
    vertex 11.39987930176126 119.46006664899024 10.000000000002522
    vertex 0.3998793017612353 119.46006664899457 3.0000000000025127
    vertex 11.39987930176126 119.46006664899208 7.0000000000025295
  endloop
endfacet
facet normal 0.0 -1.0 -6.267208974009009e-13
  outer loop
    vertex 11.39987930176126 119.46006664899208 7.0000000000025295
    vertex 0.3998793017612353 119.46006664899457 3.0000000000025127
    vertex 42.399879301761224 119.46006664899208 7.0000000000025295
  endloop
endfacet
facet normal 0.0 -1.0 -6.267208974009009e-13
  outer loop
    vertex 9.343193553153908 119.46006664899647 2.506950202985081e-12
    vertex 12.343193553153903 119.46006664899457 3.0000000000025127
    vertex 9.343193553153908 119.46006664899457 3.0000000000025127
  endloop
endfacet
facet normal 0.0 -1.0 -6.267208974009009e-13
  outer loop
    vertex 12.343193553153903 119.46006664899457 3.0000000000025127
    vertex 9.343193553153908 119.46006664899647 2.506950202985081e-12
    vertex 12.343193553153903 119.46006664899647 2.506950202985081e-12
  endloop
endfacet
facet normal 0.0 -1.0 -6.267208974009009e-13
  outer loop
    vertex 50.39987930176123 119.46006664898708 15.000000000002503
    vertex 42.399879301761224 119.46006664899024 10.000000000002522
    vertex 50.39987930176123 119.46006664899457 3.0000000000025127
  endloop
endfacet
facet normal 0.0 -1.0 -6.267208974009009e-13
  outer loop
    vertex 42.399879301761224 119.46006664899024 10.000000000002522
    vertex 50.39987930176123 119.46006664898708 15.000000000002503
    vertex 11.39987930176126 119.46006664899024 10.000000000002522
  endloop
endfacet
facet normal 0.0 -1.0 -6.267208974009009e-13
  outer loop
    vertex 50.39987930176123 119.46006664899457 3.0000000000025127
    vertex 42.399879301761224 119.46006664899024 10.000000000002522
    vertex 42.399879301761224 119.46006664899208 7.0000000000025295
  endloop
endfacet
facet normal 0.0 -1.0 -6.267208974009009e-13
  outer loop
    vertex 50.39987930176123 119.46006664899457 3.0000000000025127
    vertex 42.399879301761224 119.46006664899208 7.0000000000025295
    vertex 0.3998793017612353 119.46006664899457 3.0000000000025127
  endloop
endfacet
facet normal 0.0 -1.0 -6.267208974009009e-13
  outer loop
    vertex 50.39987930176123 119.46006664899457 3.0000000000025127
    vertex 0.3998793017612353 119.46006664899457 3.0000000000025127
    vertex 9.343193553153908 119.46006664899457 3.0000000000025127
  endloop
endfacet
facet normal 0.0 -1.0 -6.267208974009009e-13
  outer loop
    vertex 50.39987930176123 119.46006664899457 3.0000000000025127
    vertex 9.343193553153908 119.46006664899457 3.0000000000025127
    vertex 12.343193553153903 119.46006664899457 3.0000000000025127
  endloop
endfacet
facet normal 0.0 -1.0 -6.267208974009009e-13
  outer loop
    vertex 50.39987930176123 119.46006664899457 3.0000000000025127
    vertex 12.343193553153903 119.46006664899457 3.0000000000025127
    vertex 36.3431935531539 119.46006664899457 3.0000000000025127
  endloop
endfacet
facet normal 0.0 -1.0 -6.267208974009009e-13
  outer loop
    vertex 50.39987930176123 119.46006664899457 3.0000000000025127
    vertex 36.3431935531539 119.46006664899457 3.0000000000025127
    vertex 39.343193553153895 119.46006664899457 3.000000000002507
  endloop
endfacet
facet normal 0.0 -1.0 -6.267208974009009e-13
  outer loop
    vertex 39.343193553153895 119.46006664899457 3.000000000002507
    vertex 36.3431935531539 119.46006664899457 3.0000000000025127
    vertex 36.3431935531539 119.46006664899647 2.506950202985081e-12
  endloop
endfacet
facet normal 0.0 -1.0 -6.267208974009009e-13
  outer loop
    vertex 39.343193553153895 119.46006664899457 3.000000000002507
    vertex 36.3431935531539 119.46006664899647 2.506950202985081e-12
    vertex 39.343193553153895 119.46006664899647 2.506950202985081e-12
  endloop
endfacet
facet normal 0.0 -1.0 -6.267208974009009e-13
  outer loop
    vertex 39.343193553153895 115.46006664899457 3.0
    vertex 50.39987930176123 115.46006664899649 0.0
    vertex 50.39987930176123 115.46006664899457 3.0000000000000058
  endloop
endfacet
facet normal 0.0 -1.0 -6.267208974009009e-13
  outer loop
    vertex 50.39987930176123 115.46006664899649 0.0
    vertex 39.343193553153895 115.46006664899457 3.0
    vertex 39.343193553153895 115.46006664899649 0.0
  endloop
endfacet
facet normal -5.100925443057096e-16 -6.267208974009009e-13 1.0
  outer loop
    vertex 50.39987930176123 115.46006664899457 3.0000000000000058
    vertex 39.343193553153895 119.46006664899457 3.000000000002507
    vertex 39.343193553153895 115.46006664899457 3.0
  endloop
endfacet
facet normal -5.100925443057096e-16 -6.267208974009009e-13 1.0
  outer loop
    vertex 39.343193553153895 119.46006664899457 3.000000000002507
    vertex 50.39987930176123 115.46006664899457 3.0000000000000058
    vertex 50.39987930176123 119.46006664899457 3.0000000000025127
  endloop
endfacet
facet normal -1.0 0.0 -0.0
  outer loop
    vertex 39.343193553153895 115.46006664899649 0.0
    vertex 39.343193553153895 119.46006664899457 3.000000000002507
    vertex 39.343193553153895 119.46006664899647 2.506950202985081e-12
  endloop
endfacet
facet normal -1.0 0.0 -0.0
  outer loop
    vertex 39.343193553153895 119.46006664899457 3.000000000002507
    vertex 39.343193553153895 115.46006664899649 0.0
    vertex 39.343193553153895 115.46006664899457 3.0
  endloop
endfacet
facet normal 0.0 -1.0 -6.267208974009009e-13
  outer loop
    vertex 12.343193553153903 115.46006664899649 0.0
    vertex 36.3431935531539 115.46006664899457 3.0000000000000058
    vertex 12.343193553153903 115.46006664899457 3.0000000000000058
  endloop
endfacet
facet normal 0.0 -1.0 -6.267208974009009e-13
  outer loop
    vertex 36.3431935531539 115.46006664899457 3.0000000000000058
    vertex 12.343193553153903 115.46006664899649 0.0
    vertex 36.3431935531539 115.46006664899649 0.0
  endloop
endfacet
facet normal 1.0 0.0 0.0
  outer loop
    vertex 36.3431935531539 119.46006664899457 3.0000000000025127
    vertex 36.3431935531539 115.46006664899649 0.0
    vertex 36.3431935531539 119.46006664899647 2.506950202985081e-12
  endloop
endfacet
facet normal 1.0 0.0 0.0
  outer loop
    vertex 36.3431935531539 115.46006664899649 0.0
    vertex 36.3431935531539 119.46006664899457 3.0000000000025127
    vertex 36.3431935531539 115.46006664899457 3.0000000000000058
  endloop
endfacet
facet normal 2.349972068789915e-16 -6.267208974009009e-13 1.0
  outer loop
    vertex 36.3431935531539 115.46006664899457 3.0000000000000058
    vertex 12.343193553153903 119.46006664899457 3.0000000000025127
    vertex 12.343193553153903 115.46006664899457 3.0000000000000058
  endloop
endfacet
facet normal 2.349972068789915e-16 -6.267208974009009e-13 1.0
  outer loop
    vertex 12.343193553153903 119.46006664899457 3.0000000000025127
    vertex 36.3431935531539 115.46006664899457 3.0000000000000058
    vertex 36.3431935531539 119.46006664899457 3.0000000000025127
  endloop
endfacet
facet normal -1.0 0.0 -0.0
  outer loop
    vertex 12.343193553153903 115.46006664899649 0.0
    vertex 12.343193553153903 119.46006664899457 3.0000000000025127
    vertex 12.343193553153903 119.46006664899647 2.506950202985081e-12
  endloop
endfacet
facet normal -1.0 0.0 -0.0
  outer loop
    vertex 12.343193553153903 119.46006664899457 3.0000000000025127
    vertex 12.343193553153903 115.46006664899649 0.0
    vertex 12.343193553153903 115.46006664899457 3.0000000000000058
  endloop
endfacet
facet normal 0.0 -1.0 -6.267208974009009e-13
  outer loop
    vertex 0.3998793017612353 115.46006664899649 0.0
    vertex 9.343193553153908 115.46006664899457 3.0000000000000058
    vertex 0.3998793017612353 115.46006664899457 3.0000000000000058
  endloop
endfacet
facet normal 0.0 -1.0 -6.267208974009009e-13
  outer loop
    vertex 9.343193553153908 115.46006664899457 3.0000000000000058
    vertex 0.3998793017612353 115.46006664899649 0.0
    vertex 9.343193553153908 115.46006664899649 0.0
  endloop
endfacet
facet normal 1.0 0.0 0.0
  outer loop
    vertex 9.343193553153908 119.46006664899457 3.0000000000025127
    vertex 9.343193553153908 115.46006664899649 0.0
    vertex 9.343193553153908 119.46006664899647 2.506950202985081e-12
  endloop
endfacet
facet normal 1.0 0.0 0.0
  outer loop
    vertex 9.343193553153908 115.46006664899649 0.0
    vertex 9.343193553153908 119.46006664899457 3.0000000000025127
    vertex 9.343193553153908 115.46006664899457 3.0000000000000058
  endloop
endfacet
facet normal 0.0 -6.267208974009009e-13 1.0
  outer loop
    vertex 9.343193553153908 115.46006664899457 3.0000000000000058
    vertex 0.3998793017612353 119.46006664899457 3.0000000000025127
    vertex 0.3998793017612353 115.46006664899457 3.0000000000000058
  endloop
endfacet
facet normal 0.0 -6.267208974009009e-13 1.0
  outer loop
    vertex 0.3998793017612353 119.46006664899457 3.0000000000025127
    vertex 9.343193553153908 115.46006664899457 3.0000000000000058
    vertex 9.343193553153908 119.46006664899457 3.0000000000025127
  endloop
endfacet
facet normal 0.0 -6.267208974009009e-13 1.0
  outer loop
    vertex 9.343193553153908 136.46006664899457 3.000000000013161
    vertex 0.3998793017612353 140.46006664899457 3.000000000015668
    vertex 0.3998793017612353 136.46006664899457 3.000000000013161
  endloop
endfacet
facet normal 0.0 -6.267208974009009e-13 1.0
  outer loop
    vertex 0.3998793017612353 140.46006664899457 3.000000000015668
    vertex 9.343193553153908 136.46006664899457 3.000000000013161
    vertex 9.343193553153908 140.46006664899457 3.000000000015668
  endloop
endfacet
facet normal 0.0 1.0 6.267208974009009e-13
  outer loop
    vertex 39.343193553153895 136.4600666489965 1.3160783574051037e-11
    vertex 36.3431935531539 136.46006664899457 3.000000000013161
    vertex 39.343193553153895 136.46006664899457 3.000000000013161
  endloop
endfacet
facet normal 0.0 1.0 6.267208974009009e-13
  outer loop
    vertex 36.3431935531539 136.46006664899457 3.000000000013161
    vertex 39.343193553153895 136.4600666489965 1.3160783574051037e-11
    vertex 36.3431935531539 136.4600666489965 1.3160783574051037e-11
  endloop
endfacet
facet normal 0.0 1.0 6.267208974009009e-13
  outer loop
    vertex 12.343193553153903 136.4600666489965 1.3160783574051037e-11
    vertex 9.343193553153908 136.46006664899457 3.000000000013161
    vertex 12.343193553153903 136.46006664899457 3.000000000013161
  endloop
endfacet
facet normal 0.0 1.0 6.267208974009009e-13
  outer loop
    vertex 9.343193553153908 136.46006664899457 3.000000000013161
    vertex 12.343193553153903 136.4600666489965 1.3160783574051037e-11
    vertex 9.343193553153908 136.4600666489965 1.3160783574051037e-11
  endloop
endfacet
facet normal 0.0 1.0 6.267208974009009e-13
  outer loop
    vertex 50.39987930176123 136.4600666489871 15.000000000013156
    vertex 42.399879301761246 136.46006664899022 10.000000000013156
    vertex 0.3998793017612353 136.4600666489871 15.000000000013156
  endloop
endfacet
facet normal 0.0 1.0 6.267208974009009e-13
  outer loop
    vertex 42.399879301761246 136.46006664899022 10.000000000013156
    vertex 50.39987930176123 136.4600666489871 15.000000000013156
    vertex 50.39987930176123 136.46006664899457 3.0000000000131664
  endloop
endfacet
facet normal 0.0 1.0 6.267208974009009e-13
  outer loop
    vertex 42.399879301761246 136.46006664899022 10.000000000013156
    vertex 50.39987930176123 136.46006664899457 3.0000000000131664
    vertex 42.399879301761246 136.46006664899207 7.000000000013159
  endloop
endfacet
facet normal 0.0 1.0 6.267208974009009e-13
  outer loop
    vertex 42.399879301761246 136.46006664899207 7.000000000013159
    vertex 50.39987930176123 136.46006664899457 3.0000000000131664
    vertex 11.399879301761239 136.46006664899207 7.000000000013159
  endloop
endfacet
facet normal 0.0 1.0 6.267208974009009e-13
  outer loop
    vertex 11.399879301761239 136.46006664899207 7.000000000013159
    vertex 50.39987930176123 136.46006664899457 3.0000000000131664
    vertex 0.3998793017612353 136.46006664899335 5.0000000000131575
  endloop
endfacet
facet normal 0.0 1.0 6.267208974009009e-13
  outer loop
    vertex 0.3998793017612353 136.46006664899335 5.0000000000131575
    vertex 50.39987930176123 136.46006664899457 3.0000000000131664
    vertex 0.3998793017612353 136.46006664899457 3.000000000013161
  endloop
endfacet
facet normal 0.0 1.0 6.267208974009009e-13
  outer loop
    vertex 0.3998793017612353 136.46006664899457 3.000000000013161
    vertex 50.39987930176123 136.46006664899457 3.0000000000131664
    vertex 39.343193553153895 136.46006664899457 3.000000000013161
  endloop
endfacet
facet normal 0.0 1.0 6.267208974009009e-13
  outer loop
    vertex 0.3998793017612353 136.46006664899457 3.000000000013161
    vertex 39.343193553153895 136.46006664899457 3.000000000013161
    vertex 36.3431935531539 136.46006664899457 3.000000000013161
  endloop
endfacet
facet normal 0.0 1.0 6.267208974009009e-13
  outer loop
    vertex 0.3998793017612353 136.46006664899457 3.000000000013161
    vertex 36.3431935531539 136.46006664899457 3.000000000013161
    vertex 12.343193553153903 136.46006664899457 3.000000000013161
  endloop
endfacet
facet normal 0.0 1.0 6.267208974009009e-13
  outer loop
    vertex 0.3998793017612353 136.46006664899457 3.000000000013161
    vertex 12.343193553153903 136.46006664899457 3.000000000013161
    vertex 9.343193553153908 136.46006664899457 3.000000000013161
  endloop
endfacet
facet normal 0.0 1.0 6.267208974009009e-13
  outer loop
    vertex 0.3998793017612353 136.4600666489871 15.000000000013156
    vertex 11.399879301761239 136.46006664899022 10.000000000013156
    vertex 0.3998793017612353 136.46006664899335 5.0000000000131575
  endloop
endfacet
facet normal 0.0 1.0 6.267208974009009e-13
  outer loop
    vertex 11.399879301761239 136.46006664899022 10.000000000013156
    vertex 0.3998793017612353 136.4600666489871 15.000000000013156
    vertex 42.399879301761246 136.46006664899022 10.000000000013156
  endloop
endfacet
facet normal 0.0 1.0 6.267208974009009e-13
  outer loop
    vertex 0.3998793017612353 136.46006664899335 5.0000000000131575
    vertex 11.399879301761239 136.46006664899022 10.000000000013156
    vertex 11.399879301761239 136.46006664899207 7.000000000013159
  endloop
endfacet
facet normal -1.3262267901663525e-18 -6.266080889159506e-13 1.0
  outer loop
    vertex 50.39987930176119 130.5600666489871 15.000000000009459
    vertex 9.399879301761219 131.96006664898707 15.000000000010337
    vertex 9.399879301761219 130.5600666489871 15.000000000009459
  endloop
endfacet
facet normal -1.3262267901663525e-18 -6.266080889159506e-13 1.0
  outer loop
    vertex 4.399879301761228 130.5600666489871 15.000000000009459
    vertex 0.3998793017612353 136.4600666489871 15.000000000013156
    vertex 0.3998793017612353 130.5600666489871 15.000000000009459
  endloop
endfacet
facet normal -1.3262267901663525e-18 -6.266080889159506e-13 1.0
  outer loop
    vertex 0.3998793017612353 136.4600666489871 15.000000000013156
    vertex 4.399879301761228 130.5600666489871 15.000000000009459
    vertex 4.399879301761228 131.96006664898707 15.000000000010337
  endloop
endfacet
facet normal -1.3262267901663525e-18 -6.266080889159506e-13 1.0
  outer loop
    vertex 0.3998793017612353 136.4600666489871 15.000000000013156
    vertex 4.399879301761228 131.96006664898707 15.000000000010337
    vertex 50.39987930176123 136.4600666489871 15.000000000013156
  endloop
endfacet
facet normal -1.3262267901663525e-18 -6.266080889159506e-13 1.0
  outer loop
    vertex 50.39987930176123 136.4600666489871 15.000000000013156
    vertex 4.399879301761228 131.96006664898707 15.000000000010337
    vertex 9.399879301761219 131.96006664898707 15.000000000010337
  endloop
endfacet
facet normal -1.3262267901663525e-18 -6.266080889159506e-13 1.0
  outer loop
    vertex 50.39987930176123 136.4600666489871 15.000000000013156
    vertex 9.399879301761219 131.96006664898707 15.000000000010337
    vertex 50.39987930176119 130.5600666489871 15.000000000009459
  endloop
endfacet
endsolid limn
