solid limn
facet normal -9.043536759931495e-32 1.8799776550319282e-15 1.0
  outer loop
    vertex 3.4106804848176107 3.9999999999999645 12.0
    vertex 5.639932965095795e-15 6.999999999999971 11.999999999999995
    vertex 5.639932965095795e-15 3.9999999999999645 12.0
  endloop
endfacet
facet normal -9.043536759931495e-32 1.8799776550319282e-15 1.0
  outer loop
    vertex 5.639932965095795e-15 6.999999999999971 11.999999999999995
    vertex 3.4106804848176107 3.9999999999999645 12.0
    vertex 3.4106804848176107 6.999999999999971 11.999999999999995
  endloop
endfacet
facet normal 0.0 0.0 -1.0
  outer loop
    vertex 8.821360969635201 24.99999999999995 -2.5345743401851257e-16
    vertex 6.000000000000017 20.999999999999968 -2.5345743401851257e-16
    vertex 6.000000000000017 24.99999999999995 -2.5345743401851257e-16
  endloop
endfacet
facet normal 0.0 0.0 -1.0
  outer loop
    vertex 6.000000000000017 20.999999999999968 -2.5345743401851257e-16
    vertex 8.821360969635201 24.99999999999995 -2.5345743401851257e-16
    vertex 6.000000000000017 3.9999999999999645 -2.5345743401851257e-16
  endloop
endfacet
facet normal 0.0 0.0 -1.0
  outer loop
    vertex 6.000000000000017 3.9999999999999645 -2.5345743401851257e-16
    vertex 8.821360969635201 24.99999999999995 -2.5345743401851257e-16
    vertex 6.000000000000017 -2.8199664825478976e-14 -2.5345743401851257e-16
  endloop
endfacet
facet normal 0.0 0.0 -1.0
  outer loop
    vertex 6.000000000000017 -2.8199664825478976e-14 -2.5345743401851257e-16
    vertex 8.821360969635201 24.99999999999995 -2.5345743401851257e-16
    vertex 8.821360969635201 -2.8199664825478976e-14 -2.5345743401851257e-16
  endloop
endfacet
facet normal 0.0 0.0 -1.0
  outer loop
    vertex 6.000000000000017 20.999999999999968 -2.5345743401851257e-16
    vertex 3.000000000000034 3.9999999999999645 -2.5345743401851257e-16
    vertex 3.0000000000000226 20.999999999999968 -2.5345743401851257e-16
  endloop
endfacet
facet normal 0.0 0.0 -1.0
  outer loop
    vertex 3.000000000000034 3.9999999999999645 -2.5345743401851257e-16
    vertex 6.000000000000017 20.999999999999968 -2.5345743401851257e-16
    vertex 6.000000000000017 3.9999999999999645 -2.5345743401851257e-16
  endloop
endfacet
facet normal 0.0 0.0 -1.0
  outer loop
    vertex 3.0000000000000226 24.999999999999932 -2.5345743401851257e-16
    vertex 5.639932965095795e-15 5.639932965095795e-15 -2.5345743401851257e-16
    vertex 5.639932965095795e-15 24.999999999999932 -2.5345743401851257e-16
  endloop
endfacet
facet normal 0.0 0.0 -1.0
  outer loop
    vertex 5.639932965095795e-15 5.639932965095795e-15 -2.5345743401851257e-16
    vertex 3.0000000000000226 24.999999999999932 -2.5345743401851257e-16
    vertex 3.0000000000000226 20.999999999999968 -2.5345743401851257e-16
  endloop
endfacet
facet normal 0.0 0.0 -1.0
  outer loop
    vertex 5.639932965095795e-15 5.639932965095795e-15 -2.5345743401851257e-16
    vertex 3.0000000000000226 20.999999999999968 -2.5345743401851257e-16
    vertex 3.000000000000034 5.639932965095795e-15 -2.5345743401851257e-16
  endloop
endfacet
facet normal 0.0 0.0 -1.0
  outer loop
    vertex 3.000000000000034 5.639932965095795e-15 -2.5345743401851257e-16
    vertex 3.0000000000000226 20.999999999999968 -2.5345743401851257e-16
    vertex 3.000000000000034 3.9999999999999645 -2.5345743401851257e-16
  endloop
endfacet
facet normal 0.0 -0.7071067811865476 0.7071067811865476
  outer loop
    vertex 8.821360969635201 17.999999999999968 4.999999999999985
    vertex 5.639932965095795e-15 15.999999999999964 2.9999999999999827
    vertex 8.821360969635201 15.999999999999964 2.9999999999999827
  endloop
endfacet
facet normal 0.0 -0.7071067811865476 0.7071067811865476
  outer loop
    vertex 5.639932965095795e-15 15.999999999999964 2.9999999999999827
    vertex 8.821360969635201 17.999999999999968 4.999999999999985
    vertex 5.639932965095795e-15 17.999999999999968 4.999999999999985
  endloop
endfacet
facet normal 0.0 0.7071067811865474 0.7071067811865478
  outer loop
    vertex 8.821360969635201 6.999999999999971 4.999999999999985
    vertex 5.639932965095795e-15 8.999999999999966 2.9999999999999827
    vertex 5.639932965095795e-15 6.999999999999971 4.999999999999985
  endloop
endfacet
facet normal 0.0 0.7071067811865474 0.7071067811865478
  outer loop
    vertex 5.639932965095795e-15 8.999999999999966 2.9999999999999827
    vertex 8.821360969635201 6.999999999999971 4.999999999999985
    vertex 8.821360969635201 8.999999999999966 2.9999999999999827
  endloop
endfacet
facet normal 0.0 0.0 1.0
  outer loop
    vertex 8.821360969635201 8.999999999999966 2.9999999999999827
    vertex 5.639932965095795e-15 15.999999999999964 2.9999999999999827
    vertex 5.639932965095795e-15 8.999999999999966 2.9999999999999827
  endloop
endfacet
facet normal 0.0 0.0 1.0
  outer loop
    vertex 5.639932965095795e-15 15.999999999999964 2.9999999999999827
    vertex 8.821360969635201 8.999999999999966 2.9999999999999827
    vertex 8.821360969635201 15.999999999999964 2.9999999999999827
  endloop
endfacet
facet normal 1.0 0.0 0.0
  outer loop
    vertex 8.821360969635201 24.99999999999995 -2.5345743401851257e-16
    vertex 8.821360969635201 -2.8199664825478976e-14 2.9999999999999885
    vertex 8.821360969635201 -2.8199664825478976e-14 -2.5345743401851257e-16
  endloop
endfacet
facet normal 1.0 0.0 0.0
  outer loop
    vertex 8.821360969635201 -2.8199664825478976e-14 2.9999999999999885
    vertex 8.821360969635201 24.99999999999995 -2.5345743401851257e-16
    vertex 8.821360969635201 3.9999999999999645 2.9999999999999885
  endloop
endfacet
facet normal 1.0 0.0 0.0
  outer loop
    vertex 8.821360969635201 3.9999999999999645 2.9999999999999885
    vertex 8.821360969635201 24.99999999999995 -2.5345743401851257e-16
    vertex 8.821360969635201 8.999999999999966 2.9999999999999827
  endloop
endfacet
facet normal 1.0 0.0 0.0
  outer loop
    vertex 8.821360969635201 3.9999999999999645 2.9999999999999885
    vertex 8.821360969635201 8.999999999999966 2.9999999999999827
    vertex 8.821360969635201 6.999999999999971 4.999999999999985
  endloop
endfacet
facet normal 1.0 0.0 0.0
  outer loop
    vertex 8.821360969635201 3.9999999999999645 2.9999999999999885
    vertex 8.821360969635201 6.999999999999971 4.999999999999985
    vertex 8.821360969635201 3.9999999999999645 12.0
  endloop
endfacet
facet normal 1.0 0.0 0.0
  outer loop
    vertex 8.821360969635201 8.999999999999966 2.9999999999999827
    vertex 8.821360969635201 24.99999999999995 -2.5345743401851257e-16
    vertex 8.821360969635201 15.999999999999964 2.9999999999999827
  endloop
endfacet
facet normal 1.0 0.0 0.0
  outer loop
    vertex 8.821360969635201 15.999999999999964 2.9999999999999827
    vertex 8.821360969635201 24.99999999999995 -2.5345743401851257e-16
    vertex 8.821360969635201 17.999999999999968 4.999999999999985
  endloop
endfacet
facet normal 1.0 0.0 0.0
  outer loop
    vertex 8.821360969635201 17.999999999999968 4.999999999999985
    vertex 8.821360969635201 24.99999999999995 -2.5345743401851257e-16
    vertex 8.821360969635201 20.999999999999968 3.0
  endloop
endfacet
facet normal 1.0 0.0 0.0
  outer loop
    vertex 8.821360969635201 17.999999999999968 4.999999999999985
    vertex 8.821360969635201 20.999999999999968 3.0
    vertex 8.821360969635201 20.99999999999996 12.0
  endloop
endfacet
facet normal 1.0 0.0 0.0
  outer loop
    vertex 8.821360969635201 20.999999999999968 3.0
    vertex 8.821360969635201 24.99999999999995 -2.5345743401851257e-16
    vertex 8.821360969635201 24.99999999999995 3.0
  endloop
endfacet
facet normal 1.0 0.0 0.0
  outer loop
    vertex 8.821360969635201 20.99999999999996 12.0
    vertex 8.821360969635201 17.99999999999996 11.99999999999999
    vertex 8.821360969635201 17.999999999999968 4.999999999999985
  endloop
endfacet
facet normal 1.0 0.0 0.0
  outer loop
    vertex 8.821360969635201 6.999999999999971 11.999999999999995
    vertex 8.821360969635201 3.9999999999999645 12.0
    vertex 8.821360969635201 6.999999999999971 4.999999999999985
  endloop
endfacet
facet normal 8.268046494242932e-16 -2.819966482547897e-15 1.0
  outer loop
    vertex 3.4106804848176218 17.99999999999996 11.99999999999999
    vertex 5.639932965095795e-15 20.99999999999996 12.0
    vertex 5.639932965095795e-15 17.99999999999996 11.99999999999999
  endloop
endfacet
facet normal 8.268046494242932e-16 -2.819966482547897e-15 1.0
  outer loop
    vertex 5.639932965095795e-15 20.99999999999996 12.0
    vertex 3.4106804848176218 17.99999999999996 11.99999999999999
    vertex 3.4106804848176218 20.99999999999996 11.999999999999995
  endloop
endfacet
facet normal 0.0 1.0 7.049916206369737e-17
  outer loop
    vertex 5.639932965095795e-15 6.999999999999971 11.999999999999995
    vertex 8.821360969635201 6.999999999999971 4.999999999999985
    vertex 5.639932965095795e-15 6.999999999999971 4.999999999999985
  endloop
endfacet
facet normal 0.0 1.0 7.049916206369737e-17
  outer loop
    vertex 8.821360969635201 6.999999999999971 4.999999999999985
    vertex 5.639932965095795e-15 6.999999999999971 11.999999999999995
    vertex 3.4106804848176107 6.999999999999971 9.999999999999998
  endloop
endfacet
facet normal 0.0 1.0 7.049916206369737e-17
  outer loop
    vertex 3.4106804848176107 6.999999999999971 9.999999999999998
    vertex 5.639932965095795e-15 6.999999999999971 11.999999999999995
    vertex 3.4106804848176107 6.999999999999971 11.999999999999995
  endloop
endfacet
facet normal 0.0 1.0 7.049916206369737e-17
  outer loop
    vertex 8.821360969635201 6.999999999999971 4.999999999999985
    vertex 5.410680484817607 6.999999999999971 9.999999999999998
    vertex 8.821360969635201 6.999999999999971 11.999999999999995
  endloop
endfacet
facet normal 0.0 1.0 7.049916206369737e-17
  outer loop
    vertex 5.410680484817607 6.999999999999971 9.999999999999998
    vertex 8.821360969635201 6.999999999999971 4.999999999999985
    vertex 3.4106804848176107 6.999999999999971 9.999999999999998
  endloop
endfacet
facet normal 0.0 1.0 7.049916206369737e-17
  outer loop
    vertex 8.821360969635201 6.999999999999971 11.999999999999995
    vertex 5.410680484817607 6.999999999999971 9.999999999999998
    vertex 5.410680484817607 6.999999999999971 11.999999999999995
  endloop
endfacet
facet normal 0.0 1.0 0.0
  outer loop
    vertex 6.000000000000017 24.99999999999995 3.0
    vertex 8.821360969635201 24.99999999999995 -2.5345743401851257e-16
    vertex 6.000000000000017 24.99999999999995 -2.5345743401851257e-16
  endloop
endfacet
facet normal 0.0 1.0 0.0
  outer loop
    vertex 8.821360969635201 24.99999999999995 -2.5345743401851257e-16
    vertex 6.000000000000017 24.99999999999995 3.0
    vertex 8.821360969635201 24.99999999999995 3.0
  endloop
endfacet
facet normal -1.0 0.0 0.0
  outer loop
    vertex 6.000000000000017 24.99999999999995 3.0
    vertex 6.000000000000017 20.999999999999968 -2.5345743401851257e-16
    vertex 6.000000000000017 20.999999999999968 3.0
  endloop
endfacet
facet normal -1.0 0.0 0.0
  outer loop
    vertex 6.000000000000017 20.999999999999968 -2.5345743401851257e-16
    vertex 6.000000000000017 24.99999999999995 3.0
    vertex 6.000000000000017 24.99999999999995 -2.5345743401851257e-16
  endloop
endfacet
facet normal 0.0 0.0 1.0
  outer loop
    vertex 8.821360969635201 20.999999999999968 3.0
    vertex 6.000000000000017 24.99999999999995 3.0
    vertex 6.000000000000017 20.999999999999968 3.0
  endloop
endfacet
facet normal 0.0 0.0 1.0
  outer loop
    vertex 6.000000000000017 24.99999999999995 3.0
    vertex 8.821360969635201 20.999999999999968 3.0
    vertex 8.821360969635201 24.99999999999995 3.0
  endloop
endfacet
facet normal 0.0 1.0 0.0
  outer loop
    vertex 5.639932965095795e-15 24.999999999999932 3.0
    vertex 3.0000000000000226 24.999999999999932 -2.5345743401851257e-16
    vertex 5.639932965095795e-15 24.999999999999932 -2.5345743401851257e-16
  endloop
endfacet
facet normal 0.0 1.0 0.0
  outer loop
    vertex 3.0000000000000226 24.999999999999932 -2.5345743401851257e-16
    vertex 5.639932965095795e-15 24.999999999999932 3.0
    vertex 3.0000000000000226 24.999999999999932 3.0
  endloop
endfacet
facet normal 0.0 0.0 1.0
  outer loop
    vertex 3.0000000000000226 20.999999999999968 3.0
    vertex 5.639932965095795e-15 24.999999999999932 3.0
    vertex 5.639932965095795e-15 20.999999999999968 3.0
  endloop
endfacet
facet normal 0.0 0.0 1.0
  outer loop
    vertex 5.639932965095795e-15 24.999999999999932 3.0
    vertex 3.0000000000000226 20.999999999999968 3.0
    vertex 3.0000000000000226 24.999999999999932 3.0
  endloop
endfacet
facet normal 1.0 0.0 0.0
  outer loop
    vertex 3.0000000000000226 24.999999999999932 -2.5345743401851257e-16
    vertex 3.0000000000000226 20.999999999999968 3.0
    vertex 3.0000000000000226 20.999999999999968 -2.5345743401851257e-16
  endloop
endfacet
facet normal 1.0 0.0 0.0
  outer loop
    vertex 3.0000000000000226 20.999999999999968 3.0
    vertex 3.0000000000000226 24.999999999999932 -2.5345743401851257e-16
    vertex 3.0000000000000226 24.999999999999932 3.0
  endloop
endfacet
facet normal 7.117864132082693e-18 1.0 5.280628500737825e-16
  outer loop
    vertex 3.0000000000000226 20.999999999999968 3.0
    vertex 6.000000000000017 20.999999999999968 -2.5345743401851257e-16
    vertex 3.0000000000000226 20.999999999999968 -2.5345743401851257e-16
  endloop
endfacet
facet normal 7.117864132082693e-18 1.0 5.280628500737825e-16
  outer loop
    vertex 6.000000000000017 20.999999999999968 -2.5345743401851257e-16
    vertex 3.0000000000000226 20.999999999999968 3.0
    vertex 6.000000000000017 20.999999999999968 3.0
  endloop
endfacet
facet normal 7.117864132082693e-18 1.0 5.280628500737825e-16
  outer loop
    vertex 5.639932965095795e-15 20.99999999999996 12.0
    vertex 3.0000000000000226 20.999999999999968 3.0
    vertex 5.639932965095795e-15 20.999999999999968 3.0
  endloop
endfacet
facet normal 7.117864132082693e-18 1.0 5.280628500737825e-16
  outer loop
    vertex 3.0000000000000226 20.999999999999968 3.0
    vertex 5.639932965095795e-15 20.99999999999996 12.0
    vertex 6.000000000000017 20.999999999999968 3.0
  endloop
endfacet
facet normal 7.117864132082693e-18 1.0 5.280628500737825e-16
  outer loop
    vertex 6.000000000000017 20.999999999999968 3.0
    vertex 5.639932965095795e-15 20.99999999999996 12.0
    vertex 8.821360969635201 20.999999999999968 3.0
  endloop
endfacet
facet normal 7.117864132082693e-18 1.0 5.280628500737825e-16
  outer loop
    vertex 8.821360969635201 20.999999999999968 3.0
    vertex 5.639932965095795e-15 20.99999999999996 12.0
    vertex 3.4106804848176218 20.99999999999995 10.00000000000005
  endloop
endfacet
facet normal 7.117864132082693e-18 1.0 5.280628500737825e-16
  outer loop
    vertex 3.4106804848176218 20.99999999999995 10.00000000000005
    vertex 5.639932965095795e-15 20.99999999999996 12.0
    vertex 3.4106804848176218 20.99999999999996 11.999999999999995
  endloop
endfacet
facet normal 7.117864132082693e-18 1.0 5.280628500737825e-16
  outer loop
    vertex 8.821360969635201 20.999999999999968 3.0
    vertex 5.410680484817607 20.99999999999995 10.00000000000005
    vertex 8.821360969635201 20.99999999999996 12.0
  endloop
endfacet
facet normal 7.117864132082693e-18 1.0 5.280628500737825e-16
  outer loop
    vertex 5.410680484817607 20.99999999999995 10.00000000000005
    vertex 8.821360969635201 20.999999999999968 3.0
    vertex 3.4106804848176218 20.99999999999995 10.00000000000005
  endloop
endfacet
facet normal 7.117864132082693e-18 1.0 5.280628500737825e-16
  outer loop
    vertex 8.821360969635201 20.99999999999996 12.0
    vertex 5.410680484817607 20.99999999999995 10.00000000000005
    vertex 5.410680484817607 20.99999999999996 11.999999999999995
  endloop
endfacet
facet normal -1.0 0.0 0.0
  outer loop
    vertex 5.639932965095795e-15 6.999999999999971 11.999999999999995
    vertex 5.639932965095795e-15 3.9999999999999645 2.9999999999999885
    vertex 5.639932965095795e-15 3.9999999999999645 12.0
  endloop
endfacet
facet normal -1.0 0.0 0.0
  outer loop
    vertex 5.639932965095795e-15 20.99999999999996 12.0
    vertex 5.639932965095795e-15 17.999999999999968 4.999999999999985
    vertex 5.639932965095795e-15 17.99999999999996 11.99999999999999
  endloop
endfacet
facet normal -1.0 0.0 0.0
  outer loop
    vertex 5.639932965095795e-15 3.9999999999999645 2.9999999999999885
    vertex 5.639932965095795e-15 5.639932965095795e-15 -2.5345743401851257e-16
    vertex 5.639932965095795e-15 5.639932965095795e-15 2.9999999999999885
  endloop
endfacet
facet normal -1.0 0.0 0.0
  outer loop
    vertex 5.639932965095795e-15 5.639932965095795e-15 -2.5345743401851257e-16
    vertex 5.639932965095795e-15 3.9999999999999645 2.9999999999999885
    vertex 5.639932965095795e-15 24.999999999999932 -2.5345743401851257e-16
  endloop
endfacet
facet normal -1.0 0.0 0.0
  outer loop
    vertex 5.639932965095795e-15 24.999999999999932 -2.5345743401851257e-16
    vertex 5.639932965095795e-15 3.9999999999999645 2.9999999999999885
    vertex 5.639932965095795e-15 8.999999999999966 2.9999999999999827
  endloop
endfacet
facet normal -1.0 0.0 0.0
  outer loop
    vertex 5.639932965095795e-15 8.999999999999966 2.9999999999999827
    vertex 5.639932965095795e-15 3.9999999999999645 2.9999999999999885
    vertex 5.639932965095795e-15 6.999999999999971 4.999999999999985
  endloop
endfacet
facet normal -1.0 0.0 0.0
  outer loop
    vertex 5.639932965095795e-15 6.999999999999971 4.999999999999985
    vertex 5.639932965095795e-15 3.9999999999999645 2.9999999999999885
    vertex 5.639932965095795e-15 6.999999999999971 11.999999999999995
  endloop
endfacet
facet normal -1.0 0.0 0.0
  outer loop
    vertex 5.639932965095795e-15 24.999999999999932 -2.5345743401851257e-16
    vertex 5.639932965095795e-15 8.999999999999966 2.9999999999999827
    vertex 5.639932965095795e-15 15.999999999999964 2.9999999999999827
  endloop
endfacet
facet normal -1.0 0.0 0.0
  outer loop
    vertex 5.639932965095795e-15 24.999999999999932 -2.5345743401851257e-16
    vertex 5.639932965095795e-15 15.999999999999964 2.9999999999999827
    vertex 5.639932965095795e-15 17.999999999999968 4.999999999999985
  endloop
endfacet
facet normal -1.0 0.0 0.0
  outer loop
    vertex 5.639932965095795e-15 24.999999999999932 -2.5345743401851257e-16
    vertex 5.639932965095795e-15 17.999999999999968 4.999999999999985
    vertex 5.639932965095795e-15 20.999999999999968 3.0
  endloop
endfacet
facet normal -1.0 0.0 0.0
  outer loop
    vertex 5.639932965095795e-15 20.999999999999968 3.0
    vertex 5.639932965095795e-15 17.999999999999968 4.999999999999985
    vertex 5.639932965095795e-15 20.99999999999996 12.0
  endloop
endfacet
facet normal -1.0 0.0 0.0
  outer loop
    vertex 5.639932965095795e-15 24.999999999999932 -2.5345743401851257e-16
    vertex 5.639932965095795e-15 20.999999999999968 3.0
    vertex 5.639932965095795e-15 24.999999999999932 3.0
  endloop
endfacet
facet normal 0.0 -1.0 0.0
  outer loop
    vertex 3.000000000000034 5.639932965095795e-15 2.9999999999999885
    vertex 5.639932965095795e-15 5.639932965095795e-15 -2.5345743401851257e-16
    vertex 3.000000000000034 5.639932965095795e-15 -2.5345743401851257e-16
  endloop
endfacet
facet normal 0.0 -1.0 0.0
  outer loop
    vertex 5.639932965095795e-15 5.639932965095795e-15 -2.5345743401851257e-16
    vertex 3.000000000000034 5.639932965095795e-15 2.9999999999999885
    vertex 5.639932965095795e-15 5.639932965095795e-15 2.9999999999999885
  endloop
endfacet
facet normal 1.0 0.0 0.0
  outer loop
    vertex 3.000000000000034 3.9999999999999645 -2.5345743401851257e-16
    vertex 3.000000000000034 5.639932965095795e-15 2.9999999999999885
    vertex 3.000000000000034 5.639932965095795e-15 -2.5345743401851257e-16
  endloop
endfacet
facet normal 1.0 0.0 0.0
  outer loop
    vertex 3.000000000000034 5.639932965095795e-15 2.9999999999999885
    vertex 3.000000000000034 3.9999999999999645 -2.5345743401851257e-16
    vertex 3.000000000000034 3.9999999999999645 2.9999999999999885
  endloop
endfacet
facet normal 0.0 0.0 1.0
  outer loop
    vertex 3.000000000000034 5.639932965095795e-15 2.9999999999999885
    vertex 5.639932965095795e-15 3.9999999999999645 2.9999999999999885
    vertex 5.639932965095795e-15 5.639932965095795e-15 2.9999999999999885
  endloop
endfacet
facet normal 0.0 0.0 1.0
  outer loop
    vertex 5.639932965095795e-15 3.9999999999999645 2.9999999999999885
    vertex 3.000000000000034 5.639932965095795e-15 2.9999999999999885
    vertex 3.000000000000034 3.9999999999999645 2.9999999999999885
  endloop
endfacet
facet normal 0.0 -1.0 0.0
  outer loop
    vertex 6.000000000000017 3.9999999999999645 2.9999999999999885
    vertex 3.000000000000034 3.9999999999999645 -2.5345743401851257e-16
    vertex 6.000000000000017 3.9999999999999645 -2.5345743401851257e-16
  endloop
endfacet
facet normal 0.0 -1.0 0.0
  outer loop
    vertex 3.000000000000034 3.9999999999999645 -2.5345743401851257e-16
    vertex 6.000000000000017 3.9999999999999645 2.9999999999999885
    vertex 3.000000000000034 3.9999999999999645 2.9999999999999885
  endloop
endfacet
facet normal 0.0 -1.0 0.0
  outer loop
    vertex 8.821360969635201 3.9999999999999645 12.0
    vertex 6.000000000000017 3.9999999999999645 2.9999999999999885
    vertex 8.821360969635201 3.9999999999999645 2.9999999999999885
  endloop
endfacet
facet normal 0.0 -1.0 0.0
  outer loop
    vertex 6.000000000000017 3.9999999999999645 2.9999999999999885
    vertex 8.821360969635201 3.9999999999999645 12.0
    vertex 3.000000000000034 3.9999999999999645 2.9999999999999885
  endloop
endfacet
facet normal 0.0 -1.0 0.0
  outer loop
    vertex 3.000000000000034 3.9999999999999645 2.9999999999999885
    vertex 8.821360969635201 3.9999999999999645 12.0
    vertex 5.639932965095795e-15 3.9999999999999645 2.9999999999999885
  endloop
endfacet
facet normal 0.0 -1.0 0.0
  outer loop
    vertex 5.639932965095795e-15 3.9999999999999645 2.9999999999999885
    vertex 8.821360969635201 3.9999999999999645 12.0
    vertex 5.410680484817607 3.9999999999999645 10.000000000000004
  endloop
endfacet
facet normal 0.0 -1.0 0.0
  outer loop
    vertex 5.410680484817607 3.9999999999999645 10.000000000000004
    vertex 8.821360969635201 3.9999999999999645 12.0
    vertex 5.410680484817607 3.9999999999999645 12.0
  endloop
endfacet
facet normal 0.0 -1.0 0.0
  outer loop
    vertex 5.639932965095795e-15 3.9999999999999645 2.9999999999999885
    vertex 3.4106804848176107 3.9999999999999645 10.000000000000004
    vertex 5.639932965095795e-15 3.9999999999999645 12.0
  endloop
endfacet
facet normal 0.0 -1.0 0.0
  outer loop
    vertex 3.4106804848176107 3.9999999999999645 10.000000000000004
    vertex 5.639932965095795e-15 3.9999999999999645 2.9999999999999885
    vertex 5.410680484817607 3.9999999999999645 10.000000000000004
  endloop
endfacet
facet normal 0.0 -1.0 0.0
  outer loop
    vertex 5.639932965095795e-15 3.9999999999999645 12.0
    vertex 3.4106804848176107 3.9999999999999645 10.000000000000004
    vertex 3.4106804848176107 3.9999999999999645 12.0
  endloop
endfacet
facet normal 0.0 -1.0 0.0
  outer loop
    vertex 8.821360969635201 -2.8199664825478976e-14 2.9999999999999885
    vertex 6.000000000000017 -2.8199664825478976e-14 -2.5345743401851257e-16
    vertex 8.821360969635201 -2.8199664825478976e-14 -2.5345743401851257e-16
  endloop
endfacet
facet normal 0.0 -1.0 0.0
  outer loop
    vertex 6.000000000000017 -2.8199664825478976e-14 -2.5345743401851257e-16
    vertex 8.821360969635201 -2.8199664825478976e-14 2.9999999999999885
    vertex 6.000000000000017 -2.8199664825478976e-14 2.9999999999999885
  endloop
endfacet
facet normal 0.0 0.0 1.0
  outer loop
    vertex 8.821360969635201 -2.8199664825478976e-14 2.9999999999999885
    vertex 6.000000000000017 3.9999999999999645 2.9999999999999885
    vertex 6.000000000000017 -2.8199664825478976e-14 2.9999999999999885
  endloop
endfacet
facet normal 0.0 0.0 1.0
  outer loop
    vertex 6.000000000000017 3.9999999999999645 2.9999999999999885
    vertex 8.821360969635201 -2.8199664825478976e-14 2.9999999999999885
    vertex 8.821360969635201 3.9999999999999645 2.9999999999999885
  endloop
endfacet
facet normal -1.0 -0.0 -0.0
  outer loop
    vertex 6.000000000000017 3.9999999999999645 2.9999999999999885
    vertex 6.000000000000017 -2.8199664825478976e-14 -2.5345743401851257e-16
    vertex 6.000000000000017 -2.8199664825478976e-14 2.9999999999999885
  endloop
endfacet
facet normal -1.0 -0.0 -0.0
  outer loop
    vertex 6.000000000000017 -2.8199664825478976e-14 -2.5345743401851257e-16
    vertex 6.000000000000017 3.9999999999999645 2.9999999999999885
    vertex 6.000000000000017 3.9999999999999645 -2.5345743401851257e-16
  endloop
endfacet
facet normal -4.1125243842222946e-44 1.8799776550319274e-15 1.0
  outer loop
    vertex 8.821360969635201 3.9999999999999645 12.0
    vertex 5.410680484817607 6.999999999999971 11.999999999999995
    vertex 5.410680484817607 3.9999999999999645 12.0
  endloop
endfacet
facet normal -4.1125243842222946e-44 1.8799776550319274e-15 1.0
  outer loop
    vertex 5.410680484817607 6.999999999999971 11.999999999999995
    vertex 8.821360969635201 3.9999999999999645 12.0
    vertex 8.821360969635201 6.999999999999971 11.999999999999995
  endloop
endfacet
facet normal -1.2507450534607614e-15 -2.8199664825478975e-15 1.0
  outer loop
    vertex 8.821360969635201 17.99999999999996 11.99999999999999
    vertex 5.410680484817607 20.99999999999996 11.999999999999995
    vertex 5.410680484817607 17.99999999999996 11.99999999999999
  endloop
endfacet
facet normal -1.2507450534607614e-15 -2.8199664825478975e-15 1.0
  outer loop
    vertex 5.410680484817607 20.99999999999996 11.999999999999995
    vertex 8.821360969635201 17.99999999999996 11.99999999999999
    vertex 8.821360969635201 20.99999999999996 12.0
  endloop
endfacet
facet normal 0.0 1.8799776550319282e-15 1.0
  outer loop
    vertex 5.410680484817607 3.9999999999999645 10.000000000000004
    vertex 3.4106804848176107 6.999999999999971 9.999999999999998
    vertex 3.4106804848176107 3.9999999999999645 10.000000000000004
  endloop
endfacet
facet normal 0.0 1.8799776550319282e-15 1.0
  outer loop
    vertex 3.4106804848176107 6.999999999999971 9.999999999999998
    vertex 5.410680484817607 3.9999999999999645 10.000000000000004
    vertex 5.410680484817607 6.999999999999971 9.999999999999998
  endloop
endfacet
facet normal 1.0 0.0 0.0
  outer loop
    vertex 3.4106804848176107 6.999999999999971 9.999999999999998
    vertex 3.4106804848176107 3.9999999999999645 12.0
    vertex 3.4106804848176107 3.9999999999999645 10.000000000000004
  endloop
endfacet
facet normal 1.0 0.0 0.0
  outer loop
    vertex 3.4106804848176107 3.9999999999999645 12.0
    vertex 3.4106804848176107 6.999999999999971 9.999999999999998
    vertex 3.4106804848176107 6.999999999999971 11.999999999999995
  endloop
endfacet
facet normal -1.0 -0.0 -0.0
  outer loop
    vertex 5.410680484817607 6.999999999999971 11.999999999999995
    vertex 5.410680484817607 3.9999999999999645 10.000000000000004
    vertex 5.410680484817607 3.9999999999999645 12.0
  endloop
endfacet
facet normal -1.0 -0.0 -0.0
  outer loop
    vertex 5.410680484817607 3.9999999999999645 10.000000000000004
    vertex 5.410680484817607 6.999999999999971 11.999999999999995
    vertex 5.410680484817607 6.999999999999971 9.999999999999998
  endloop
endfacet
facet normal 1.2007220875923263e-44 -1.8799776550319314e-15 1.0
  outer loop
    vertex 5.410680484817607 17.99999999999995 10.000000000000044
    vertex 3.4106804848176218 20.99999999999995 10.00000000000005
    vertex 3.4106804848176218 17.99999999999995 10.000000000000044
  endloop
endfacet
facet normal 1.2007220875923263e-44 -1.8799776550319314e-15 1.0
  outer loop
    vertex 3.4106804848176218 20.99999999999995 10.00000000000005
    vertex 5.410680484817607 17.99999999999995 10.000000000000044
    vertex 5.410680484817607 20.99999999999995 10.00000000000005
  endloop
endfacet
facet normal -1.0 -2.2573306945768675e-59 1.2007220875923263e-44
  outer loop
    vertex 5.410680484817607 17.99999999999996 11.99999999999999
    vertex 5.410680484817607 20.99999999999995 10.00000000000005
    vertex 5.410680484817607 17.99999999999995 10.000000000000044
  endloop
endfacet
facet normal -1.0 -2.2573306945768675e-59 1.2007220875923263e-44
  outer loop
    vertex 5.410680484817607 20.99999999999995 10.00000000000005
    vertex 5.410680484817607 17.99999999999996 11.99999999999999
    vertex 5.410680484817607 20.99999999999996 11.999999999999995
  endloop
endfacet
facet normal 1.0 2.2573306945768675e-59 -1.2007220875923263e-44
  outer loop
    vertex 3.4106804848176218 20.99999999999995 10.00000000000005
    vertex 3.4106804848176218 17.99999999999996 11.99999999999999
    vertex 3.4106804848176218 17.99999999999995 10.000000000000044
  endloop
endfacet
facet normal 1.0 2.2573306945768675e-59 -1.2007220875923263e-44
  outer loop
    vertex 3.4106804848176218 17.99999999999996 11.99999999999999
    vertex 3.4106804848176218 20.99999999999995 10.00000000000005
    vertex 3.4106804848176218 20.99999999999996 11.999999999999995
  endloop
endfacet
facet normal -8.115104001064386e-17 -1.0 -9.005306755697251e-16
  outer loop
    vertex 8.821360969635201 17.99999999999996 11.99999999999999
    vertex 5.639932965095795e-15 17.999999999999968 4.999999999999985
    vertex 8.821360969635201 17.999999999999968 4.999999999999985
  endloop
endfacet
facet normal -8.115104001064386e-17 -1.0 -9.005306755697251e-16
  outer loop
    vertex 5.639932965095795e-15 17.999999999999968 4.999999999999985
    vertex 8.821360969635201 17.99999999999996 11.99999999999999
    vertex 5.410680484817607 17.99999999999995 10.000000000000044
  endloop
endfacet
facet normal -8.115104001064386e-17 -1.0 -9.005306755697251e-16
  outer loop
    vertex 5.410680484817607 17.99999999999995 10.000000000000044
    vertex 8.821360969635201 17.99999999999996 11.99999999999999
    vertex 5.410680484817607 17.99999999999996 11.99999999999999
  endloop
endfacet
facet normal -8.115104001064386e-17 -1.0 -9.005306755697251e-16
  outer loop
    vertex 5.639932965095795e-15 17.999999999999968 4.999999999999985
    vertex 3.4106804848176218 17.99999999999995 10.000000000000044
    vertex 5.639932965095795e-15 17.99999999999996 11.99999999999999
  endloop
endfacet
facet normal -8.115104001064386e-17 -1.0 -9.005306755697251e-16
  outer loop
    vertex 3.4106804848176218 17.99999999999995 10.000000000000044
    vertex 5.639932965095795e-15 17.999999999999968 4.999999999999985
    vertex 5.410680484817607 17.99999999999995 10.000000000000044
  endloop
endfacet
facet normal -8.115104001064386e-17 -1.0 -9.005306755697251e-16
  outer loop
    vertex 5.639932965095795e-15 17.99999999999996 11.99999999999999
    vertex 3.4106804848176218 17.99999999999995 10.000000000000044
    vertex 3.4106804848176218 17.99999999999996 11.99999999999999
  endloop
endfacet
endsolid limn
