solid Untitled-55163fb7
facet normal -2.635135436126204e-10 2.835745046237419e-11 1.0
  outer loop
    vertex 5.25881908929747 35.265306724112754 37.50000000912577
    vertex 4.7411809990924265 35.26530671639947 37.50000000912576
    vertex 5.000000044702688 35.23123254654518 37.50000000912576
  endloop
endfacet
facet normal -2.635135436126204e-10 2.835745046237419e-11 1.0
  outer loop
    vertex 4.7411809990924265 35.26530671639947 37.50000000912576
    vertex 5.25881908929747 35.265306724112754 37.50000000912577
    vertex 4.500000042706344 35.36520713531029 37.50000000912577
  endloop
endfacet
facet normal -2.635135436126204e-10 2.835745046237419e-11 1.0
  outer loop
    vertex 4.500000042706344 35.36520713531029 37.50000000912577
    vertex 5.25881908929747 35.265306724112754 37.50000000912577
    vertex 5.5000000427063425 35.3652071502112 37.50000000912577
  endloop
endfacet
facet normal -2.635135436126204e-10 2.835745046237419e-11 1.0
  outer loop
    vertex 4.500000042706344 35.36520713531029 37.50000000912577
    vertex 5.5000000427063425 35.3652071502112 37.50000000912577
    vertex 4.2928932591517635 35.52412575482211 37.50000000912579
  endloop
endfacet
facet normal -2.635135436126204e-10 2.835745046237419e-11 1.0
  outer loop
    vertex 4.2928932591517635 35.52412575482211 37.50000000912579
    vertex 5.5000000427063425 35.3652071502112 37.50000000912577
    vertex 5.707106821524876 35.52412577589517 37.500000009125785
  endloop
endfacet
facet normal -2.635135436126204e-10 2.835745046237419e-11 1.0
  outer loop
    vertex 4.2928932591517635 35.52412575482211 37.50000000912579
    vertex 5.707106821524876 35.52412577589517 37.500000009125785
    vertex 4.249816252307633 35.58026524039953 37.499999996953626
  endloop
endfacet
facet normal -2.635135436126204e-10 2.835745046237419e-11 1.0
  outer loop
    vertex 4.249816252307633 35.58026524039953 37.499999996953626
    vertex 5.707106821524876 35.52412577589517 37.500000009125785
    vertex 5.86602544103668 35.731232559449765 37.500000009125806
  endloop
endfacet
facet normal -2.635135436126204e-10 2.835745046237419e-11 1.0
  outer loop
    vertex 4.249816252307633 35.58026524039953 37.499999996953626
    vertex 5.86602544103668 35.731232559449765 37.500000009125806
    vertex 4.249816309168898 36.8821999084461 37.5000000010374
  endloop
endfacet
facet normal -2.635135436126204e-10 2.835745046237419e-11 1.0
  outer loop
    vertex 4.249816309168898 36.8821999084461 37.5000000010374
    vertex 5.86602544103668 35.731232559449765 37.500000009125806
    vertex 5.965925859947496 35.97241351583584 37.50000000912582
  endloop
endfacet
facet normal -2.635135436126204e-10 2.835745046237419e-11 1.0
  outer loop
    vertex 4.249816309168898 36.8821999084461 37.5000000010374
    vertex 5.965925859947496 35.97241351583584 37.50000000912582
    vertex 6.000000029801791 36.2312325614461 37.50000000912584
  endloop
endfacet
facet normal -2.635135436126204e-10 2.835745046237419e-11 1.0
  outer loop
    vertex 4.249816309168898 36.8821999084461 37.5000000010374
    vertex 6.000000029801791 36.2312325614461 37.50000000912584
    vertex 5.96592585223422 36.49005160604088 37.500000009125856
  endloop
endfacet
facet normal -2.635135436126204e-10 2.835745046237419e-11 1.0
  outer loop
    vertex 4.249816309168898 36.8821999084461 37.5000000010374
    vertex 5.96592585223422 36.49005160604088 37.500000009125856
    vertex 5.866025426135779 36.73123255944975 37.50000000912586
  endloop
endfacet
facet normal -2.635135436126204e-10 2.835745046237419e-11 1.0
  outer loop
    vertex 4.249816309168898 36.8821999084461 37.5000000010374
    vertex 5.866025426135779 36.73123255944975 37.50000000912586
    vertex 5.707106800451808 36.93833933826827 37.50000000912587
  endloop
endfacet
facet normal -2.635135436126204e-10 2.835745046237419e-11 1.0
  outer loop
    vertex 4.249816309168898 36.8821999084461 37.5000000010374
    vertex 5.707106800451808 36.93833933826827 37.50000000912587
    vertex 4.292893238078715 36.93833931719521 37.50000000912588
  endloop
endfacet
facet normal -2.635135436126204e-10 2.835745046237419e-11 1.0
  outer loop
    vertex 4.292893238078715 36.93833931719521 37.50000000912588
    vertex 5.707106800451808 36.93833933826827 37.50000000912587
    vertex 4.500000016897232 37.097257942879175 37.500000009125884
  endloop
endfacet
facet normal -2.635135436126204e-10 2.835745046237419e-11 1.0
  outer loop
    vertex 4.500000016897232 37.097257942879175 37.500000009125884
    vertex 5.707106800451808 36.93833933826827 37.50000000912587
    vertex 5.500000016897233 37.09725795778007 37.50000000912589
  endloop
endfacet
facet normal -2.635135436126204e-10 2.835745046237419e-11 1.0
  outer loop
    vertex 4.500000016897232 37.097257942879175 37.500000009125884
    vertex 5.500000016897233 37.09725795778007 37.50000000912589
    vertex 4.74118097030611 37.19715836897762 37.50000000912589
  endloop
endfacet
facet normal -2.635135436126204e-10 2.835745046237419e-11 1.0
  outer loop
    vertex 4.74118097030611 37.19715836897762 37.50000000912589
    vertex 5.500000016897233 37.09725795778007 37.50000000912589
    vertex 5.2588190605111444 37.197158376690886 37.5000000091259
  endloop
endfacet
facet normal -2.635135436126204e-10 2.835745046237419e-11 1.0
  outer loop
    vertex 4.74118097030611 37.19715836897762 37.50000000912589
    vertex 5.2588190605111444 37.197158376690886 37.5000000091259
    vertex 5.000000014900887 37.23123254654518 37.5000000091259
  endloop
endfacet
facet normal 1.0 7.450449028270149e-09 1.4900898176462441e-08
  outer loop
    vertex 10.000000149008974 28.231232621050427 26.50000000912529
    vertex 9.999999999999995 38.23123232303212 31.50000000912596
    vertex 10.000000149008969 28.231232621050083 31.500000009125316
  endloop
endfacet
facet normal 1.0 7.450449028270149e-09 1.4900898176462441e-08
  outer loop
    vertex 9.999999999999995 38.23123232303212 31.50000000912596
    vertex 10.000000149008974 28.231232621050427 26.50000000912529
    vertex 10.000000149008974 38.23123232303245 26.500000009125955
  endloop
endfacet
facet normal 1.0 9.84020779451545e-09 -7.884887377892998e-11
  outer loop
    vertex -3.734930019123854 28.231232639001554 27.332867411534142
    vertex -3.7349301174617553 38.23123236986646 31.500000012679923
    vertex -3.734930019123854 28.231232708620514 31.50000013011209
  endloop
endfacet
facet normal 1.0 9.84020779451545e-09 -7.884887377892998e-11
  outer loop
    vertex -3.7349301174617553 38.23123236986646 31.500000012679923
    vertex -3.734930019123854 28.231232639001554 27.332867411534142
    vertex -3.734930117095034 38.2312323230324 27.33286729054801
  endloop
endfacet
facet normal -7.196191461712081e-10 -1.0 -6.611940310568406e-10
  outer loop
    vertex -7.000000000000001 28.2312326210507 22.500000009125287
    vertex -3.5349921067431094 28.23123262105044 26.307977857112544
    vertex -3.734930019123854 28.231232639001554 27.332867411534142
  endloop
endfacet
facet normal -7.196191461712081e-10 -1.0 -6.611940310568406e-10
  outer loop
    vertex -3.5349921067431094 28.23123262105044 26.307977857112544
    vertex -7.000000000000001 28.2312326210507 22.500000009125287
    vertex -3.0766059143900724 28.231232621050506 25.369758449186076
  endloop
endfacet
facet normal -7.196191461712081e-10 -1.0 -6.611940310568406e-10
  outer loop
    vertex -3.0766059143900724 28.231232621050506 25.369758449186076
    vertex -7.000000000000001 28.2312326210507 22.500000009125287
    vertex -2.3910098015257875 28.23123262105055 24.582147168937247
  endloop
endfacet
facet normal -7.196191461712081e-10 -1.0 -6.611940310568406e-10
  outer loop
    vertex -2.3910098015257875 28.23123262105055 24.582147168937247
    vertex -7.000000000000001 28.2312326210507 22.500000009125287
    vertex -1.5249260102407975 28.23123262105059 23.998818423525837
  endloop
endfacet
facet normal -7.196191461712081e-10 -1.0 -6.611940310568406e-10
  outer loop
    vertex -1.5249260102407975 28.23123262105059 23.998818423525837
    vertex -7.000000000000001 28.2312326210507 22.500000009125287
    vertex -0.5373767196400456 28.231232621050612 23.659525102955328
  endloop
endfacet
facet normal -7.196191461712081e-10 -1.0 -6.611940310568406e-10
  outer loop
    vertex -0.5373767196400456 28.231232621050612 23.659525102955328
    vertex -7.000000000000001 28.2312326210507 22.500000009125287
    vertex 7.000000149008975 28.2312326210507 22.500000009125287
  endloop
endfacet
facet normal -7.196191461712081e-10 -1.0 -6.611940310568406e-10
  outer loop
    vertex -0.5373767196400456 28.231232621050612 23.659525102955328
    vertex 7.000000149008975 28.2312326210507 22.500000009125287
    vertex 0.5043382181243918 28.231232621050623 23.587389486313846
  endloop
endfacet
facet normal -7.196191461712081e-10 -1.0 -6.611940310568406e-10
  outer loop
    vertex 0.5043382181243918 28.231232621050623 23.587389486313846
    vertex 7.000000149008975 28.2312326210507 22.500000009125287
    vertex 1.5292276515592067 28.231232621050605 23.787327496665764
  endloop
endfacet
facet normal -7.196191461712081e-10 -1.0 -6.611940310568406e-10
  outer loop
    vertex 1.5292276515592067 28.231232621050605 23.787327496665764
    vertex 7.000000149008975 28.2312326210507 22.500000009125287
    vertex 2.4674470594856794 28.231232621050573 24.245713689018796
  endloop
endfacet
facet normal -7.196191461712081e-10 -1.0 -6.611940310568406e-10
  outer loop
    vertex 2.4674470594856794 28.231232621050573 24.245713689018796
    vertex 7.000000149008975 28.2312326210507 22.500000009125287
    vertex 3.2550583397344965 28.231232621050527 24.931309801883096
  endloop
endfacet
facet normal -7.196191461712081e-10 -1.0 -6.611940310568406e-10
  outer loop
    vertex 3.2550583397344965 28.231232621050527 24.931309801883096
    vertex 7.000000149008975 28.2312326210507 22.500000009125287
    vertex 3.8383870851458983 28.23123262105047 25.79739359316807
  endloop
endfacet
facet normal -7.196191461712081e-10 -1.0 -6.611940310568406e-10
  outer loop
    vertex 3.8383870851458983 28.23123262105047 25.79739359316807
    vertex 7.000000149008975 28.2312326210507 22.500000009125287
    vertex 4.177680405716422 28.231232621050403 26.784942883768824
  endloop
endfacet
facet normal -7.196191461712081e-10 -1.0 -6.611940310568406e-10
  outer loop
    vertex 4.177680405716422 28.231232621050403 26.784942883768824
    vertex 7.000000149008975 28.2312326210507 22.500000009125287
    vertex 4.249816022357909 28.231232621050335 27.826657821533264
  endloop
endfacet
facet normal -7.196191461712081e-10 -1.0 -6.611940310568406e-10
  outer loop
    vertex 4.249816022357909 28.231232621050335 27.826657821533264
    vertex 10.000000149008969 28.231232621050083 31.500000009125316
    vertex 4.2498155866152025 28.231232622489127 31.499999926556132
  endloop
endfacet
facet normal -7.196191461712081e-10 -1.0 -6.611940310568406e-10
  outer loop
    vertex 10.000000149008969 28.231232621050083 31.500000009125316
    vertex 4.249816022357909 28.231232621050335 27.826657821533264
    vertex 7.000000149008975 28.2312326210507 22.500000009125287
  endloop
endfacet
facet normal -7.196191461712081e-10 -1.0 -6.611940310568406e-10
  outer loop
    vertex 10.000000149008969 28.231232621050083 31.500000009125316
    vertex 7.000000149008975 28.2312326210507 22.500000009125287
    vertex 10.000000149008974 28.231232621050427 26.50000000912529
  endloop
endfacet
facet normal -7.196191461712081e-10 -1.0 -6.611940310568406e-10
  outer loop
    vertex -7.000000000000001 28.2312326210507 22.500000009125287
    vertex -9.999999850991031 28.231232621050083 31.500000009125316
    vertex -10.000000000000004 28.231232621050427 26.50000000912529
  endloop
endfacet
facet normal -7.196191461712081e-10 -1.0 -6.611940310568406e-10
  outer loop
    vertex -9.999999850991031 28.231232621050083 31.500000009125316
    vertex -7.000000000000001 28.2312326210507 22.500000009125287
    vertex -3.734930019123854 28.231232708620514 31.50000013011209
  endloop
endfacet
facet normal -7.196191461712081e-10 -1.0 -6.611940310568406e-10
  outer loop
    vertex -3.734930019123854 28.231232708620514 31.50000013011209
    vertex -7.000000000000001 28.2312326210507 22.500000009125287
    vertex -3.734930019123854 28.231232639001554 27.332867411534142
  endloop
endfacet
facet normal 2.601903935631846e-16 -6.629643102000867e-14 1.0
  outer loop
    vertex -4.741180910702529 35.26530657510377 37.50000000912576
    vertex -5.258819000907576 35.265306567390496 37.50000000912576
    vertex -4.999999955297312 35.2312323975362 37.50000000912576
  endloop
endfacet
facet normal 2.601903935631846e-16 -6.629643102000867e-14 1.0
  outer loop
    vertex -5.258819000907576 35.265306567390496 37.50000000912576
    vertex -4.741180910702529 35.26530657510377 37.50000000912576
    vertex -5.499999957293661 35.36520698630132 37.50000000912576
  endloop
endfacet
facet normal 2.601903935631846e-16 -6.629643102000867e-14 1.0
  outer loop
    vertex -5.499999957293661 35.36520698630132 37.50000000912576
    vertex -4.741180910702529 35.26530657510377 37.50000000912576
    vertex -4.49999995729366 35.36520700120222 37.50000000912576
  endloop
endfacet
facet normal 2.601903935631846e-16 -6.629643102000867e-14 1.0
  outer loop
    vertex -5.499999957293661 35.36520698630132 37.50000000912576
    vertex -4.49999995729366 35.36520700120222 37.50000000912576
    vertex -5.707106740848239 35.52412560581313 37.500000009125785
  endloop
endfacet
facet normal 2.601903935631846e-16 -6.629643102000867e-14 1.0
  outer loop
    vertex -5.707106740848239 35.52412560581313 37.500000009125785
    vertex -4.49999995729366 35.36520700120222 37.50000000912576
    vertex -4.292893178475142 35.52412562688619 37.50000000912578
  endloop
endfacet
facet normal 2.601903935631846e-16 -6.629643102000867e-14 1.0
  outer loop
    vertex -5.707106740848239 35.52412560581313 37.500000009125785
    vertex -4.292893178475142 35.52412562688619 37.50000000912578
    vertex -5.866025366532205 35.73123238463164 37.5000000091258
  endloop
endfacet
facet normal 2.601903935631846e-16 -6.629643102000867e-14 1.0
  outer loop
    vertex -5.866025366532205 35.73123238463164 37.5000000091258
    vertex -4.292893178475142 35.52412562688619 37.50000000912578
    vertex -4.13397455896332 35.731232410440775 37.5000000091258
  endloop
endfacet
facet normal 2.601903935631846e-16 -6.629643102000867e-14 1.0
  outer loop
    vertex -5.866025366532205 35.73123238463164 37.5000000091258
    vertex -4.13397455896332 35.731232410440775 37.5000000091258
    vertex -5.965925792630644 35.97241333804052 37.500000009125806
  endloop
endfacet
facet normal 2.601903935631846e-16 -6.629643102000867e-14 1.0
  outer loop
    vertex -5.965925792630644 35.97241333804052 37.500000009125806
    vertex -4.13397455896332 35.731232410440775 37.5000000091258
    vertex -4.034074140052505 35.97241336682685 37.50000000912581
  endloop
endfacet
facet normal 2.601903935631846e-16 -6.629643102000867e-14 1.0
  outer loop
    vertex -5.965925792630644 35.97241333804052 37.500000009125806
    vertex -4.034074140052505 35.97241336682685 37.50000000912581
    vertex -5.999999970198211 36.231232382635305 37.500000009125834
  endloop
endfacet
facet normal 2.601903935631846e-16 -6.629643102000867e-14 1.0
  outer loop
    vertex -5.999999970198211 36.231232382635305 37.500000009125834
    vertex -4.034074140052505 35.97241336682685 37.50000000912581
    vertex -3.9999999701982145 36.23123241243711 37.500000009125834
  endloop
endfacet
facet normal 2.601903935631846e-16 -6.629643102000867e-14 1.0
  outer loop
    vertex -5.999999970198211 36.231232382635305 37.500000009125834
    vertex -3.9999999701982145 36.23123241243711 37.500000009125834
    vertex -5.965925800343911 36.49005142824558 37.50000000912585
  endloop
endfacet
facet normal 2.601903935631846e-16 -6.629643102000867e-14 1.0
  outer loop
    vertex -5.965925800343911 36.49005142824558 37.50000000912585
    vertex -3.9999999701982145 36.23123241243711 37.500000009125834
    vertex -4.034074147765782 36.49005145703189 37.50000000912585
  endloop
endfacet
facet normal 2.601903935631846e-16 -6.629643102000867e-14 1.0
  outer loop
    vertex -5.965925800343911 36.49005142824558 37.50000000912585
    vertex -4.034074147765782 36.49005145703189 37.50000000912585
    vertex -5.866025381433099 36.73123238463165 37.50000000912586
  endloop
endfacet
facet normal 2.601903935631846e-16 -6.629643102000867e-14 1.0
  outer loop
    vertex -5.866025381433099 36.73123238463165 37.50000000912586
    vertex -4.034074147765782 36.49005145703189 37.50000000912585
    vertex -4.133974573864229 36.73123241044077 37.500000009125856
  endloop
endfacet
facet normal 2.601903935631846e-16 -6.629643102000867e-14 1.0
  outer loop
    vertex -5.866025381433099 36.73123238463165 37.50000000912586
    vertex -4.133974573864229 36.73123241044077 37.500000009125856
    vertex -5.7071067619212865 36.938339168186225 37.50000000912587
  endloop
endfacet
facet normal 2.601903935631846e-16 -6.629643102000867e-14 1.0
  outer loop
    vertex -5.7071067619212865 36.938339168186225 37.50000000912587
    vertex -4.133974573864229 36.73123241044077 37.500000009125856
    vertex -4.292893199548189 36.93833918925928 37.50000000912587
  endloop
endfacet
facet normal 2.601903935631846e-16 -6.629643102000867e-14 1.0
  outer loop
    vertex -5.7071067619212865 36.938339168186225 37.50000000912587
    vertex -4.292893199548189 36.93833918925928 37.50000000912587
    vertex -5.499999983102769 37.09725779387019 37.500000009125884
  endloop
endfacet
facet normal 2.601903935631846e-16 -6.629643102000867e-14 1.0
  outer loop
    vertex -5.499999983102769 37.09725779387019 37.500000009125884
    vertex -4.292893199548189 36.93833918925928 37.50000000912587
    vertex -4.499999983102772 37.0972578087711 37.50000000912588
  endloop
endfacet
facet normal 2.601903935631846e-16 -6.629643102000867e-14 1.0
  outer loop
    vertex -5.499999983102769 37.09725779387019 37.500000009125884
    vertex -4.499999983102772 37.0972578087711 37.50000000912588
    vertex -5.258819029693896 37.197158219968635 37.50000000912589
  endloop
endfacet
facet normal 2.601903935631846e-16 -6.629643102000867e-14 1.0
  outer loop
    vertex -5.258819029693896 37.197158219968635 37.50000000912589
    vertex -4.499999983102772 37.0972578087711 37.50000000912588
    vertex -4.741180939488855 37.197158227681896 37.50000000912589
  endloop
endfacet
facet normal 2.601903935631846e-16 -6.629643102000867e-14 1.0
  outer loop
    vertex -5.258819029693896 37.197158219968635 37.50000000912589
    vertex -4.741180939488855 37.197158227681896 37.50000000912589
    vertex -4.999999985099111 37.2312323975362 37.50000000912589
  endloop
endfacet
facet normal -1.0 -7.450448887273777e-09 1.4900897048474896e-08
  outer loop
    vertex -10.000000000000004 38.23123232303211 31.50000000912596
    vertex -10.000000000000004 28.231232621050427 26.50000000912529
    vertex -9.999999850991031 28.231232621050083 31.500000009125316
  endloop
endfacet
facet normal -1.0 -7.450448887273777e-09 1.4900897048474896e-08
  outer loop
    vertex -10.000000000000004 28.231232621050427 26.50000000912529
    vertex -10.000000000000004 38.23123232303211 31.50000000912596
    vertex -10.000000000000004 38.23123232303245 26.500000009125955
  endloop
endfacet
facet normal 0.0 6.684443304953104e-14 -1.0
  outer loop
    vertex -7.000000000000001 38.23123232303273 22.500000009125955
    vertex 7.000000149008975 28.2312326210507 22.500000009125287
    vertex -7.000000000000001 28.2312326210507 22.500000009125287
  endloop
endfacet
facet normal 0.0 6.684443304953104e-14 -1.0
  outer loop
    vertex 7.000000149008975 28.2312326210507 22.500000009125287
    vertex -7.000000000000001 38.23123232303273 22.500000009125955
    vertex 7.000000149008975 38.23123232303273 22.500000009125955
  endloop
endfacet
facet normal -4.076606355650647e-09 -4.632593629507881e-09 1.0
  outer loop
    vertex 9.999999999999995 38.23123232303212 31.50000000912596
    vertex 4.2498155866152025 28.231232622489127 31.499999926556132
    vertex 10.000000149008969 28.231232621050083 31.500000009125316
  endloop
endfacet
facet normal -4.076606355650647e-09 -4.632593629507881e-09 1.0
  outer loop
    vertex 4.2498155866152025 28.231232622489127 31.499999926556132
    vertex 9.999999999999995 38.23123232303212 31.50000000912596
    vertex 5.500000043000417 35.36520715054577 31.500000004972176
  endloop
endfacet
facet normal -4.076606355650647e-09 -4.632593629507881e-09 1.0
  outer loop
    vertex 4.2498155866152025 28.231232622489127 31.499999926556132
    vertex 5.500000043000417 35.36520715054577 31.500000004972176
    vertex 5.258819089591541 35.26530672444733 31.50000000497217
  endloop
endfacet
facet normal -4.076606355650647e-09 -4.632593629507881e-09 1.0
  outer loop
    vertex 4.2498155866152025 28.231232622489127 31.499999926556132
    vertex 5.258819089591541 35.26530672444733 31.50000000497217
    vertex 5.000000044996759 35.23123254687975 31.50000000497217
  endloop
endfacet
facet normal -4.076606355650647e-09 -4.632593629507881e-09 1.0
  outer loop
    vertex 5.500000043000417 35.36520715054577 31.500000004972176
    vertex 9.999999999999995 38.23123232303212 31.50000000912596
    vertex 5.707106821818948 35.524125776229745 31.500000004972186
  endloop
endfacet
facet normal -4.076606355650647e-09 -4.632593629507881e-09 1.0
  outer loop
    vertex 5.707106821818948 35.524125776229745 31.500000004972186
    vertex 9.999999999999995 38.23123232303212 31.50000000912596
    vertex 5.866025441330754 35.73123255978433 31.500000004972208
  endloop
endfacet
facet normal -4.076606355650647e-09 -4.632593629507881e-09 1.0
  outer loop
    vertex 5.866025441330754 35.73123255978433 31.500000004972208
    vertex 9.999999999999995 38.23123232303212 31.50000000912596
    vertex 5.965925860241568 35.97241351617041 31.50000000497222
  endloop
endfacet
facet normal -4.076606355650647e-09 -4.632593629507881e-09 1.0
  outer loop
    vertex 5.965925860241568 35.97241351617041 31.50000000497222
    vertex 9.999999999999995 38.23123232303212 31.50000000912596
    vertex 6.000000030095863 36.23123256178067 31.500000004972232
  endloop
endfacet
facet normal -4.076606355650647e-09 -4.632593629507881e-09 1.0
  outer loop
    vertex 6.000000030095863 36.23123256178067 31.500000004972232
    vertex 9.999999999999995 38.23123232303212 31.50000000912596
    vertex 5.965925852528291 36.490051606375445 31.50000000497226
  endloop
endfacet
facet normal -4.076606355650647e-09 -4.632593629507881e-09 1.0
  outer loop
    vertex 5.965925852528291 36.490051606375445 31.50000000497226
    vertex 9.999999999999995 38.23123232303212 31.50000000912596
    vertex 5.866025426429851 36.731232559784324 31.500000004972264
  endloop
endfacet
facet normal -4.076606355650647e-09 -4.632593629507881e-09 1.0
  outer loop
    vertex 5.866025426429851 36.731232559784324 31.500000004972264
    vertex 9.999999999999995 38.23123232303212 31.50000000912596
    vertex 5.70710680074588 36.938339338602844 31.500000004972275
  endloop
endfacet
facet normal -4.076606355650647e-09 -4.632593629507881e-09 1.0
  outer loop
    vertex 5.70710680074588 36.938339338602844 31.500000004972275
    vertex 9.999999999999995 38.23123232303212 31.50000000912596
    vertex 5.500000017191308 37.097257958114646 31.500000004972293
  endloop
endfacet
facet normal -4.076606355650647e-09 -4.632593629507881e-09 1.0
  outer loop
    vertex 5.500000017191308 37.097257958114646 31.500000004972293
    vertex 9.999999999999995 38.23123232303212 31.50000000912596
    vertex 5.258819060805219 37.19715837702546 31.5000000049723
  endloop
endfacet
facet normal -4.076606355650647e-09 -4.632593629507881e-09 1.0
  outer loop
    vertex 5.258819060805219 37.19715837702546 31.5000000049723
    vertex 9.999999999999995 38.23123232303212 31.50000000912596
    vertex 5.000000015194962 37.23123254687975 31.5000000049723
  endloop
endfacet
facet normal -4.076606355650647e-09 -4.632593629507881e-09 1.0
  outer loop
    vertex 5.000000015194962 37.23123254687975 31.5000000049723
    vertex 9.999999999999995 38.23123232303212 31.50000000912596
    vertex 4.249816022651973 38.23123219664284 31.500000004972343
  endloop
endfacet
facet normal -4.076606355650647e-09 -4.632593629507881e-09 1.0
  outer loop
    vertex 4.292893238372787 36.93833931752978 31.500000004972282
    vertex 4.249816022651973 38.23123219664284 31.500000004972343
    vertex 4.249815964441353 36.88219991941743 31.499999992899312
  endloop
endfacet
facet normal -4.076606355650647e-09 -4.632593629507881e-09 1.0
  outer loop
    vertex 4.249816022651973 38.23123219664284 31.500000004972343
    vertex 4.292893238372787 36.93833931752978 31.500000004972282
    vertex 4.500000017191304 37.09725794321375 31.50000000497229
  endloop
endfacet
facet normal -4.076606355650647e-09 -4.632593629507881e-09 1.0
  outer loop
    vertex 4.249816022651973 38.23123219664284 31.500000004972343
    vertex 4.500000017191304 37.09725794321375 31.50000000497229
    vertex 4.741180970600182 37.19715836931219 31.500000004972293
  endloop
endfacet
facet normal -4.076606355650647e-09 -4.632593629507881e-09 1.0
  outer loop
    vertex 4.249816022651973 38.23123219664284 31.500000004972343
    vertex 4.741180970600182 37.19715836931219 31.500000004972293
    vertex 5.000000015194962 37.23123254687975 31.5000000049723
  endloop
endfacet
facet normal -4.076606355650647e-09 -4.632593629507881e-09 1.0
  outer loop
    vertex 4.2498155866152025 28.231232622489127 31.499999926556132
    vertex 4.292893259445835 35.52412575515668 31.500000004972186
    vertex 4.249815907580085 35.58026525137086 31.499999988815542
  endloop
endfacet
facet normal -4.076606355650647e-09 -4.632593629507881e-09 1.0
  outer loop
    vertex 4.292893259445835 35.52412575515668 31.500000004972186
    vertex 4.2498155866152025 28.231232622489127 31.499999926556132
    vertex 4.500000043000418 35.365207135644866 31.500000004972176
  endloop
endfacet
facet normal -4.076606355650647e-09 -4.632593629507881e-09 1.0
  outer loop
    vertex 4.500000043000418 35.365207135644866 31.500000004972176
    vertex 4.2498155866152025 28.231232622489127 31.499999926556132
    vertex 4.741180999386499 35.265306716734045 31.50000000497217
  endloop
endfacet
facet normal -4.076606355650647e-09 -4.632593629507881e-09 1.0
  outer loop
    vertex 4.741180999386499 35.265306716734045 31.50000000497217
    vertex 4.2498155866152025 28.231232622489127 31.499999926556132
    vertex 5.000000044996759 35.23123254687975 31.50000000497217
  endloop
endfacet
facet normal 0.38268341859842214 0.923879538213627 6.103319766571241e-14
  outer loop
    vertex -4.741180939488855 37.197158227681896 37.50000000912589
    vertex -4.499999983469489 37.097257808928255 31.50000001267984
    vertex -4.741180939855572 37.19715822783906 31.500000012679855
  endloop
endfacet
facet normal 0.38268341859842214 0.923879538213627 6.103319766571241e-14
  outer loop
    vertex -4.499999983469489 37.097257808928255 31.50000001267984
    vertex -4.741180939488855 37.197158227681896 37.50000000912589
    vertex -4.499999983102772 37.0972578087711 37.50000000912588
  endloop
endfacet
facet normal 0.981497866446385 -1.2797972675873907e-14 0.1914730742459481
  outer loop
    vertex -3.5349921067431094 28.23123262105044 26.307977857112544
    vertex -3.734930117095034 38.2312323230324 27.33286729054801
    vertex -3.734930019123854 28.231232639001554 27.332867411534142
  endloop
endfacet
facet normal 0.981497866446385 -1.2797972675873907e-14 0.1914730742459481
  outer loop
    vertex -3.734930117095034 38.2312323230324 27.33286729054801
    vertex -3.5349921067431094 28.23123262105044 26.307977857112544
    vertex -3.5349921067431094 38.23123232303247 26.307977857113208
  endloop
endfacet
facet normal 0.8984972594090016 -2.93433109328699e-14 0.43897912801694067
  outer loop
    vertex -3.0766059143900724 28.231232621050506 25.369758449186076
    vertex -3.5349921067431094 38.23123232303247 26.307977857113208
    vertex -3.5349921067431094 28.23123262105044 26.307977857112544
  endloop
endfacet
facet normal 0.8984972594090016 -2.93433109328699e-14 0.43897912801694067
  outer loop
    vertex -3.5349921067431094 38.23123232303247 26.307977857113208
    vertex -3.0766059143900724 28.231232621050506 25.369758449186076
    vertex -3.0766059143900724 38.231232323032536 25.36975844918674
  endloop
endfacet
facet normal 0.8000000000000002 4.009770643560287e-14 -0.5999999999999999
  outer loop
    vertex 7.000000149008975 28.2312326210507 22.500000009125287
    vertex 10.000000149008974 38.23123232303245 26.500000009125955
    vertex 10.000000149008974 28.231232621050427 26.50000000912529
  endloop
endfacet
facet normal 0.8000000000000002 4.009770643560287e-14 -0.5999999999999999
  outer loop
    vertex 10.000000149008974 38.23123232303245 26.500000009125955
    vertex 7.000000149008975 28.2312326210507 22.500000009125287
    vertex 7.000000149008975 38.23123232303273 22.500000009125955
  endloop
endfacet
facet normal -0.7999999999999997 4.00977064356029e-14 -0.6000000000000003
  outer loop
    vertex -7.000000000000001 38.23123232303273 22.500000009125955
    vertex -10.000000000000004 28.231232621050427 26.50000000912529
    vertex -10.000000000000004 38.23123232303245 26.500000009125955
  endloop
endfacet
facet normal -0.7999999999999997 4.00977064356029e-14 -0.6000000000000003
  outer loop
    vertex -10.000000000000004 28.231232621050427 26.50000000912529
    vertex -7.000000000000001 38.23123232303273 22.500000009125955
    vertex -7.000000000000001 28.2312326210507 22.500000009125287
  endloop
endfacet
facet normal 0.608761417187034 0.7933533493623344 5.2548644560249935e-14
  outer loop
    vertex -4.499999983102772 37.0972578087711 37.50000000912588
    vertex -4.292893199914906 36.93833918941644 31.500000012679838
    vertex -4.499999983469489 37.097257808928255 31.50000001267984
  endloop
endfacet
facet normal 0.608761417187034 0.7933533493623344 5.2548644560249935e-14
  outer loop
    vertex -4.292893199914906 36.93833918941644 31.500000012679838
    vertex -4.499999983102772 37.0972578087711 37.50000000912588
    vertex -4.292893199548189 36.93833918925928 37.50000000912587
  endloop
endfacet
facet normal 0.32492838678548686 -6.321719196440777e-14 0.9457386232257734
  outer loop
    vertex -0.5373767196400456 38.23123232303264 23.659525102955996
    vertex -1.5249260102407975 28.23123262105059 23.998818423525837
    vertex -0.5373767196400456 28.231232621050612 23.659525102955328
  endloop
endfacet
facet normal 0.32492838678548686 -6.321719196440777e-14 0.9457386232257734
  outer loop
    vertex -1.5249260102407975 28.23123262105059 23.998818423525837
    vertex -0.5373767196400456 38.23123232303264 23.659525102955996
    vertex -1.5249260102407975 38.231232323032614 23.998818423526505
  endloop
endfacet
facet normal -0.43897912801693445 -6.005928130110737e-14 0.8984972594090044
  outer loop
    vertex 2.4674470594856794 38.2312323230326 24.245713689019464
    vertex 1.5292276515592067 28.231232621050605 23.787327496665764
    vertex 2.4674470594856794 28.231232621050573 24.245713689018796
  endloop
endfacet
facet normal -0.43897912801693445 -6.005928130110737e-14 0.8984972594090044
  outer loop
    vertex 1.5292276515592067 28.231232621050605 23.787327496665764
    vertex 2.4674470594856794 38.2312323230326 24.245713689019464
    vertex 1.5292276515592067 38.231232323032636 23.787327496666432
  endloop
endfacet
facet normal -0.19147307424594054 -6.560766842193302e-14 0.9814978664463864
  outer loop
    vertex 1.5292276515592067 38.231232323032636 23.787327496666432
    vertex 0.5043382181243918 28.231232621050623 23.587389486313846
    vertex 1.5292276515592067 28.231232621050605 23.787327496665764
  endloop
endfacet
facet normal -0.19147307424594054 -6.560766842193302e-14 0.9814978664463864
  outer loop
    vertex 0.5043382181243918 28.231232621050623 23.587389486313846
    vertex 1.5292276515592067 38.231232323032636 23.787327496666432
    vertex 0.5043382181243918 38.23123232303266 23.587389486314514
  endloop
endfacet
facet normal -0.38268344613172733 0.9238795268089587 6.065549285900062e-14
  outer loop
    vertex -5.499999983102769 37.09725779387019 37.500000009125884
    vertex -5.258819030060613 37.1971582201258 31.500000012679855
    vertex -5.499999983469486 37.09725779402736 31.50000001267985
  endloop
endfacet
facet normal -0.38268344613172733 0.9238795268089587 6.065549285900062e-14
  outer loop
    vertex -5.258819030060613 37.1971582201258 31.500000012679855
    vertex -5.499999983102769 37.09725779387019 37.500000009125884
    vertex -5.258819029693896 37.197158219968635 37.50000000912589
  endloop
endfacet
facet normal 0.5586318878704274 -5.544182264988679e-14 0.8294157062983086
  outer loop
    vertex -1.5249260102407975 38.231232323032614 23.998818423526505
    vertex -2.3910098015257875 28.23123262105055 24.582147168937247
    vertex -1.5249260102407975 28.23123262105059 23.998818423525837
  endloop
endfacet
facet normal 0.5586318878704274 -5.544182264988679e-14 0.8294157062983086
  outer loop
    vertex -2.3910098015257875 28.23123262105055 24.582147168937247
    vertex -1.5249260102407975 38.231232323032614 23.998818423526505
    vertex -2.3910098015257875 38.23123232303258 24.582147168937915
  endloop
endfacet
facet normal 0.991444859428853 0.1305262069934693 9.085394684768759e-15
  outer loop
    vertex -3.9999999705649314 36.231232412594274 31.500000012679788
    vertex -4.034074147765782 36.49005145703189 37.50000000912585
    vertex -3.9999999701982145 36.23123241243711 37.500000009125834
  endloop
endfacet
facet normal 0.991444859428853 0.1305262069934693 9.085394684768759e-15
  outer loop
    vertex -4.034074147765782 36.49005145703189 37.50000000912585
    vertex -3.9999999705649314 36.231232412594274 31.500000012679788
    vertex -4.034074148132499 36.490051457189054 31.500000012679813
  endloop
endfacet
facet normal 0.7933533312201505 0.6087614408303881 4.048298816874685e-14
  outer loop
    vertex -4.133974574230947 36.73123241059793 31.50000001267982
    vertex -4.292893199548189 36.93833918925928 37.50000000912587
    vertex -4.133974573864229 36.73123241044077 37.500000009125856
  endloop
endfacet
facet normal 0.7933533312201505 0.6087614408303881 4.048298816874685e-14
  outer loop
    vertex -4.292893199548189 36.93833918925928 37.50000000912587
    vertex -4.133974574230947 36.73123241059793 31.50000001267982
    vertex -4.292893199914906 36.93833918941644 31.500000012679838
  endloop
endfacet
facet normal -0.13052620699345477 0.9914448594288549 6.522961113665926e-14
  outer loop
    vertex 5.000000014900887 37.23123254654518 37.5000000091259
    vertex 4.741180970600182 37.19715836931219 31.500000004972293
    vertex 4.74118097030611 37.19715836897762 37.50000000912589
  endloop
endfacet
facet normal -0.13052620699345477 0.9914448594288549 6.522961113665926e-14
  outer loop
    vertex 4.741180970600182 37.19715836931219 31.500000004972293
    vertex 5.000000014900887 37.23123254654518 37.5000000091259
    vertex 5.000000015194962 37.23123254687975 31.5000000049723
  endloop
endfacet
facet normal 0.06908155311068782 -6.668474276095745e-14 0.9976110158873625
  outer loop
    vertex 0.5043382181243918 28.231232621050623 23.587389486313846
    vertex -0.5373767196400456 38.23123232303264 23.659525102955996
    vertex -0.5373767196400456 28.231232621050612 23.659525102955328
  endloop
endfacet
facet normal 0.06908155311068782 -6.668474276095745e-14 0.9976110158873625
  outer loop
    vertex -0.5373767196400456 38.23123232303264 23.659525102955996
    vertex 0.5043382181243918 28.231232621050623 23.587389486313846
    vertex 0.5043382181243918 38.23123232303266 23.587389486314514
  endloop
endfacet
facet normal -0.8294157062983085 -3.7341288594058593e-14 0.5586318878704276
  outer loop
    vertex 3.2550583397344965 38.23123232303256 24.931309801883764
    vertex 3.8383870851458983 28.23123262105047 25.79739359316807
    vertex 3.8383870851458983 38.23123232303251 25.79739359316874
  endloop
endfacet
facet normal -0.8294157062983085 -3.7341288594058593e-14 0.5586318878704276
  outer loop
    vertex 3.8383870851458983 28.23123262105047 25.79739359316807
    vertex 3.2550583397344965 38.23123232303256 24.931309801883764
    vertex 3.2550583397344965 28.231232621050527 24.931309801883096
  endloop
endfacet
facet normal 0.7542655489798241 -4.388793823350447e-14 0.6565694796608844
  outer loop
    vertex -2.3910098015257875 28.23123262105055 24.582147168937247
    vertex -3.0766059143900724 38.231232323032536 25.36975844918674
    vertex -3.0766059143900724 28.231232621050506 25.369758449186076
  endloop
endfacet
facet normal 0.7542655489798241 -4.388793823350447e-14 0.6565694796608844
  outer loop
    vertex -3.0766059143900724 38.231232323032536 25.36975844918674
    vertex -2.3910098015257875 28.23123262105055 24.582147168937247
    vertex -2.3910098015257875 38.23123232303258 24.582147168937915
  endloop
endfacet
facet normal -0.6565694796608936 -5.041852938240204e-14 0.7542655489798162
  outer loop
    vertex 3.2550583397344965 38.23123232303256 24.931309801883764
    vertex 2.4674470594856794 28.231232621050573 24.245713689018796
    vertex 3.2550583397344965 28.231232621050527 24.931309801883096
  endloop
endfacet
facet normal -0.6565694796608936 -5.041852938240204e-14 0.7542655489798162
  outer loop
    vertex 2.4674470594856794 28.231232621050573 24.245713689018796
    vertex 3.2550583397344965 38.23123232303256 24.931309801883764
    vertex 2.4674470594856794 38.2312323230326 24.245713689019464
  endloop
endfacet
facet normal -0.9457386232257691 -2.172080673612235e-14 0.3249283867854991
  outer loop
    vertex 3.8383870851458983 38.23123232303251 25.79739359316874
    vertex 4.177680405716422 28.231232621050403 26.784942883768824
    vertex 4.177680405716422 38.23123232303244 26.784942883769492
  endloop
endfacet
facet normal -0.9457386232257691 -2.172080673612235e-14 0.3249283867854991
  outer loop
    vertex 4.177680405716422 28.231232621050403 26.784942883768824
    vertex 3.8383870851458983 38.23123232303251 25.79739359316874
    vertex 3.8383870851458983 28.23123262105047 25.79739359316807
  endloop
endfacet
facet normal -0.38268344613172256 0.9238795268089607 6.065549285900074e-14
  outer loop
    vertex 4.74118097030611 37.19715836897762 37.50000000912589
    vertex 4.500000017191304 37.09725794321375 31.50000000497229
    vertex 4.500000016897232 37.097257942879175 37.500000009125884
  endloop
endfacet
facet normal -0.38268344613172256 0.9238795268089607 6.065549285900074e-14
  outer loop
    vertex 4.500000017191304 37.09725794321375 31.50000000497229
    vertex 4.74118097030611 37.19715836897762 37.50000000912589
    vertex 4.741180970600182 37.19715836931219 31.500000004972293
  endloop
endfacet
facet normal -0.9976110158873622 -4.617877833033404e-15 0.06908155311069064
  outer loop
    vertex 4.177680405716422 38.23123232303244 26.784942883769492
    vertex 4.249816022357909 28.231232621050335 27.826657821533264
    vertex 4.249816022357909 38.23123232303237 27.826657821533928
  endloop
endfacet
facet normal -0.9976110158873622 -4.617877833033404e-15 0.06908155311069064
  outer loop
    vertex 4.249816022357909 28.231232621050335 27.826657821533264
    vertex 4.177680405716422 38.23123232303244 26.784942883769492
    vertex 4.177680405716422 28.231232621050403 26.784942883768824
  endloop
endfacet
facet normal 0.38268344613175054 -0.923879526808949 -6.065549285899997e-14
  outer loop
    vertex -4.499999957660377 35.36520700135939 31.50000001267973
    vertex -4.741180910702529 35.26530657510377 37.50000000912576
    vertex -4.741180911069247 35.26530657526094 31.500000012679724
  endloop
endfacet
facet normal 0.38268344613175054 -0.923879526808949 -6.065549285899997e-14
  outer loop
    vertex -4.741180910702529 35.26530657510377 37.50000000912576
    vertex -4.499999957660377 35.36520700135939 31.50000001267973
    vertex -4.49999995729366 35.36520700120222 37.50000000912576
  endloop
endfacet
facet normal 0.9238795382136094 -0.3826834185984649 -2.4746622967912295e-14
  outer loop
    vertex -4.133974559330038 35.73123241059794 31.500000012679763
    vertex -4.034074140052505 35.97241336682685 37.50000000912581
    vertex -4.13397455896332 35.731232410440775 37.5000000091258
  endloop
endfacet
facet normal 0.9238795382136094 -0.3826834185984649 -2.4746622967912295e-14
  outer loop
    vertex -4.034074140052505 35.97241336682685 37.50000000912581
    vertex -4.133974559330038 35.73123241059794 31.500000012679763
    vertex -4.034074140419222 35.972413366984014 31.500000012679774
  endloop
endfacet
facet normal -0.13052620699345197 0.9914448594288552 6.522961113665929e-14
  outer loop
    vertex -5.258819029693896 37.197158219968635 37.50000000912589
    vertex -4.999999985465828 37.23123239769336 31.500000012679855
    vertex -5.258819030060613 37.1971582201258 31.500000012679855
  endloop
endfacet
facet normal -0.13052620699345197 0.9914448594288552 6.522961113665929e-14
  outer loop
    vertex -4.999999985465828 37.23123239769336 31.500000012679855
    vertex -5.258819029693896 37.197158219968635 37.50000000912589
    vertex -4.999999985099111 37.2312323975362 37.50000000912589
  endloop
endfacet
facet normal 0.7933533493623305 -0.6087614171870389 -3.969995617753666e-14
  outer loop
    vertex -4.292893178475142 35.52412562688619 37.50000000912578
    vertex -4.133974559330038 35.73123241059794 31.500000012679763
    vertex -4.13397455896332 35.731232410440775 37.5000000091258
  endloop
endfacet
facet normal 0.7933533493623305 -0.6087614171870389 -3.969995617753666e-14
  outer loop
    vertex -4.133974559330038 35.73123241059794 31.500000012679763
    vertex -4.292893178475142 35.52412562688619 37.50000000912578
    vertex -4.292893178841858 35.52412562704335 31.50000001267974
  endloop
endfacet
facet normal -0.6087614408303913 0.7933533312201482 5.194780298094306e-14
  outer loop
    vertex 4.500000016897232 37.097257942879175 37.500000009125884
    vertex 4.292893238372787 36.93833931752978 31.500000004972282
    vertex 4.292893238078715 36.93833931719521 37.50000000912588
  endloop
endfacet
facet normal -0.6087614408303913 0.7933533312201482 5.194780298094306e-14
  outer loop
    vertex 4.292893238372787 36.93833931752978 31.500000004972282
    vertex 4.500000016897232 37.097257942879175 37.500000009125884
    vertex 4.500000017191304 37.09725794321375 31.50000000497229
  endloop
endfacet
facet normal -0.6087614171870431 -0.7933533493623272 -5.254864456024947e-14
  outer loop
    vertex -5.4999999576603775 35.365206986458475 31.50000001267973
    vertex -5.707106740848239 35.52412560581313 37.500000009125785
    vertex -5.7071067412149565 35.52412560597029 31.50000001267974
  endloop
endfacet
facet normal -0.6087614171870431 -0.7933533493623272 -5.254864456024947e-14
  outer loop
    vertex -5.707106740848239 35.52412560581313 37.500000009125785
    vertex -5.4999999576603775 35.365206986458475 31.50000001267973
    vertex -5.499999957293661 35.36520698630132 37.50000000912576
  endloop
endfacet
facet normal -0.3826834185984552 -0.9238795382136135 -6.103319766571154e-14
  outer loop
    vertex -5.258819001274293 35.26530656754766 31.500000012679724
    vertex -5.499999957293661 35.36520698630132 37.50000000912576
    vertex -5.4999999576603775 35.365206986458475 31.50000001267973
  endloop
endfacet
facet normal -0.3826834185984552 -0.9238795382136135 -6.103319766571154e-14
  outer loop
    vertex -5.499999957293661 35.36520698630132 37.50000000912576
    vertex -5.258819001274293 35.26530656754766 31.500000012679724
    vertex -5.258819000907576 35.265306567390496 37.50000000912576
  endloop
endfacet
facet normal -0.9238795268089672 -0.38268344613170685 -2.5658483034845352e-14
  outer loop
    vertex -5.965925792630644 35.97241333804052 37.500000009125806
    vertex -5.8660253668989215 35.731232384788804 31.500000012679763
    vertex -5.866025366532205 35.73123238463164 37.5000000091258
  endloop
endfacet
facet normal -0.9238795268089672 -0.38268344613170685 -2.5658483034845352e-14
  outer loop
    vertex -5.8660253668989215 35.731232384788804 31.500000012679763
    vertex -5.965925792630644 35.97241333804052 37.500000009125806
    vertex -5.965925792997361 35.97241333819768 31.500000012679774
  endloop
endfacet
facet normal 0.6087614408303886 -0.7933533312201502 -5.1947802980943184e-14
  outer loop
    vertex -4.292893178841858 35.52412562704335 31.50000001267974
    vertex -4.49999995729366 35.36520700120222 37.50000000912576
    vertex -4.499999957660377 35.36520700135939 31.50000001267973
  endloop
endfacet
facet normal 0.6087614408303886 -0.7933533312201502 -5.1947802980943184e-14
  outer loop
    vertex -4.49999995729366 35.36520700120222 37.50000000912576
    vertex -4.292893178841858 35.52412562704335 31.50000001267974
    vertex -4.292893178475142 35.52412562688619 37.50000000912578
  endloop
endfacet
facet normal 0.9238795268089557 0.38268344613173444 2.5658483034847167e-14
  outer loop
    vertex -4.034074148132499 36.490051457189054 31.500000012679813
    vertex -4.133974573864229 36.73123241044077 37.500000009125856
    vertex -4.034074147765782 36.49005145703189 37.50000000912585
  endloop
endfacet
facet normal 0.9238795268089557 0.38268344613173444 2.5658483034847167e-14
  outer loop
    vertex -4.133974573864229 36.73123241044077 37.500000009125856
    vertex -4.034074148132499 36.490051457189054 31.500000012679813
    vertex -4.133974574230947 36.73123241059793 31.50000001267982
  endloop
endfacet
facet normal 0.9914448633187704 -0.1305261774466137 -8.106848298749972e-15
  outer loop
    vertex -4.034074140419222 35.972413366984014 31.500000012679774
    vertex -3.9999999701982145 36.23123241243711 37.500000009125834
    vertex -4.034074140052505 35.97241336682685 37.50000000912581
  endloop
endfacet
facet normal 0.9914448633187704 -0.1305261774466137 -8.106848298749972e-15
  outer loop
    vertex -3.9999999701982145 36.23123241243711 37.500000009125834
    vertex -4.034074140419222 35.972413366984014 31.500000012679774
    vertex -3.9999999705649314 36.231232412594274 31.500000012679788
  endloop
endfacet
facet normal -0.7933533493623287 0.608761417187041 3.96999561775368e-14
  outer loop
    vertex -5.7071067619212865 36.938339168186225 37.50000000912587
    vertex -5.866025381799816 36.73123238478881 31.50000001267982
    vertex -5.866025381433099 36.73123238463165 37.50000000912586
  endloop
endfacet
facet normal -0.7933533493623287 0.608761417187041 3.96999561775368e-14
  outer loop
    vertex -5.866025381799816 36.73123238478881 31.50000001267982
    vertex -5.7071067619212865 36.938339168186225 37.50000000912587
    vertex -5.707106762288003 36.93833916834339 31.500000012679838
  endloop
endfacet
facet normal 0.3826834185984329 0.9238795382136226 6.103319766571214e-14
  outer loop
    vertex 5.500000016897233 37.09725795778007 37.50000000912589
    vertex 5.258819060805219 37.19715837702546 31.5000000049723
    vertex 5.2588190605111444 37.197158376690886 37.5000000091259
  endloop
endfacet
facet normal 0.3826834185984329 0.9238795382136226 6.103319766571214e-14
  outer loop
    vertex 5.258819060805219 37.19715837702546 31.5000000049723
    vertex 5.500000016897233 37.09725795778007 37.50000000912589
    vertex 5.500000017191308 37.097257958114646 31.500000004972293
  endloop
endfacet
facet normal -0.6087614408303913 0.7933533312201482 5.194780298094306e-14
  outer loop
    vertex -5.7071067619212865 36.938339168186225 37.50000000912587
    vertex -5.499999983469486 37.09725779402736 31.50000001267985
    vertex -5.707106762288003 36.93833916834339 31.500000012679838
  endloop
endfacet
facet normal -0.6087614408303913 0.7933533312201482 5.194780298094306e-14
  outer loop
    vertex -5.499999983469486 37.09725779402736 31.50000001267985
    vertex -5.7071067619212865 36.938339168186225 37.50000000912587
    vertex -5.499999983102769 37.09725779387019 37.500000009125884
  endloop
endfacet
facet normal 0.13052620699347428 -0.9914448594288523 -6.522961113665909e-14
  outer loop
    vertex -4.741180911069247 35.26530657526094 31.500000012679724
    vertex -4.999999955297312 35.2312323975362 37.50000000912576
    vertex -4.9999999556640295 35.23123239769337 31.500000012679724
  endloop
endfacet
facet normal 0.13052620699347428 -0.9914448594288523 -6.522961113665909e-14
  outer loop
    vertex -4.999999955297312 35.2312323975362 37.50000000912576
    vertex -4.741180911069247 35.26530657526094 31.500000012679724
    vertex -4.741180910702529 35.26530657510377 37.50000000912576
  endloop
endfacet
facet normal -0.13052617744662684 -0.9914448633187686 -6.53584392123835e-14
  outer loop
    vertex -4.9999999556640295 35.23123239769337 31.500000012679724
    vertex -5.258819000907576 35.265306567390496 37.50000000912576
    vertex -5.258819001274293 35.26530656754766 31.500000012679724
  endloop
endfacet
facet normal -0.13052617744662684 -0.9914448633187686 -6.53584392123835e-14
  outer loop
    vertex -5.258819000907576 35.265306567390496 37.50000000912576
    vertex -4.9999999556640295 35.23123239769337 31.500000012679724
    vertex -4.999999955297312 35.2312323975362 37.50000000912576
  endloop
endfacet
facet normal -0.7933533312201401 -0.6087614408304016 -4.048298816874773e-14
  outer loop
    vertex -5.8660253668989215 35.731232384788804 31.500000012679763
    vertex -5.707106740848239 35.52412560581313 37.500000009125785
    vertex -5.866025366532205 35.73123238463164 37.5000000091258
  endloop
endfacet
facet normal -0.7933533312201401 -0.6087614408304016 -4.048298816874773e-14
  outer loop
    vertex -5.707106740848239 35.52412560581313 37.500000009125785
    vertex -5.8660253668989215 35.731232384788804 31.500000012679763
    vertex -5.7071067412149565 35.52412560597029 31.50000001267974
  endloop
endfacet
facet normal -0.991444859428853 -0.13052620699346917 -9.08539468476875e-15
  outer loop
    vertex -5.999999970564929 36.23123238279247 31.500000012679788
    vertex -5.965925792630644 35.97241333804052 37.500000009125806
    vertex -5.999999970198211 36.231232382635305 37.500000009125834
  endloop
endfacet
facet normal -0.991444859428853 -0.13052620699346917 -9.08539468476875e-15
  outer loop
    vertex -5.965925792630644 35.97241333804052 37.500000009125806
    vertex -5.999999970564929 36.23123238279247 31.500000012679788
    vertex -5.965925792997361 35.97241333819768 31.500000012679774
  endloop
endfacet
facet normal -0.9914448633187662 0.13052617744664516 8.106848298752043e-15
  outer loop
    vertex -5.965925800710627 36.490051428402744 31.500000012679813
    vertex -5.999999970198211 36.231232382635305 37.500000009125834
    vertex -5.965925800343911 36.49005142824558 37.50000000912585
  endloop
endfacet
facet normal -0.9914448633187662 0.13052617744664516 8.106848298752043e-15
  outer loop
    vertex -5.999999970198211 36.231232382635305 37.500000009125834
    vertex -5.965925800710627 36.490051428402744 31.500000012679813
    vertex -5.999999970564929 36.23123238279247 31.500000012679788
  endloop
endfacet
facet normal 0.13052617744662967 0.9914448633187684 6.535843921238349e-14
  outer loop
    vertex 5.2588190605111444 37.197158376690886 37.5000000091259
    vertex 5.000000015194962 37.23123254687975 31.5000000049723
    vertex 5.000000014900887 37.23123254654518 37.5000000091259
  endloop
endfacet
facet normal 0.13052617744662967 0.9914448633187684 6.535843921238349e-14
  outer loop
    vertex 5.000000015194962 37.23123254687975 31.5000000049723
    vertex 5.2588190605111444 37.197158376690886 37.5000000091259
    vertex 5.258819060805219 37.19715837702546 31.5000000049723
  endloop
endfacet
facet normal -0.9238795382136119 0.3826834185984587 2.4746622967911888e-14
  outer loop
    vertex -5.866025381799816 36.73123238478881 31.50000001267982
    vertex -5.965925800343911 36.49005142824558 37.50000000912585
    vertex -5.866025381433099 36.73123238463165 37.50000000912586
  endloop
endfacet
facet normal -0.9238795382136119 0.3826834185984587 2.4746622967911888e-14
  outer loop
    vertex -5.965925800343911 36.49005142824558 37.50000000912585
    vertex -5.866025381799816 36.73123238478881 31.50000001267982
    vertex -5.965925800710627 36.490051428402744 31.500000012679813
  endloop
endfacet
facet normal 0.6087614171870264 0.7933533493623403 5.254864456025032e-14
  outer loop
    vertex 5.707106800451808 36.93833933826827 37.50000000912587
    vertex 5.500000017191308 37.097257958114646 31.500000004972293
    vertex 5.500000016897233 37.09725795778007 37.50000000912589
  endloop
endfacet
facet normal 0.6087614171870264 0.7933533493623403 5.254864456025032e-14
  outer loop
    vertex 5.500000017191308 37.097257958114646 31.500000004972293
    vertex 5.707106800451808 36.93833933826827 37.50000000912587
    vertex 5.70710680074588 36.938339338602844 31.500000004972275
  endloop
endfacet
facet normal 0.7933533312201456 0.6087614408303944 4.048298816874727e-14
  outer loop
    vertex 5.866025426429851 36.731232559784324 31.500000004972264
    vertex 5.707106800451808 36.93833933826827 37.50000000912587
    vertex 5.866025426135779 36.73123255944975 37.50000000912586
  endloop
endfacet
facet normal 0.7933533312201456 0.6087614408303944 4.048298816874727e-14
  outer loop
    vertex 5.707106800451808 36.93833933826827 37.50000000912587
    vertex 5.866025426429851 36.731232559784324 31.500000004972264
    vertex 5.70710680074588 36.938339338602844 31.500000004972275
  endloop
endfacet
facet normal 0.9238795268089601 0.38268344613172367 2.5658483034846457e-14
  outer loop
    vertex 5.965925852528291 36.490051606375445 31.50000000497226
    vertex 5.866025426135779 36.73123255944975 37.50000000912586
    vertex 5.96592585223422 36.49005160604088 37.500000009125856
  endloop
endfacet
facet normal 0.9238795268089601 0.38268344613172367 2.5658483034846457e-14
  outer loop
    vertex 5.866025426135779 36.73123255944975 37.50000000912586
    vertex 5.965925852528291 36.490051606375445 31.50000000497226
    vertex 5.866025426429851 36.731232559784324 31.500000004972264
  endloop
endfacet
facet normal 0.13052617744665157 0.9914448633187652 6.535843921238331e-14
  outer loop
    vertex -4.999999985099111 37.2312323975362 37.50000000912589
    vertex -4.741180939855572 37.19715822783906 31.500000012679855
    vertex -4.999999985465828 37.23123239769336 31.500000012679855
  endloop
endfacet
facet normal 0.13052617744665157 0.9914448633187652 6.535843921238331e-14
  outer loop
    vertex -4.741180939855572 37.19715822783906 31.500000012679855
    vertex -4.999999985099111 37.2312323975362 37.50000000912589
    vertex -4.741180939488855 37.197158227681896 37.50000000912589
  endloop
endfacet
facet normal -0.7933545546290998 0.608759846449536 2.3345037460925234e-08
  outer loop
    vertex 4.292893238372787 36.93833931752978 31.500000004972282
    vertex 4.249816309168898 36.8821999084461 37.5000000010374
    vertex 4.292893238078715 36.93833931719521 37.50000000912588
  endloop
endfacet
facet normal -0.7933545546290998 0.608759846449536 2.3345037460925234e-08
  outer loop
    vertex 4.249816309168898 36.8821999084461 37.5000000010374
    vertex 4.292893238372787 36.93833931752978 31.500000004972282
    vertex 4.249815964441353 36.88219991941743 31.499999992899312
  endloop
endfacet
facet normal 0.9914448594288512 0.13052620699348272 9.08539468476964e-15
  outer loop
    vertex 6.000000030095863 36.23123256178067 31.500000004972232
    vertex 5.96592585223422 36.49005160604088 37.500000009125856
    vertex 6.000000029801791 36.2312325614461 37.50000000912584
  endloop
endfacet
facet normal 0.9914448594288512 0.13052620699348272 9.08539468476964e-15
  outer loop
    vertex 5.96592585223422 36.49005160604088 37.500000009125856
    vertex 6.000000030095863 36.23123256178067 31.500000004972232
    vertex 5.965925852528291 36.490051606375445 31.50000000497226
  endloop
endfacet
facet normal 0.9914448633187684 -0.13052617744662967 -8.106848298751022e-15
  outer loop
    vertex 5.965925860241568 35.97241351617041 31.50000000497222
    vertex 6.000000029801791 36.2312325614461 37.50000000912584
    vertex 5.965925859947496 35.97241351583584 37.50000000912582
  endloop
endfacet
facet normal 0.9914448633187684 -0.13052617744662967 -8.106848298751022e-15
  outer loop
    vertex 6.000000029801791 36.2312325614461 37.50000000912584
    vertex 5.965925860241568 35.97241351617041 31.50000000497222
    vertex 6.000000030095863 36.23123256178067 31.500000004972232
  endloop
endfacet
facet normal 0.9238795382136145 -0.3826834185984527 -2.4746622967911487e-14
  outer loop
    vertex 5.866025441330754 35.73123255978433 31.500000004972208
    vertex 5.965925859947496 35.97241351583584 37.50000000912582
    vertex 5.86602544103668 35.731232559449765 37.500000009125806
  endloop
endfacet
facet normal 0.9238795382136145 -0.3826834185984527 -2.4746622967911487e-14
  outer loop
    vertex 5.965925859947496 35.97241351583584 37.50000000912582
    vertex 5.866025441330754 35.73123255978433 31.500000004972208
    vertex 5.965925860241568 35.97241351617041 31.50000000497222
  endloop
endfacet
facet normal 0.793353349362358 -0.6087614171870033 -3.9699956177534294e-14
  outer loop
    vertex 5.707106821524876 35.52412577589517 37.500000009125785
    vertex 5.866025441330754 35.73123255978433 31.500000004972208
    vertex 5.86602544103668 35.731232559449765 37.500000009125806
  endloop
endfacet
facet normal 0.793353349362358 -0.6087614171870033 -3.9699956177534294e-14
  outer loop
    vertex 5.866025441330754 35.73123255978433 31.500000004972208
    vertex 5.707106821524876 35.52412577589517 37.500000009125785
    vertex 5.707106821818948 35.524125776229745 31.500000004972186
  endloop
endfacet
facet normal 0.6087614408303924 -0.7933533312201474 -5.194780298094301e-14
  outer loop
    vertex 5.500000043000417 35.36520715054577 31.500000004972176
    vertex 5.707106821524876 35.52412577589517 37.500000009125785
    vertex 5.5000000427063425 35.3652071502112 37.50000000912577
  endloop
endfacet
facet normal 0.6087614408303924 -0.7933533312201474 -5.194780298094301e-14
  outer loop
    vertex 5.707106821524876 35.52412577589517 37.500000009125785
    vertex 5.500000043000417 35.36520715054577 31.500000004972176
    vertex 5.707106821818948 35.524125776229745 31.500000004972186
  endloop
endfacet
facet normal 0.3826834461317254 -0.9238795268089595 -6.065549285900067e-14
  outer loop
    vertex 5.258819089591541 35.26530672444733 31.50000000497217
    vertex 5.5000000427063425 35.3652071502112 37.50000000912577
    vertex 5.25881908929747 35.265306724112754 37.50000000912577
  endloop
endfacet
facet normal 0.3826834461317254 -0.9238795268089595 -6.065549285900067e-14
  outer loop
    vertex 5.5000000427063425 35.3652071502112 37.50000000912577
    vertex 5.258819089591541 35.26530672444733 31.50000000497217
    vertex 5.500000043000417 35.36520715054577 31.500000004972176
  endloop
endfacet
facet normal 0.13052620699349587 -0.9914448594288495 -6.522961113665888e-14
  outer loop
    vertex 5.000000044996759 35.23123254687975 31.50000000497217
    vertex 5.25881908929747 35.265306724112754 37.50000000912577
    vertex 5.000000044702688 35.23123254654518 37.50000000912576
  endloop
endfacet
facet normal 0.13052620699349587 -0.9914448594288495 -6.522961113665888e-14
  outer loop
    vertex 5.25881908929747 35.265306724112754 37.50000000912577
    vertex 5.000000044996759 35.23123254687975 31.50000000497217
    vertex 5.258819089591541 35.26530672444733 31.50000000497217
  endloop
endfacet
facet normal -0.13052617744662862 -0.9914448633187685 -6.53584392123835e-14
  outer loop
    vertex 4.741180999386499 35.265306716734045 31.50000000497217
    vertex 5.000000044702688 35.23123254654518 37.50000000912576
    vertex 4.7411809990924265 35.26530671639947 37.50000000912576
  endloop
endfacet
facet normal -0.13052617744662862 -0.9914448633187685 -6.53584392123835e-14
  outer loop
    vertex 5.000000044702688 35.23123254654518 37.50000000912576
    vertex 4.741180999386499 35.265306716734045 31.50000000497217
    vertex 5.000000044996759 35.23123254687975 31.50000000497217
  endloop
endfacet
facet normal -0.38268341859847843 -0.9238795382136038 -6.103319766571091e-14
  outer loop
    vertex 4.500000043000418 35.365207135644866 31.500000004972176
    vertex 4.7411809990924265 35.26530671639947 37.50000000912576
    vertex 4.500000042706344 35.36520713531029 37.50000000912577
  endloop
endfacet
facet normal -0.38268341859847843 -0.9238795382136038 -6.103319766571091e-14
  outer loop
    vertex 4.7411809990924265 35.26530671639947 37.50000000912576
    vertex 4.500000043000418 35.365207135644866 31.500000004972176
    vertex 4.741180999386499 35.265306716734045 31.50000000497217
  endloop
endfacet
facet normal -0.6087614171870366 -0.7933533493623323 -5.25486445602498e-14
  outer loop
    vertex 4.292893259445835 35.52412575515668 31.500000004972186
    vertex 4.500000042706344 35.36520713531029 37.50000000912577
    vertex 4.2928932591517635 35.52412575482211 37.50000000912579
  endloop
endfacet
facet normal -0.6087614171870366 -0.7933533493623323 -5.25486445602498e-14
  outer loop
    vertex 4.500000042706344 35.36520713531029 37.50000000912577
    vertex 4.292893259445835 35.52412575515668 31.500000004972186
    vertex 4.500000043000418 35.365207135644866 31.500000004972176
  endloop
endfacet
facet normal -0.7933533312201559 -0.608761440830381 -4.1305768386672284e-14
  outer loop
    vertex 4.249816252307633 35.58026524039953 37.499999996953626
    vertex 4.292893259445835 35.52412575515668 31.500000004972186
    vertex 4.2928932591517635 35.52412575482211 37.50000000912579
  endloop
endfacet
facet normal -0.7933533312201559 -0.608761440830381 -4.1305768386672284e-14
  outer loop
    vertex 4.292893259445835 35.52412575515668 31.500000004972186
    vertex 4.249816252307633 35.58026524039953 37.499999996953626
    vertex 4.249815907580085 35.58026525137086 31.499999988815542
  endloop
endfacet
facet normal 4.987389644133791e-10 1.0 -1.784395345327938e-09
  outer loop
    vertex -3.7349301174617553 38.23123236986646 31.500000012679923
    vertex -10.000000000000004 38.23123232303245 26.500000009125955
    vertex -10.000000000000004 38.23123232303211 31.50000000912596
  endloop
endfacet
facet normal 4.987389644133791e-10 1.0 -1.784395345327938e-09
  outer loop
    vertex -10.000000000000004 38.23123232303245 26.500000009125955
    vertex -3.7349301174617553 38.23123236986646 31.500000012679923
    vertex -7.000000000000001 38.23123232303273 22.500000009125955
  endloop
endfacet
facet normal 4.987389644133791e-10 1.0 -1.784395345327938e-09
  outer loop
    vertex -7.000000000000001 38.23123232303273 22.500000009125955
    vertex -3.7349301174617553 38.23123236986646 31.500000012679923
    vertex -3.734930117095034 38.2312323230324 27.33286729054801
  endloop
endfacet
facet normal 4.987389644133791e-10 1.0 -1.784395345327938e-09
  outer loop
    vertex -7.000000000000001 38.23123232303273 22.500000009125955
    vertex -3.734930117095034 38.2312323230324 27.33286729054801
    vertex -3.5349921067431094 38.23123232303247 26.307977857113208
  endloop
endfacet
facet normal 4.987389644133791e-10 1.0 -1.784395345327938e-09
  outer loop
    vertex -7.000000000000001 38.23123232303273 22.500000009125955
    vertex -3.5349921067431094 38.23123232303247 26.307977857113208
    vertex -3.0766059143900724 38.231232323032536 25.36975844918674
  endloop
endfacet
facet normal 4.987389644133791e-10 1.0 -1.784395345327938e-09
  outer loop
    vertex -7.000000000000001 38.23123232303273 22.500000009125955
    vertex -3.0766059143900724 38.231232323032536 25.36975844918674
    vertex -2.3910098015257875 38.23123232303258 24.582147168937915
  endloop
endfacet
facet normal 4.987389644133791e-10 1.0 -1.784395345327938e-09
  outer loop
    vertex -7.000000000000001 38.23123232303273 22.500000009125955
    vertex -2.3910098015257875 38.23123232303258 24.582147168937915
    vertex -1.5249260102407975 38.231232323032614 23.998818423526505
  endloop
endfacet
facet normal 4.987389644133791e-10 1.0 -1.784395345327938e-09
  outer loop
    vertex -7.000000000000001 38.23123232303273 22.500000009125955
    vertex -1.5249260102407975 38.231232323032614 23.998818423526505
    vertex -0.5373767196400456 38.23123232303264 23.659525102955996
  endloop
endfacet
facet normal 4.987389644133791e-10 1.0 -1.784395345327938e-09
  outer loop
    vertex -7.000000000000001 38.23123232303273 22.500000009125955
    vertex -0.5373767196400456 38.23123232303264 23.659525102955996
    vertex 7.000000149008975 38.23123232303273 22.500000009125955
  endloop
endfacet
facet normal 4.987389644133791e-10 1.0 -1.784395345327938e-09
  outer loop
    vertex 7.000000149008975 38.23123232303273 22.500000009125955
    vertex -0.5373767196400456 38.23123232303264 23.659525102955996
    vertex 0.5043382181243918 38.23123232303266 23.587389486314514
  endloop
endfacet
facet normal 4.987389644133791e-10 1.0 -1.784395345327938e-09
  outer loop
    vertex 7.000000149008975 38.23123232303273 22.500000009125955
    vertex 0.5043382181243918 38.23123232303266 23.587389486314514
    vertex 1.5292276515592067 38.231232323032636 23.787327496666432
  endloop
endfacet
facet normal 4.987389644133791e-10 1.0 -1.784395345327938e-09
  outer loop
    vertex 7.000000149008975 38.23123232303273 22.500000009125955
    vertex 1.5292276515592067 38.231232323032636 23.787327496666432
    vertex 2.4674470594856794 38.2312323230326 24.245713689019464
  endloop
endfacet
facet normal 4.987389644133791e-10 1.0 -1.784395345327938e-09
  outer loop
    vertex 7.000000149008975 38.23123232303273 22.500000009125955
    vertex 2.4674470594856794 38.2312323230326 24.245713689019464
    vertex 3.2550583397344965 38.23123232303256 24.931309801883764
  endloop
endfacet
facet normal 4.987389644133791e-10 1.0 -1.784395345327938e-09
  outer loop
    vertex 7.000000149008975 38.23123232303273 22.500000009125955
    vertex 3.2550583397344965 38.23123232303256 24.931309801883764
    vertex 3.8383870851458983 38.23123232303251 25.79739359316874
  endloop
endfacet
facet normal 4.987389644133791e-10 1.0 -1.784395345327938e-09
  outer loop
    vertex 7.000000149008975 38.23123232303273 22.500000009125955
    vertex 3.8383870851458983 38.23123232303251 25.79739359316874
    vertex 4.177680405716422 38.23123232303244 26.784942883769492
  endloop
endfacet
facet normal 4.987389644133791e-10 1.0 -1.784395345327938e-09
  outer loop
    vertex 7.000000149008975 38.23123232303273 22.500000009125955
    vertex 4.177680405716422 38.23123232303244 26.784942883769492
    vertex 4.249816022357909 38.23123232303237 27.826657821533928
  endloop
endfacet
facet normal 4.987389644133791e-10 1.0 -1.784395345327938e-09
  outer loop
    vertex 7.000000149008975 38.23123232303273 22.500000009125955
    vertex 4.249816022357909 38.23123232303237 27.826657821533928
    vertex 4.249816022651973 38.23123219664284 31.500000004972343
  endloop
endfacet
facet normal 4.987389644133791e-10 1.0 -1.784395345327938e-09
  outer loop
    vertex 7.000000149008975 38.23123232303273 22.500000009125955
    vertex 4.249816022651973 38.23123219664284 31.500000004972343
    vertex 9.999999999999995 38.23123232303212 31.50000000912596
  endloop
endfacet
facet normal 4.987389644133791e-10 1.0 -1.784395345327938e-09
  outer loop
    vertex 7.000000149008975 38.23123232303273 22.500000009125955
    vertex 9.999999999999995 38.23123232303212 31.50000000912596
    vertex 10.000000149008974 38.23123232303245 26.500000009125955
  endloop
endfacet
facet normal -0.9999999999999996 2.228896493107925e-08 2.603745428567135e-08
  outer loop
    vertex 4.249816022357909 38.23123232303237 27.826657821533928
    vertex 4.249815964441353 36.88219991941743 31.499999992899312
    vertex 4.249816022651973 38.23123219664284 31.500000004972343
  endloop
endfacet
facet normal -0.9999999999999996 2.228896493107925e-08 2.603745428567135e-08
  outer loop
    vertex 4.249815964441353 36.88219991941743 31.499999992899312
    vertex 4.249816022357909 38.23123232303237 27.826657821533928
    vertex 4.249815907580085 35.58026525137086 31.499999988815542
  endloop
endfacet
facet normal -0.9999999999999996 2.228896493107925e-08 2.603745428567135e-08
  outer loop
    vertex 4.249815907580085 35.58026525137086 31.499999988815542
    vertex 4.249816022357909 38.23123232303237 27.826657821533928
    vertex 4.2498155866152025 28.231232622489127 31.499999926556132
  endloop
endfacet
facet normal -0.9999999999999996 2.228896493107925e-08 2.603745428567135e-08
  outer loop
    vertex 4.2498155866152025 28.231232622489127 31.499999926556132
    vertex 4.249816022357909 38.23123232303237 27.826657821533928
    vertex 4.249816022357909 28.231232621050335 27.826657821533264
  endloop
endfacet
facet normal -0.9999999999999996 2.228896493107925e-08 2.603745428567135e-08
  outer loop
    vertex 4.249815964441353 36.88219991941743 31.499999992899312
    vertex 4.249816252307633 35.58026524039953 37.499999996953626
    vertex 4.249816309168898 36.8821999084461 37.5000000010374
  endloop
endfacet
facet normal -0.9999999999999996 2.228896493107925e-08 2.603745428567135e-08
  outer loop
    vertex 4.249816252307633 35.58026524039953 37.499999996953626
    vertex 4.249815964441353 36.88219991941743 31.499999992899312
    vertex 4.249815907580085 35.58026525137086 31.499999988815542
  endloop
endfacet
facet normal 5.083773529244429e-09 -2.1731865344023562e-09 1.0
  outer loop
    vertex -3.734930019123854 28.231232708620514 31.50000013011209
    vertex -4.741180911069247 35.26530657526094 31.500000012679724
    vertex -4.9999999556640295 35.23123239769337 31.500000012679724
  endloop
endfacet
facet normal 5.083773529244429e-09 -2.1731865344023562e-09 1.0
  outer loop
    vertex -4.741180911069247 35.26530657526094 31.500000012679724
    vertex -3.734930019123854 28.231232708620514 31.50000013011209
    vertex -4.499999957660377 35.36520700135939 31.50000001267973
  endloop
endfacet
facet normal 5.083773529244429e-09 -2.1731865344023562e-09 1.0
  outer loop
    vertex -4.499999957660377 35.36520700135939 31.50000001267973
    vertex -3.734930019123854 28.231232708620514 31.50000013011209
    vertex -4.292893178841858 35.52412562704335 31.50000001267974
  endloop
endfacet
facet normal 5.083773529244429e-09 -2.1731865344023562e-09 1.0
  outer loop
    vertex -4.292893178841858 35.52412562704335 31.50000001267974
    vertex -3.734930019123854 28.231232708620514 31.50000013011209
    vertex -4.133974559330038 35.73123241059794 31.500000012679763
  endloop
endfacet
facet normal 5.083773529244429e-09 -2.1731865344023562e-09 1.0
  outer loop
    vertex -4.133974559330038 35.73123241059794 31.500000012679763
    vertex -3.734930019123854 28.231232708620514 31.50000013011209
    vertex -4.034074140419222 35.972413366984014 31.500000012679774
  endloop
endfacet
facet normal 5.083773529244429e-09 -2.1731865344023562e-09 1.0
  outer loop
    vertex -4.034074140419222 35.972413366984014 31.500000012679774
    vertex -3.734930019123854 28.231232708620514 31.50000013011209
    vertex -3.7349301174617553 38.23123236986646 31.500000012679923
  endloop
endfacet
facet normal 5.083773529244429e-09 -2.1731865344023562e-09 1.0
  outer loop
    vertex -4.034074140419222 35.972413366984014 31.500000012679774
    vertex -3.7349301174617553 38.23123236986646 31.500000012679923
    vertex -3.9999999705649314 36.231232412594274 31.500000012679788
  endloop
endfacet
facet normal 5.083773529244429e-09 -2.1731865344023562e-09 1.0
  outer loop
    vertex -3.9999999705649314 36.231232412594274 31.500000012679788
    vertex -3.7349301174617553 38.23123236986646 31.500000012679923
    vertex -4.034074148132499 36.490051457189054 31.500000012679813
  endloop
endfacet
facet normal 5.083773529244429e-09 -2.1731865344023562e-09 1.0
  outer loop
    vertex -4.034074148132499 36.490051457189054 31.500000012679813
    vertex -3.7349301174617553 38.23123236986646 31.500000012679923
    vertex -4.133974574230947 36.73123241059793 31.50000001267982
  endloop
endfacet
facet normal 5.083773529244429e-09 -2.1731865344023562e-09 1.0
  outer loop
    vertex -4.133974574230947 36.73123241059793 31.50000001267982
    vertex -3.7349301174617553 38.23123236986646 31.500000012679923
    vertex -4.292893199914906 36.93833918941644 31.500000012679838
  endloop
endfacet
facet normal 5.083773529244429e-09 -2.1731865344023562e-09 1.0
  outer loop
    vertex -4.292893199914906 36.93833918941644 31.500000012679838
    vertex -3.7349301174617553 38.23123236986646 31.500000012679923
    vertex -4.499999983469489 37.097257808928255 31.50000001267984
  endloop
endfacet
facet normal 5.083773529244429e-09 -2.1731865344023562e-09 1.0
  outer loop
    vertex -4.499999983469489 37.097257808928255 31.50000001267984
    vertex -3.7349301174617553 38.23123236986646 31.500000012679923
    vertex -4.741180939855572 37.19715822783906 31.500000012679855
  endloop
endfacet
facet normal 5.083773529244429e-09 -2.1731865344023562e-09 1.0
  outer loop
    vertex -4.741180939855572 37.19715822783906 31.500000012679855
    vertex -3.7349301174617553 38.23123236986646 31.500000012679923
    vertex -4.999999985465828 37.23123239769336 31.500000012679855
  endloop
endfacet
facet normal 5.083773529244429e-09 -2.1731865344023562e-09 1.0
  outer loop
    vertex -4.999999985465828 37.23123239769336 31.500000012679855
    vertex -3.7349301174617553 38.23123236986646 31.500000012679923
    vertex -10.000000000000004 38.23123232303211 31.50000000912596
  endloop
endfacet
facet normal 5.083773529244429e-09 -2.1731865344023562e-09 1.0
  outer loop
    vertex -3.734930019123854 28.231232708620514 31.50000013011209
    vertex -10.000000000000004 38.23123232303211 31.50000000912596
    vertex -9.999999850991031 28.231232621050083 31.500000009125316
  endloop
endfacet
facet normal 5.083773529244429e-09 -2.1731865344023562e-09 1.0
  outer loop
    vertex -10.000000000000004 38.23123232303211 31.50000000912596
    vertex -3.734930019123854 28.231232708620514 31.50000013011209
    vertex -5.4999999576603775 35.365206986458475 31.50000001267973
  endloop
endfacet
facet normal 5.083773529244429e-09 -2.1731865344023562e-09 1.0
  outer loop
    vertex -5.4999999576603775 35.365206986458475 31.50000001267973
    vertex -3.734930019123854 28.231232708620514 31.50000013011209
    vertex -5.258819001274293 35.26530656754766 31.500000012679724
  endloop
endfacet
facet normal 5.083773529244429e-09 -2.1731865344023562e-09 1.0
  outer loop
    vertex -5.258819001274293 35.26530656754766 31.500000012679724
    vertex -3.734930019123854 28.231232708620514 31.50000013011209
    vertex -4.9999999556640295 35.23123239769337 31.500000012679724
  endloop
endfacet
facet normal 5.083773529244429e-09 -2.1731865344023562e-09 1.0
  outer loop
    vertex -10.000000000000004 38.23123232303211 31.50000000912596
    vertex -5.4999999576603775 35.365206986458475 31.50000001267973
    vertex -5.7071067412149565 35.52412560597029 31.50000001267974
  endloop
endfacet
facet normal 5.083773529244429e-09 -2.1731865344023562e-09 1.0
  outer loop
    vertex -10.000000000000004 38.23123232303211 31.50000000912596
    vertex -5.7071067412149565 35.52412560597029 31.50000001267974
    vertex -5.8660253668989215 35.731232384788804 31.500000012679763
  endloop
endfacet
facet normal 5.083773529244429e-09 -2.1731865344023562e-09 1.0
  outer loop
    vertex -10.000000000000004 38.23123232303211 31.50000000912596
    vertex -5.8660253668989215 35.731232384788804 31.500000012679763
    vertex -5.965925792997361 35.97241333819768 31.500000012679774
  endloop
endfacet
facet normal 5.083773529244429e-09 -2.1731865344023562e-09 1.0
  outer loop
    vertex -10.000000000000004 38.23123232303211 31.50000000912596
    vertex -5.965925792997361 35.97241333819768 31.500000012679774
    vertex -5.999999970564929 36.23123238279247 31.500000012679788
  endloop
endfacet
facet normal 5.083773529244429e-09 -2.1731865344023562e-09 1.0
  outer loop
    vertex -10.000000000000004 38.23123232303211 31.50000000912596
    vertex -5.999999970564929 36.23123238279247 31.500000012679788
    vertex -5.965925800710627 36.490051428402744 31.500000012679813
  endloop
endfacet
facet normal 5.083773529244429e-09 -2.1731865344023562e-09 1.0
  outer loop
    vertex -10.000000000000004 38.23123232303211 31.50000000912596
    vertex -5.965925800710627 36.490051428402744 31.500000012679813
    vertex -5.866025381799816 36.73123238478881 31.50000001267982
  endloop
endfacet
facet normal 5.083773529244429e-09 -2.1731865344023562e-09 1.0
  outer loop
    vertex -10.000000000000004 38.23123232303211 31.50000000912596
    vertex -5.866025381799816 36.73123238478881 31.50000001267982
    vertex -5.707106762288003 36.93833916834339 31.500000012679838
  endloop
endfacet
facet normal 5.083773529244429e-09 -2.1731865344023562e-09 1.0
  outer loop
    vertex -10.000000000000004 38.23123232303211 31.50000000912596
    vertex -5.707106762288003 36.93833916834339 31.500000012679838
    vertex -5.499999983469486 37.09725779402736 31.50000001267985
  endloop
endfacet
facet normal 5.083773529244429e-09 -2.1731865344023562e-09 1.0
  outer loop
    vertex -10.000000000000004 38.23123232303211 31.50000000912596
    vertex -5.499999983469486 37.09725779402736 31.50000001267985
    vertex -5.258819030060613 37.1971582201258 31.500000012679855
  endloop
endfacet
facet normal 5.083773529244429e-09 -2.1731865344023562e-09 1.0
  outer loop
    vertex -10.000000000000004 38.23123232303211 31.50000000912596
    vertex -5.258819030060613 37.1971582201258 31.500000012679855
    vertex -4.999999985465828 37.23123239769336 31.500000012679855
  endloop
endfacet
endsolid Untitled-55163fb7
