solid Untitled-553640a6
facet normal 1.0 0.0 0.0
  outer loop
    vertex 10.0 10.0 0.0
    vertex 10.0 0.0 1.5
    vertex 10.0 0.0 0.0
  endloop
endfacet
facet normal 1.0 0.0 0.0
  outer loop
    vertex 10.0 0.0 1.5
    vertex 10.0 10.0 0.0
    vertex 10.0 10.0 1.5
  endloop
endfacet
facet normal -0.0 1.0 0.0
  outer loop
    vertex 0.0 10.0 1.5
    vertex 10.0 10.0 0.0
    vertex 0.0 10.0 0.0
  endloop
endfacet
facet normal -0.0 1.0 0.0
  outer loop
    vertex 10.0 10.0 0.0
    vertex 0.0 10.0 1.5
    vertex 10.0 10.0 1.5
  endloop
endfacet
facet normal -1.0 0.0 0.0
  outer loop
    vertex 0.0 10.0 1.5
    vertex 0.0 0.0 0.0
    vertex 0.0 0.0 1.5
  endloop
endfacet
facet normal -1.0 0.0 0.0
  outer loop
    vertex 0.0 0.0 0.0
    vertex 0.0 10.0 1.5
    vertex 0.0 10.0 0.0
  endloop
endfacet
facet normal 0.0 0.0 -1.0
  outer loop
    vertex 10.0 10.0 0.0
    vertex 0.0 0.0 0.0
    vertex 0.0 10.0 0.0
  endloop
endfacet
facet normal 0.0 0.0 -1.0
  outer loop
    vertex 0.0 0.0 0.0
    vertex 10.0 10.0 0.0
    vertex 10.0 0.0 0.0
  endloop
endfacet
facet normal -0.0 -1.0 -0.0
  outer loop
    vertex 10.0 0.0 1.5
    vertex 0.0 0.0 0.0
    vertex 10.0 0.0 0.0
  endloop
endfacet
facet normal -0.0 -1.0 -0.0
  outer loop
    vertex 0.0 0.0 0.0
    vertex 10.0 0.0 1.5
    vertex 0.0 0.0 1.5
  endloop
endfacet
facet normal 0.0 1.0 0.0
  outer loop
    vertex 0.9999999999999999 0.9999999999999999 1.5
    vertex 9.0 0.9999999999999999 0.49999999999999994
    vertex 0.9999999999999999 0.9999999999999999 0.49999999999999994
  endloop
endfacet
facet normal 0.0 1.0 0.0
  outer loop
    vertex 9.0 0.9999999999999999 0.49999999999999994
    vertex 0.9999999999999999 0.9999999999999999 1.5
    vertex 9.0 0.9999999999999999 1.5
  endloop
endfacet
facet normal 0.0 0.0 1.0
  outer loop
    vertex 0.0 0.0 1.5
    vertex 0.9999999999999999 0.9999999999999999 1.5
    vertex 0.0 10.0 1.5
  endloop
endfacet
facet normal 0.0 0.0 1.0
  outer loop
    vertex 0.9999999999999999 0.9999999999999999 1.5
    vertex 0.0 0.0 1.5
    vertex 10.0 0.0 1.5
  endloop
endfacet
facet normal 0.0 0.0 1.0
  outer loop
    vertex 0.9999999999999999 0.9999999999999999 1.5
    vertex 10.0 0.0 1.5
    vertex 9.0 0.9999999999999999 1.5
  endloop
endfacet
facet normal 0.0 0.0 1.0
  outer loop
    vertex 9.0 0.9999999999999999 1.5
    vertex 10.0 0.0 1.5
    vertex 9.0 9.0 1.5
  endloop
endfacet
facet normal 0.0 0.0 1.0
  outer loop
    vertex 0.0 10.0 1.5
    vertex 0.9999999999999999 9.0 1.5
    vertex 10.0 10.0 1.5
  endloop
endfacet
facet normal 0.0 0.0 1.0
  outer loop
    vertex 0.9999999999999999 9.0 1.5
    vertex 0.0 10.0 1.5
    vertex 0.9999999999999999 0.9999999999999999 1.5
  endloop
endfacet
facet normal 0.0 0.0 1.0
  outer loop
    vertex 10.0 10.0 1.5
    vertex 0.9999999999999999 9.0 1.5
    vertex 9.0 9.0 1.5
  endloop
endfacet
facet normal 0.0 0.0 1.0
  outer loop
    vertex 10.0 10.0 1.5
    vertex 9.0 9.0 1.5
    vertex 10.0 0.0 1.5
  endloop
endfacet
facet normal 1.0 -0.0 0.0
  outer loop
    vertex 0.9999999999999999 9.0 0.49999999999999994
    vertex 0.9999999999999999 0.9999999999999999 1.5
    vertex 0.9999999999999999 0.9999999999999999 0.49999999999999994
  endloop
endfacet
facet normal 1.0 -0.0 0.0
  outer loop
    vertex 0.9999999999999999 0.9999999999999999 1.5
    vertex 0.9999999999999999 9.0 0.49999999999999994
    vertex 0.9999999999999999 9.0 1.5
  endloop
endfacet
facet normal 0.0 -1.0 0.0
  outer loop
    vertex 9.0 9.0 1.5
    vertex 0.9999999999999999 9.0 0.49999999999999994
    vertex 9.0 9.0 0.49999999999999994
  endloop
endfacet
facet normal 0.0 -1.0 0.0
  outer loop
    vertex 0.9999999999999999 9.0 0.49999999999999994
    vertex 9.0 9.0 1.5
    vertex 0.9999999999999999 9.0 1.5
  endloop
endfacet
facet normal -0.0 -0.0 1.0
  outer loop
    vertex 9.0 0.9999999999999999 0.49999999999999994
    vertex 0.9999999999999999 9.0 0.49999999999999994
    vertex 0.9999999999999999 0.9999999999999999 0.49999999999999994
  endloop
endfacet
facet normal -0.0 -0.0 1.0
  outer loop
    vertex 0.9999999999999999 9.0 0.49999999999999994
    vertex 9.0 0.9999999999999999 0.49999999999999994
    vertex 9.0 9.0 0.49999999999999994
  endloop
endfacet
facet normal -1.0 -0.0 -0.0
  outer loop
    vertex 9.0 9.0 1.5
    vertex 9.0 0.9999999999999999 0.49999999999999994
    vertex 9.0 0.9999999999999999 1.5
  endloop
endfacet
facet normal -1.0 -0.0 -0.0
  outer loop
    vertex 9.0 0.9999999999999999 0.49999999999999994
    vertex 9.0 9.0 1.5
    vertex 9.0 9.0 0.49999999999999994
  endloop
endfacet
endsolid Untitled-553640a6
