solid limn
facet normal -4.455422246920378e-15 -1.0 -1.8799776549924106e-15
  outer loop
    vertex -5.679381372859254 52.68409788579158 9.132929120180668
    vertex -6.94523961313276 52.684097885791594 6.13292912018054
    vertex -5.679381372851774 52.68409788579158 6.132929120108346
  endloop
endfacet
facet normal -4.455422246920378e-15 -1.0 -1.8799776549924106e-15
  outer loop
    vertex -6.94523961313276 52.684097885791594 6.13292912018054
    vertex -5.679381372859254 52.68409788579158 9.132929120180668
    vertex -6.945239613133089 52.68409788579158 9.13292912018053
  endloop
endfacet
facet normal 0.0 1.0 0.0
  outer loop
    vertex -20.94523961313269 49.68409788579158 6.132929120106681
    vertex -19.945239613133026 49.68409788579158 9.132929120179112
    vertex -19.945239613132696 49.68409788579158 6.132929120179117
  endloop
endfacet
facet normal 0.0 1.0 0.0
  outer loop
    vertex -19.945239613133026 49.68409788579158 9.132929120179112
    vertex -20.94523961313269 49.68409788579158 6.132929120106681
    vertex -20.94523961313302 49.68409788579158 9.132929120179002
  endloop
endfacet
facet normal -3.441816654382967e-28 -1.0 3.133384314042157e-15
  outer loop
    vertex -15.945239613133028 53.68409788579158 9.13292912017954
    vertex -11.24541185734567 53.684097885791594 6.13292912014391
    vertex -11.245411857346001 53.68409788579158 9.132929120180055
  endloop
endfacet
facet normal -3.441816654382967e-28 -1.0 3.133384314042157e-15
  outer loop
    vertex -11.24541185734567 53.684097885791594 6.13292912014391
    vertex -15.945239613133028 53.68409788579158 9.13292912017954
    vertex -15.945239613132697 53.684097885791594 6.132929120143393
  endloop
endfacet
facet normal 1.0 -1.1965091430600565e-12 1.3036292360899444e-12
  outer loop
    vertex -5.679381372852125 56.18409788579182 9.132929120174238
    vertex -5.679381372851774 52.68409788579158 6.132929120108346
    vertex -5.679381372851796 56.18409788579182 6.132929120101911
  endloop
endfacet
facet normal 1.0 -1.1965091430600565e-12 1.3036292360899444e-12
  outer loop
    vertex -5.679381372851774 52.68409788579158 6.132929120108346
    vertex -5.679381372852125 56.18409788579182 9.132929120174238
    vertex -5.679381372859254 52.68409788579158 9.132929120180668
  endloop
endfacet
facet normal -1.0 0.0 -1.0984078002221542e-13
  outer loop
    vertex -11.245411857346001 52.68409788579158 9.132929120180055
    vertex -11.24541185734567 53.684097885791594 6.13292912014391
    vertex -11.24541185734567 52.684097885791594 6.13292912014391
  endloop
endfacet
facet normal -1.0 0.0 -1.0984078002221542e-13
  outer loop
    vertex -11.24541185734567 53.684097885791594 6.13292912014391
    vertex -11.245411857346001 52.68409788579158 9.132929120180055
    vertex -11.245411857346001 53.68409788579158 9.132929120180055
  endloop
endfacet
facet normal 1.0 -1.879977655031928e-15 1.0984342517317714e-13
  outer loop
    vertex -6.945239613133089 52.68409788579158 9.13292912018053
    vertex -6.945239613132765 49.68409788579159 6.132929120180551
    vertex -6.94523961313276 52.684097885791594 6.13292912018054
  endloop
endfacet
facet normal 1.0 -1.879977655031928e-15 1.0984342517317714e-13
  outer loop
    vertex -6.945239613132765 49.68409788579159 6.132929120180551
    vertex -6.945239613133089 52.68409788579158 9.13292912018053
    vertex -6.945239613133095 49.68409788579158 9.13292912018054
  endloop
endfacet
facet normal -3.4418166543829672e-28 -1.0 3.1333843140421573e-15
  outer loop
    vertex -11.245411857346001 52.68409788579158 9.132929120180055
    vertex -9.945239613132754 52.684097885791594 6.132929120144052
    vertex -9.945239613133085 52.68409788579158 9.132929120180199
  endloop
endfacet
facet normal -3.4418166543829672e-28 -1.0 3.1333843140421573e-15
  outer loop
    vertex -9.945239613132754 52.684097885791594 6.132929120144052
    vertex -11.245411857346001 52.68409788579158 9.132929120180055
    vertex -11.24541185734567 52.684097885791594 6.13292912014391
  endloop
endfacet
facet normal -0.0 -1.0 0.0
  outer loop
    vertex -20.94523961313302 52.68409788579158 9.132929120178991
    vertex -19.945239613132692 52.68409788579158 6.132929120179106
    vertex -19.94523961313302 52.68409788579158 9.132929120179101
  endloop
endfacet
facet normal -0.0 -1.0 0.0
  outer loop
    vertex -19.945239613132692 52.68409788579158 6.132929120179106
    vertex -20.94523961313302 52.68409788579158 9.132929120178991
    vertex -20.945239613125537 52.68409788579158 6.132929120106669
  endloop
endfacet
facet normal -1.0 1.879977655031928e-15 -1.0984342517317716e-13
  outer loop
    vertex -19.945239613132696 49.68409788579158 6.132929120179117
    vertex -19.94523961313302 52.68409788579158 9.132929120179101
    vertex -19.945239613132692 52.68409788579158 6.132929120179106
  endloop
endfacet
facet normal -1.0 1.879977655031928e-15 -1.0984342517317716e-13
  outer loop
    vertex -19.94523961313302 52.68409788579158 9.132929120179101
    vertex -19.945239613132696 49.68409788579158 6.132929120179117
    vertex -19.945239613133026 49.68409788579158 9.132929120179112
  endloop
endfacet
facet normal -1.0 1.8799776550319282e-15 -1.0984078002221542e-13
  outer loop
    vertex -9.94523961313276 49.68409788579159 6.132929120144063
    vertex -9.945239613133085 52.68409788579158 9.132929120180199
    vertex -9.945239613132754 52.684097885791594 6.132929120144052
  endloop
endfacet
facet normal -1.0 1.8799776550319282e-15 -1.0984078002221542e-13
  outer loop
    vertex -9.945239613133085 52.68409788579158 9.132929120180199
    vertex -9.94523961313276 49.68409788579159 6.132929120144063
    vertex -9.94523961313309 49.68409788579158 9.132929120180211
  endloop
endfacet
facet normal -8.019760044243793e-14 1.0 3.7599553100485396e-14
  outer loop
    vertex -6.945239613132765 49.68409788579159 6.132929120180551
    vertex -5.679381372859254 49.68409788579158 9.132929120180679
    vertex -5.679381372851801 49.68409788579179 6.13292912010194
  endloop
endfacet
facet normal -8.019760044243793e-14 1.0 3.7599553100485396e-14
  outer loop
    vertex -5.679381372859254 49.68409788579158 9.132929120180679
    vertex -6.945239613132765 49.68409788579159 6.132929120180551
    vertex -6.945239613133095 49.68409788579158 9.13292912018054
  endloop
endfacet
facet normal -3.441816654382967e-28 -1.0 3.133384314042157e-15
  outer loop
    vertex -16.945239613133026 52.68409788579158 9.13292912017943
    vertex -15.945239613132697 52.684097885791594 6.132929120143393
    vertex -15.945239613133028 52.68409788579158 9.13292912017954
  endloop
endfacet
facet normal -3.441816654382967e-28 -1.0 3.133384314042157e-15
  outer loop
    vertex -15.945239613132697 52.684097885791594 6.132929120143393
    vertex -16.945239613133026 52.68409788579158 9.13292912017943
    vertex -16.945239613132696 52.684097885791594 6.132929120143284
  endloop
endfacet
facet normal 1.0 -0.0 1.0984078002221542e-13
  outer loop
    vertex -15.945239613133028 53.68409788579158 9.13292912017954
    vertex -15.945239613132697 52.684097885791594 6.132929120143393
    vertex -15.945239613132697 53.684097885791594 6.132929120143393
  endloop
endfacet
facet normal 1.0 -0.0 1.0984078002221542e-13
  outer loop
    vertex -15.945239613132697 52.684097885791594 6.132929120143393
    vertex -15.945239613133028 53.68409788579158 9.13292912017954
    vertex -15.945239613133028 52.68409788579158 9.13292912017954
  endloop
endfacet
facet normal 3.4418166543829663e-28 1.0 -3.1333843140421565e-15
  outer loop
    vertex -16.945239613132703 49.68409788579159 6.132929120143295
    vertex -9.94523961313309 49.68409788579158 9.132929120180211
    vertex -9.94523961313276 49.68409788579159 6.132929120144063
  endloop
endfacet
facet normal 3.4418166543829663e-28 1.0 -3.1333843140421565e-15
  outer loop
    vertex -9.94523961313309 49.68409788579158 9.132929120180211
    vertex -16.945239613132703 49.68409788579159 6.132929120143295
    vertex -16.945239613133033 49.68409788579158 9.13292912017944
  endloop
endfacet
facet normal 1.0 -1.8799776550319282e-15 1.0984078002221542e-13
  outer loop
    vertex -16.945239613133026 52.68409788579158 9.13292912017943
    vertex -16.945239613132703 49.68409788579159 6.132929120143295
    vertex -16.945239613132696 52.684097885791594 6.132929120143284
  endloop
endfacet
facet normal 1.0 -1.8799776550319282e-15 1.0984078002221542e-13
  outer loop
    vertex -16.945239613132703 49.68409788579159 6.132929120143295
    vertex -16.945239613133026 52.68409788579158 9.13292912017943
    vertex -16.945239613133033 49.68409788579158 9.13292912017944
  endloop
endfacet
facet normal -1.0 -7.805932409457477e-13 -6.34241961385628e-13
  outer loop
    vertex -20.945239613125537 52.68409788579158 6.132929120106669
    vertex -20.94523961313302 56.18409788579161 9.13292912017898
    vertex -20.94523961313269 56.18409788579159 6.1329291201066525
  endloop
endfacet
facet normal -1.0 -7.805932409457477e-13 -6.34241961385628e-13
  outer loop
    vertex -20.94523961313302 56.18409788579161 9.13292912017898
    vertex -20.945239613125537 52.68409788579158 6.132929120106669
    vertex -20.94523961313302 52.68409788579158 9.132929120178991
  endloop
endfacet
facet normal -4.1924058516148877e-14 1.1595985791797127e-13 1.0
  outer loop
    vertex -5.679381372852125 56.18409788579182 9.132929120174238
    vertex -6.945239613133089 52.68409788579158 9.13292912018053
    vertex -5.679381372859254 52.68409788579158 9.132929120180668
  endloop
endfacet
facet normal -4.1924058516148877e-14 1.1595985791797127e-13 1.0
  outer loop
    vertex -6.945239613133089 52.68409788579158 9.13292912018053
    vertex -5.679381372852125 56.18409788579182 9.132929120174238
    vertex -9.945239613133085 52.68409788579158 9.132929120180199
  endloop
endfacet
facet normal -4.1924058516148877e-14 1.1595985791797127e-13 1.0
  outer loop
    vertex -9.945239613133085 52.68409788579158 9.132929120180199
    vertex -5.679381372852125 56.18409788579182 9.132929120174238
    vertex -11.245411857346001 52.68409788579158 9.132929120180055
  endloop
endfacet
facet normal -4.1924058516148877e-14 1.1595985791797127e-13 1.0
  outer loop
    vertex -11.245411857346001 52.68409788579158 9.132929120180055
    vertex -5.679381372852125 56.18409788579182 9.132929120174238
    vertex -11.245411857346001 53.68409788579158 9.132929120180055
  endloop
endfacet
facet normal -4.1924058516148877e-14 1.1595985791797127e-13 1.0
  outer loop
    vertex -11.245411857346001 53.68409788579158 9.132929120180055
    vertex -5.679381372852125 56.18409788579182 9.132929120174238
    vertex -15.945239613133028 53.68409788579158 9.13292912017954
  endloop
endfacet
facet normal -4.1924058516148877e-14 1.1595985791797127e-13 1.0
  outer loop
    vertex -15.945239613133028 53.68409788579158 9.13292912017954
    vertex -5.679381372852125 56.18409788579182 9.132929120174238
    vertex -20.94523961313302 56.18409788579161 9.13292912017898
  endloop
endfacet
facet normal -4.1924058516148877e-14 1.1595985791797127e-13 1.0
  outer loop
    vertex -15.945239613133028 53.68409788579158 9.13292912017954
    vertex -16.945239613133026 52.68409788579158 9.13292912017943
    vertex -15.945239613133028 52.68409788579158 9.13292912017954
  endloop
endfacet
facet normal -4.1924058516148877e-14 1.1595985791797127e-13 1.0
  outer loop
    vertex -16.945239613133026 52.68409788579158 9.13292912017943
    vertex -15.945239613133028 53.68409788579158 9.13292912017954
    vertex -19.94523961313302 52.68409788579158 9.132929120179101
  endloop
endfacet
facet normal -4.1924058516148877e-14 1.1595985791797127e-13 1.0
  outer loop
    vertex -19.94523961313302 52.68409788579158 9.132929120179101
    vertex -15.945239613133028 53.68409788579158 9.13292912017954
    vertex -20.94523961313302 52.68409788579158 9.132929120178991
  endloop
endfacet
facet normal -4.1924058516148877e-14 1.1595985791797127e-13 1.0
  outer loop
    vertex -20.94523961313302 52.68409788579158 9.132929120178991
    vertex -15.945239613133028 53.68409788579158 9.13292912017954
    vertex -20.94523961313302 56.18409788579161 9.13292912017898
  endloop
endfacet
facet normal -4.1924058516148877e-14 1.1595985791797127e-13 1.0
  outer loop
    vertex -16.945239613133026 52.68409788579158 9.13292912017943
    vertex -19.945239613133026 49.68409788579158 9.132929120179112
    vertex -16.945239613133033 49.68409788579158 9.13292912017944
  endloop
endfacet
facet normal -4.1924058516148877e-14 1.1595985791797127e-13 1.0
  outer loop
    vertex -19.945239613133026 49.68409788579158 9.132929120179112
    vertex -16.945239613133026 52.68409788579158 9.13292912017943
    vertex -19.94523961313302 52.68409788579158 9.132929120179101
  endloop
endfacet
facet normal -4.1924058516148877e-14 1.1595985791797127e-13 1.0
  outer loop
    vertex -6.945239613133089 52.68409788579158 9.13292912018053
    vertex -9.94523961313309 49.68409788579158 9.132929120180211
    vertex -6.945239613133095 49.68409788579158 9.13292912018054
  endloop
endfacet
facet normal -4.1924058516148877e-14 1.1595985791797127e-13 1.0
  outer loop
    vertex -9.94523961313309 49.68409788579158 9.132929120180211
    vertex -6.945239613133089 52.68409788579158 9.13292912018053
    vertex -9.945239613133085 52.68409788579158 9.132929120180199
  endloop
endfacet
facet normal -4.1924058516148877e-14 1.1595985791797127e-13 1.0
  outer loop
    vertex -5.679381372859254 49.68409788579158 9.132929120180679
    vertex -20.94523961313302 45.68409788579163 9.132929120179014
    vertex -5.679381372859254 45.68409788579163 9.132929120180679
  endloop
endfacet
facet normal -4.1924058516148877e-14 1.1595985791797127e-13 1.0
  outer loop
    vertex -20.94523961313302 45.68409788579163 9.132929120179014
    vertex -5.679381372859254 49.68409788579158 9.132929120180679
    vertex -20.94523961313302 49.68409788579158 9.132929120179002
  endloop
endfacet
facet normal -4.1924058516148877e-14 1.1595985791797127e-13 1.0
  outer loop
    vertex -20.94523961313302 49.68409788579158 9.132929120179002
    vertex -5.679381372859254 49.68409788579158 9.132929120180679
    vertex -6.945239613133095 49.68409788579158 9.13292912018054
  endloop
endfacet
facet normal -4.1924058516148877e-14 1.1595985791797127e-13 1.0
  outer loop
    vertex -20.94523961313302 49.68409788579158 9.132929120179002
    vertex -6.945239613133095 49.68409788579158 9.13292912018054
    vertex -9.94523961313309 49.68409788579158 9.132929120180211
  endloop
endfacet
facet normal -4.1924058516148877e-14 1.1595985791797127e-13 1.0
  outer loop
    vertex -20.94523961313302 49.68409788579158 9.132929120179002
    vertex -9.94523961313309 49.68409788579158 9.132929120180211
    vertex -16.945239613133033 49.68409788579158 9.13292912017944
  endloop
endfacet
facet normal -4.1924058516148877e-14 1.1595985791797127e-13 1.0
  outer loop
    vertex -20.94523961313302 49.68409788579158 9.132929120179002
    vertex -16.945239613133033 49.68409788579158 9.13292912017944
    vertex -19.945239613133026 49.68409788579158 9.132929120179112
  endloop
endfacet
facet normal -1.3919502753604026e-14 1.0 8.090114408379825e-15
  outer loop
    vertex -19.945239613127924 56.18409788579159 6.132929120106763
    vertex -5.679381372852125 56.18409788579182 9.132929120174238
    vertex -5.679381372851796 56.18409788579182 6.132929120101911
  endloop
endfacet
facet normal -1.3919502753604026e-14 1.0 8.090114408379825e-15
  outer loop
    vertex -5.679381372852125 56.18409788579182 9.132929120174238
    vertex -19.945239613127924 56.18409788579159 6.132929120106763
    vertex -20.94523961313302 56.18409788579161 9.13292912017898
  endloop
endfacet
facet normal -1.3919502753604026e-14 1.0 8.090114408379825e-15
  outer loop
    vertex -20.94523961313302 56.18409788579161 9.13292912017898
    vertex -19.945239613127924 56.18409788579159 6.132929120106763
    vertex -20.94523961313269 56.18409788579159 6.1329291201066525
  endloop
endfacet
facet normal 7.758397228824166e-15 -1.0 -3.1959620134770407e-14
  outer loop
    vertex -5.679381372859254 45.68409788579163 9.132929120180679
    vertex -20.94523961313269 45.68409788579161 6.132929120106698
    vertex -5.679381372851796 45.68409788579184 6.132929120101957
  endloop
endfacet
facet normal 7.758397228824166e-15 -1.0 -3.1959620134770407e-14
  outer loop
    vertex -20.94523961313269 45.68409788579161 6.132929120106698
    vertex -5.679381372859254 45.68409788579163 9.132929120180679
    vertex -20.94523961313302 45.68409788579163 9.132929120179014
  endloop
endfacet
facet normal 1.0 7.049916206420491e-16 2.485195192243685e-12
  outer loop
    vertex -5.679381372859254 49.68409788579158 9.132929120180679
    vertex -5.679381372851796 45.68409788579184 6.132929120101957
    vertex -5.679381372851801 49.68409788579179 6.13292912010194
  endloop
endfacet
facet normal 1.0 7.049916206420491e-16 2.485195192243685e-12
  outer loop
    vertex -5.679381372851796 45.68409788579184 6.132929120101957
    vertex -5.679381372859254 49.68409788579158 9.132929120180679
    vertex -5.679381372859254 45.68409788579163 9.132929120180679
  endloop
endfacet
facet normal 3.3904594695329876e-14 -4.811086849135359e-13 -1.0
  outer loop
    vertex -19.945239613132692 52.68409788579158 6.132929120179106
    vertex -16.945239613132703 49.68409788579159 6.132929120143295
    vertex -19.945239613132696 49.68409788579158 6.132929120179117
  endloop
endfacet
facet normal 3.3904594695329876e-14 -4.811086849135359e-13 -1.0
  outer loop
    vertex -16.945239613132703 49.68409788579159 6.132929120143295
    vertex -19.945239613132692 52.68409788579158 6.132929120179106
    vertex -16.945239613132696 52.684097885791594 6.132929120143284
  endloop
endfacet
facet normal 3.3904594695329876e-14 -4.811086849135359e-13 -1.0
  outer loop
    vertex -20.94523961313269 49.68409788579158 6.132929120106681
    vertex -5.679381372851796 45.68409788579184 6.132929120101957
    vertex -20.94523961313269 45.68409788579161 6.132929120106698
  endloop
endfacet
facet normal 3.3904594695329876e-14 -4.811086849135359e-13 -1.0
  outer loop
    vertex -5.679381372851796 45.68409788579184 6.132929120101957
    vertex -20.94523961313269 49.68409788579158 6.132929120106681
    vertex -19.945239613132696 49.68409788579158 6.132929120179117
  endloop
endfacet
facet normal 3.3904594695329876e-14 -4.811086849135359e-13 -1.0
  outer loop
    vertex -5.679381372851796 45.68409788579184 6.132929120101957
    vertex -19.945239613132696 49.68409788579158 6.132929120179117
    vertex -6.945239613132765 49.68409788579159 6.132929120180551
  endloop
endfacet
facet normal 3.3904594695329876e-14 -4.811086849135359e-13 -1.0
  outer loop
    vertex -5.679381372851796 45.68409788579184 6.132929120101957
    vertex -6.945239613132765 49.68409788579159 6.132929120180551
    vertex -5.679381372851801 49.68409788579179 6.13292912010194
  endloop
endfacet
facet normal 3.3904594695329876e-14 -4.811086849135359e-13 -1.0
  outer loop
    vertex -6.945239613132765 49.68409788579159 6.132929120180551
    vertex -19.945239613132696 49.68409788579158 6.132929120179117
    vertex -16.945239613132703 49.68409788579159 6.132929120143295
  endloop
endfacet
facet normal 3.3904594695329876e-14 -4.811086849135359e-13 -1.0
  outer loop
    vertex -6.945239613132765 49.68409788579159 6.132929120180551
    vertex -16.945239613132703 49.68409788579159 6.132929120143295
    vertex -9.94523961313276 49.68409788579159 6.132929120144063
  endloop
endfacet
facet normal 3.3904594695329876e-14 -4.811086849135359e-13 -1.0
  outer loop
    vertex -11.24541185734567 53.684097885791594 6.13292912014391
    vertex -9.945239613132754 52.684097885791594 6.132929120144052
    vertex -11.24541185734567 52.684097885791594 6.13292912014391
  endloop
endfacet
facet normal 3.3904594695329876e-14 -4.811086849135359e-13 -1.0
  outer loop
    vertex -9.945239613132754 52.684097885791594 6.132929120144052
    vertex -11.24541185734567 53.684097885791594 6.13292912014391
    vertex -6.94523961313276 52.684097885791594 6.13292912018054
  endloop
endfacet
facet normal 3.3904594695329876e-14 -4.811086849135359e-13 -1.0
  outer loop
    vertex -20.94523961313269 56.18409788579159 6.1329291201066525
    vertex -19.945239613132692 52.68409788579158 6.132929120179106
    vertex -20.945239613125537 52.68409788579158 6.132929120106669
  endloop
endfacet
facet normal 3.3904594695329876e-14 -4.811086849135359e-13 -1.0
  outer loop
    vertex -19.945239613132692 52.68409788579158 6.132929120179106
    vertex -20.94523961313269 56.18409788579159 6.1329291201066525
    vertex -16.945239613132696 52.684097885791594 6.132929120143284
  endloop
endfacet
facet normal 3.3904594695329876e-14 -4.811086849135359e-13 -1.0
  outer loop
    vertex -16.945239613132696 52.684097885791594 6.132929120143284
    vertex -20.94523961313269 56.18409788579159 6.1329291201066525
    vertex -15.945239613132697 52.684097885791594 6.132929120143393
  endloop
endfacet
facet normal 3.3904594695329876e-14 -4.811086849135359e-13 -1.0
  outer loop
    vertex -15.945239613132697 52.684097885791594 6.132929120143393
    vertex -20.94523961313269 56.18409788579159 6.1329291201066525
    vertex -15.945239613132697 53.684097885791594 6.132929120143393
  endloop
endfacet
facet normal 3.3904594695329876e-14 -4.811086849135359e-13 -1.0
  outer loop
    vertex -15.945239613132697 53.684097885791594 6.132929120143393
    vertex -20.94523961313269 56.18409788579159 6.1329291201066525
    vertex -11.24541185734567 53.684097885791594 6.13292912014391
  endloop
endfacet
facet normal 3.3904594695329876e-14 -4.811086849135359e-13 -1.0
  outer loop
    vertex -6.94523961313276 52.684097885791594 6.13292912018054
    vertex -5.679381372851796 56.18409788579182 6.132929120101911
    vertex -5.679381372851774 52.68409788579158 6.132929120108346
  endloop
endfacet
facet normal 3.3904594695329876e-14 -4.811086849135359e-13 -1.0
  outer loop
    vertex -5.679381372851796 56.18409788579182 6.132929120101911
    vertex -6.94523961313276 52.684097885791594 6.13292912018054
    vertex -11.24541185734567 53.684097885791594 6.13292912014391
  endloop
endfacet
facet normal 3.3904594695329876e-14 -4.811086849135359e-13 -1.0
  outer loop
    vertex -5.679381372851796 56.18409788579182 6.132929120101911
    vertex -11.24541185734567 53.684097885791594 6.13292912014391
    vertex -19.945239613127924 56.18409788579159 6.132929120106763
  endloop
endfacet
facet normal 3.3904594695329876e-14 -4.811086849135359e-13 -1.0
  outer loop
    vertex -19.945239613127924 56.18409788579159 6.132929120106763
    vertex -11.24541185734567 53.684097885791594 6.13292912014391
    vertex -20.94523961313269 56.18409788579159 6.1329291201066525
  endloop
endfacet
facet normal 3.3904594695329876e-14 -4.811086849135359e-13 -1.0
  outer loop
    vertex -9.945239613132754 52.684097885791594 6.132929120144052
    vertex -6.945239613132765 49.68409788579159 6.132929120180551
    vertex -9.94523961313276 49.68409788579159 6.132929120144063
  endloop
endfacet
facet normal 3.3904594695329876e-14 -4.811086849135359e-13 -1.0
  outer loop
    vertex -6.945239613132765 49.68409788579159 6.132929120180551
    vertex -9.945239613132754 52.684097885791594 6.132929120144052
    vertex -6.94523961313276 52.684097885791594 6.13292912018054
  endloop
endfacet
facet normal -1.0 0.0 -1.0984342517317716e-13
  outer loop
    vertex -20.94523961313269 45.68409788579161 6.132929120106698
    vertex -20.94523961313302 49.68409788579158 9.132929120179002
    vertex -20.94523961313269 49.68409788579158 6.132929120106681
  endloop
endfacet
facet normal -1.0 0.0 -1.0984342517317716e-13
  outer loop
    vertex -20.94523961313302 49.68409788579158 9.132929120179002
    vertex -20.94523961313269 45.68409788579161 6.132929120106698
    vertex -20.94523961313302 45.68409788579163 9.132929120179014
  endloop
endfacet
endsolid limn
