solid limn
facet normal 6.634885486803087e-10 -0.2588190451013297 -0.9659258262893875
  outer loop
    vertex 23.496016196911235 28.163438656982567 4.384154577951405
    vertex 29.996016241578 27.775210089340423 4.435265842979027
    vertex 23.49601619687685 27.775210089328713 4.435265838517322
  endloop
endfacet
facet normal 6.864107763770467e-10 1.233020630042603e-12 -1.0
  outer loop
    vertex 29.996016241578 27.775210089340423 4.435265842979027
    vertex 23.496016196911235 28.163438656982567 4.384154577951405
    vertex 29.99601624161238 28.16343865699427 4.38415458241311
  endloop
endfacet
facet normal 6.864107763770467e-10 1.2330028078228117e-12 -1.0
  outer loop
    vertex 23.49601619687685 27.775210089328713 4.435265838517322
    vertex 29.99601624161378 27.386981521686707 4.384154582412153
    vertex 23.496016196912635 27.386981521675004 4.384154577950447
  endloop
endfacet
facet normal 6.625552440111309e-10 0.25881904510371034 -0.9659258262887496
  outer loop
    vertex 29.99601624161378 27.386981521686707 4.384154582412153
    vertex 23.49601619687685 27.775210089328713 4.435265838517322
    vertex 29.996016241578 27.775210089340423 4.435265842979027
  endloop
endfacet
facet normal -4.840907967681644e-10 -0.7071067811874199 0.7071067811856753
  outer loop
    vertex 23.496016198632603 28.83587026111169 1.8746056667388113
    vertex 29.99601624312007 29.074248195019855 2.185265842980543
    vertex 23.496016198418932 29.074248195008146 2.1852658385189274
  endloop
endfacet
facet normal -3.416439390442807e-10 -0.8660254037850541 0.4999999999989344
  outer loop
    vertex 29.99601624312007 29.074248195019855 2.185265842980543
    vertex 23.496016198632603 28.83587026111169 1.8746056667388113
    vertex 29.996016243333735 28.8358702611234 1.874605671200427
  endloop
endfacet
facet normal -0.1305261921865531 -0.9914448613782206 -1.2743007302393016e-12
  outer loop
    vertex 27.56746337096429 0.8160106521076346 -1.0647340995812558
    vertex 29.229518994253393 0.7070737806950694 13.99659753287897
    vertex 27.567463360629947 0.8160106623113407 13.996597532878452
  endloop
endfacet
facet normal -0.06540312922835928 -0.9978589232387205 -1.2563345629325017e-12
  outer loop
    vertex 29.229518994253393 0.7070737806950694 13.99659753287897
    vertex 27.56746337096429 0.8160106521076346 -1.0647340995812558
    vertex 29.22951900458773 0.7070737704913632 -1.0647340995807368
  endloop
endfacet
facet normal 5.953506728576753e-10 -0.49999999999893685 -0.8660254037850525
  outer loop
    vertex 23.496016197013443 28.52521008932896 4.234303944194905
    vertex 29.99601624161238 28.16343865699427 4.38415458241311
    vertex 23.496016196911235 28.163438656982567 4.384154577951405
  endloop
endfacet
facet normal 6.634885486803092e-10 -0.2588190451013278 -0.9659258262893881
  outer loop
    vertex 29.99601624161238 28.16343865699427 4.38415458241311
    vertex 23.496016197013443 28.52521008932896 4.234303944194905
    vertex 29.996016241714578 28.52521008934067 4.23430394865652
  endloop
endfacet
facet normal -5.935476666901661e-10 -0.5000000000010691 0.8660254037838214
  outer loop
    vertex 29.996016243497923 28.525210089343872 1.6362277373032088
    vertex 23.496016198632603 28.83587026111169 1.8746056667388113
    vertex 23.496016198796788 28.525210089332166 1.636227732841593
  endloop
endfacet
facet normal -4.840907967681644e-10 -0.7071067811874199 0.7071067811856753
  outer loop
    vertex 23.496016198632603 28.83587026111169 1.8746056667388113
    vertex 29.996016243497923 28.525210089343872 1.6362277373032088
    vertex 29.996016243333735 28.8358702611234 1.874605671200427
  endloop
endfacet
facet normal 0.7071067838199333 0.7071067785531618 5.7617232066792394e-09
  outer loop
    vertex 35.99601624537601 14.707073740693822 -1.0647341126125183
    vertex 29.99601619380101 20.707073795604963 7.996597532901611
    vertex 35.99601619381101 14.707073750904918 7.996597581776663
  endloop
endfacet
facet normal 0.7071067838199333 0.7071067785531618 5.7617232066792394e-09
  outer loop
    vertex 29.99601619380101 20.707073795604963 7.996597532901611
    vertex 35.99601624537601 14.707073740693822 -1.0647341126125183
    vertex 29.996016245366008 20.707073785393863 -1.0647341614875598
  endloop
endfacet
facet normal 4.840907967681646e-10 0.7071067811874197 -0.7071067811856756
  outer loop
    vertex 29.996016241881474 26.714549917561147 3.9959260147574494
    vertex 23.496016197394002 26.476171983652982 3.685265838515721
    vertex 23.49601619718033 26.714549917549437 3.995926010295834
  endloop
endfacet
facet normal 3.4164393904428e-10 0.8660254037850544 -0.4999999999989334
  outer loop
    vertex 23.496016197394002 26.476171983652982 3.685265838515721
    vertex 29.996016241881474 26.714549917561147 3.9959260147574494
    vertex 29.996016242095138 26.476171983664692 3.6852658429773366
  endloop
endfacet
facet normal -3.4164393904428115e-10 -0.8660254037850537 0.4999999999989351
  outer loop
    vertex 23.496016198418932 29.074248195008146 2.1852658385189274
    vertex 29.996016242871487 29.22409882877635 2.547037275326942
    vertex 23.49601619817034 29.224098828764646 2.5470372708653266
  endloop
endfacet
facet normal -1.7591461146783153e-10 -0.965925826289387 0.2588190451013317
  outer loop
    vertex 29.996016242871487 29.22409882877635 2.547037275326942
    vertex 23.496016198418932 29.074248195008146 2.1852658385189274
    vertex 29.99601624312007 29.074248195019855 2.185265842980543
  endloop
endfacet
facet normal -1.8030061675097194e-12 1.0 1.2318443635363776e-12
  outer loop
    vertex 29.996016242610313 26.275210089342277 2.9352658429770897
    vertex 23.496016198175564 26.326321349897448 2.5470372708617592
    vertex 23.496016197909174 26.275210089330567 2.935265838515474
  endloop
endfacet
facet normal -1.7939775191214291e-10 0.9659258262887498 0.2588190451037101
  outer loop
    vertex 23.496016198175564 26.326321349897448 2.5470372708617592
    vertex 29.996016242610313 26.275210089342277 2.9352658429770897
    vertex 29.996016242876696 26.32632134990915 2.5470372753233748
  endloop
endfacet
facet normal -1.759146114678305e-10 -0.9659258262893875 0.2588190451013301
  outer loop
    vertex 23.49601619817034 29.224098828764646 2.5470372708653266
    vertex 29.9960162426049 29.27521008934227 2.9352658429807894
    vertex 23.496016197903764 29.27521008933056 2.935265838519174
  endloop
endfacet
facet normal 1.8030061675103281e-12 -1.0 -1.2327265634160466e-12
  outer loop
    vertex 29.9960162426049 29.27521008934227 2.9352658429807894
    vertex 23.49601619817034 29.224098828764646 2.5470372708653266
    vertex 29.996016242871487 29.22409882877635 2.547037275326942
  endloop
endfacet
facet normal 3.4476683733276824e-10 -0.8660254037838216 -0.5000000000010688
  outer loop
    vertex 23.49601619738932 29.074248195006295 3.6852658385189243
    vertex 29.99601624187764 28.835870261120782 3.9959260147600637
    vertex 23.49601619717651 28.835870261109076 3.995926010298448
  endloop
endfacet
facet normal 4.866406325432993e-10 -0.707106781185677 -0.707106781187418
  outer loop
    vertex 29.99601624187764 28.835870261120782 3.9959260147600637
    vertex 23.49601619738932 29.074248195006295 3.6852658385189243
    vertex 29.99601624209047 29.074248195018004 3.6852658429805403
  endloop
endfacet
facet normal -6.625552440111309e-10 -0.25881904510370907 0.9659258262887499
  outer loop
    vertex 29.996016243601453 28.16343865699784 1.4863771035458138
    vertex 23.496016198796788 28.525210089332166 1.636227732841593
    vertex 23.496016198900303 28.16343865698613 1.4863770990841982
  endloop
endfacet
facet normal -5.935476666901648e-10 -0.500000000001072 0.8660254037838198
  outer loop
    vertex 23.496016198796788 28.525210089332166 1.636227732841593
    vertex 29.996016243601453 28.16343865699784 1.4863771035458138
    vertex 29.996016243497923 28.525210089343872 1.6362277373032088
  endloop
endfacet
facet normal 1.7591461146782885e-10 0.9659258262893881 -0.25881904510132775
  outer loop
    vertex 29.996016242343746 26.32632134990819 3.3234944106309317
    vertex 23.496016197909174 26.275210089330567 2.935265838515474
    vertex 23.496016197642597 26.32632134989649 3.323494406169316
  endloop
endfacet
facet normal -1.8030061675100874e-12 1.0 1.2323790301301163e-12
  outer loop
    vertex 23.496016197909174 26.275210089330567 2.935265838515474
    vertex 29.996016242343746 26.32632134990819 3.3234944106309317
    vertex 29.996016242610313 26.275210089342277 2.9352658429770897
  endloop
endfacet
facet normal -1.793977519121442e-10 0.9659258262887491 0.258819045103712
  outer loop
    vertex 29.996016242876696 26.32632134990915 2.5470372753233748
    vertex 23.49601619842362 26.476171983654833 2.1852658385157238
    vertex 23.496016198175564 26.326321349897448 2.5470372708617592
  endloop
endfacet
facet normal -3.4476683733276757e-10 0.8660254037838221 0.5000000000010679
  outer loop
    vertex 23.49601619842362 26.476171983654833 2.1852658385157238
    vertex 29.996016242876696 26.32632134990915 2.5470372753233748
    vertex 29.996016243124764 26.476171983666543 2.1852658429773393
  endloop
endfacet
facet normal 5.935476666901649e-10 0.5000000000010721 -0.8660254037838199
  outer loop
    vertex 23.496016197016147 27.025210089328965 4.234303944193055
    vertex 29.996016241881474 26.714549917561147 3.9959260147574494
    vertex 23.49601619718033 26.714549917549437 3.995926010295834
  endloop
endfacet
facet normal 4.840907967681646e-10 0.7071067811874197 -0.7071067811856756
  outer loop
    vertex 29.996016241881474 26.714549917561147 3.9959260147574494
    vertex 23.496016197016147 27.025210089328965 4.234303944193055
    vertex 29.996016241717285 27.02521008934067 4.234303948654671
  endloop
endfacet
facet normal 3.416439390442787e-10 0.8660254037850557 -0.4999999999989316
  outer loop
    vertex 29.996016242095138 26.476171983664692 3.6852658429773366
    vertex 23.496016197642597 26.32632134989649 3.323494406169316
    vertex 23.496016197394002 26.476171983652982 3.685265838515721
  endloop
endfacet
facet normal 1.7591461146783009e-10 0.9659258262893875 -0.2588190451013296
  outer loop
    vertex 23.496016197642597 26.32632134989649 3.323494406169316
    vertex 29.996016242095138 26.476171983664692 3.6852658429773366
    vertex 29.996016242343746 26.32632134990819 3.3234944106309317
  endloop
endfacet
facet normal 1.8030061675118235e-12 -1.0 -1.2349186964503757e-12
  outer loop
    vertex 23.496016197903764 29.27521008933056 2.935265838519174
    vertex 29.996016242338513 29.22409882877539 3.323494410634505
    vertex 23.49601619763737 29.224098828763687 3.3234944061728893
  endloop
endfacet
facet normal 1.7939775191214408e-10 -0.9659258262887491 -0.2588190451037118
  outer loop
    vertex 29.996016242338513 29.22409882877539 3.323494410634505
    vertex 23.496016197903764 29.27521008933056 2.935265838519174
    vertex 29.9960162426049 29.27521008934227 2.9352658429807894
  endloop
endfacet
facet normal 4.866406325433005e-10 -0.7071067811856754 -0.7071067811874197
  outer loop
    vertex 23.49601619717651 28.835870261109076 3.995926010298448
    vertex 29.996016241714578 28.52521008934067 4.23430394865652
    vertex 23.496016197013443 28.52521008932896 4.234303944194905
  endloop
endfacet
facet normal 5.953506728576758e-10 -0.49999999999893574 -0.8660254037850531
  outer loop
    vertex 29.996016241714578 28.52521008934067 4.23430394865652
    vertex 23.49601619717651 28.835870261109076 3.995926010298448
    vertex 29.99601624187764 28.835870261120782 3.9959260147600637
  endloop
endfacet
facet normal 6.625552440111307e-10 0.2588190451037113 -0.9659258262887493
  outer loop
    vertex 23.496016196912635 27.386981521675004 4.384154577950447
    vertex 29.996016241717285 27.02521008934067 4.234303948654671
    vertex 23.496016197016147 27.025210089328965 4.234303944193055
  endloop
endfacet
facet normal 5.935476666901646e-10 0.5000000000010727 -0.8660254037838194
  outer loop
    vertex 29.996016241717285 27.02521008934067 4.234303948654671
    vertex 23.496016196912635 27.386981521675004 4.384154577950447
    vertex 29.99601624161378 27.386981521686707 4.384154582412153
  endloop
endfacet
facet normal 1.793977519121438e-10 -0.9659258262887493 -0.25881904510371145
  outer loop
    vertex 23.49601619763737 29.224098828763687 3.3234944061728893
    vertex 29.99601624209047 29.074248195018004 3.6852658429805403
    vertex 23.49601619738932 29.074248195006295 3.6852658385189243
  endloop
endfacet
facet normal 3.44766837332767e-10 -0.8660254037838225 -0.5000000000010673
  outer loop
    vertex 29.99601624209047 29.074248195018004 3.6852658429805403
    vertex 23.49601619763737 29.224098828763687 3.3234944061728893
    vertex 29.996016242338513 29.22409882877539 3.323494410634505
  endloop
endfacet
facet normal 1.0 2.726029100243849e-16 1.6729814220622773e-08
  outer loop
    vertex 46.996016030150884 0.7070736838579688 7.996597663263549
    vertex 46.99601592977378 3.707073622146987 13.996597628381974
    vertex 46.996015929772 0.7070737637248325 13.996597693560943
  endloop
endfacet
facet normal 1.0 2.726029100243849e-16 1.6729814220622773e-08
  outer loop
    vertex 46.99601592977378 3.707073622146987 13.996597628381974
    vertex 46.996016030150884 0.7070736838579688 7.996597663263549
    vertex 46.99601603015267 3.7070735422801233 7.99659759808457
  endloop
endfacet
facet normal 1.4901461655708716e-08 0.9999999999999999 -1.3311143637617524e-08
  outer loop
    vertex 46.99601592977378 3.707073622146987 13.996597628381974
    vertex 41.99601603015268 3.7070736167874307 7.996597526368672
    vertex 41.99601592977379 3.7070736966542945 13.996597556666076
  endloop
endfacet
facet normal 1.4901461655708716e-08 0.9999999999999999 -1.3311143637617524e-08
  outer loop
    vertex 41.99601603015268 3.7070736167874307 7.996597526368672
    vertex 46.99601592977378 3.707073622146987 13.996597628381974
    vertex 46.99601603015267 3.7070735422801233 7.99659759808457
  endloop
endfacet
facet normal -1.0 -1.7278301948954265e-16 -1.6729814220622773e-08
  outer loop
    vertex 41.99601592977379 3.7070736966542945 13.996597556666076
    vertex 41.996016030150884 0.7070737211080058 7.996597567681304
    vertex 41.996015929772 0.7070738009748696 13.996597597978697
  endloop
endfacet
facet normal -1.0 -1.7278301948954265e-16 -1.6729814220622773e-08
  outer loop
    vertex 41.996016030150884 0.7070737211080058 7.996597567681304
    vertex 41.99601592977379 3.7070736966542945 13.996597556666076
    vertex 41.99601603015268 3.7070736167874307 7.996597526368672
  endloop
endfacet
facet normal -0.7071067811568525 -0.7071067812162425 -1.1526597875013277e-12
  outer loop
    vertex 20.225572829065754 4.436630391250911 -1.0647340995797132
    vertex 21.47785363569198 3.3384095999268735 13.996597532879136
    vertex 20.225572818731397 4.436630401454614 13.996597532879994
  endloop
endfacet
facet normal -0.608761429038899 -0.7933533402680785 -1.219955238551468e-12
  outer loop
    vertex 21.47785363569198 3.3384095999268735 13.996597532879136
    vertex 20.225572829065754 4.436630391250911 -1.0647340995797132
    vertex 21.477853646026336 3.3384095897231676 -1.0647340995805705
  endloop
endfacet
facet normal -0.7933533403143516 -0.6087614289785951 -1.0656420078156108e-12
  outer loop
    vertex 19.127352017199094 5.688911218411191 13.996597532881108
    vertex 20.225572829065754 4.436630391250911 -1.0647340995797132
    vertex 20.225572818731397 4.436630401454614 13.996597532879994
  endloop
endfacet
facet normal -0.7071067811568525 -0.7071067812162425 -1.1526597875013277e-12
  outer loop
    vertex 20.225572829065754 4.436630391250911 -1.0647340995797132
    vertex 19.127352017199094 5.688911218411191 13.996597532881108
    vertex 19.127352027533448 5.688911208207488 -1.0647340995785994
  endloop
endfacet
facet normal -0.8660254038028953 -0.49999999996803207 -9.603907979725777e-13
  outer loop
    vertex 18.201982093493612 7.073825178820646 13.996597532882445
    vertex 19.127352027533448 5.688911208207488 -1.0647340995785994
    vertex 19.127352017199094 5.688911218411191 13.996597532881108
  endloop
endfacet
facet normal -0.7933533402658921 -0.6087614290417483 -1.0656420078742394e-12
  outer loop
    vertex 19.127352027533448 5.688911208207488 -1.0647340995785994
    vertex 18.201982093493612 7.073825178820646 13.996597532882445
    vertex 18.201982103827973 7.073825168616942 -1.0647340995772627
  endloop
endfacet
facet normal -0.9238795325247542 -0.38268343233257673 -8.387070353065196e-13
  outer loop
    vertex 17.46529638357056 8.567676020849685 13.996597532883992
    vertex 18.201982103827973 7.073825168616942 -1.0647340995772627
    vertex 18.201982093493612 7.073825178820646 13.996597532882445
  endloop
endfacet
facet normal -0.8660254037641457 -0.5000000000351484 -9.603907980399485e-13
  outer loop
    vertex 18.201982103827973 7.073825168616942 -1.0647340995772627
    vertex 17.46529638357056 8.567676020849685 13.996597532883992
    vertex 17.46529639390492 8.56767601064598 -1.0647340995757146
  endloop
endfacet
facet normal -0.9659258262975673 -0.25881904507080244 -7.026727627339118e-13
  outer loop
    vertex 16.929899784174598 10.14490354241749 13.996597532885724
    vertex 17.46529639390492 8.56767601064598 -1.0647340995757146
    vertex 17.46529638357056 8.567676020849685 13.996597532883992
  endloop
endfacet
facet normal -0.923879532496409 -0.38268343240100827 -8.387070353796433e-13
  outer loop
    vertex 17.46529639390492 8.56767601064598 -1.0647340995757146
    vertex 16.929899784174598 10.14490354241749 13.996597532885724
    vertex 16.929899794508955 10.144903532213787 -1.0647340995739831
  endloop
endfacet
facet normal -0.9914448613777117 -0.13052619219041814 -5.551876280875192e-13
  outer loop
    vertex 16.60495307956136 11.77852094333996 13.996597532887613
    vertex 16.929899794508955 10.144903532213787 -1.0647340995739831
    vertex 16.929899784174598 10.14490354241749 13.996597532885724
  endloop
endfacet
facet normal -0.9659258262796123 -0.2588190451378117 -7.026727628094074e-13
  outer loop
    vertex 16.929899794508955 10.144903532213787 -1.0647340995739831
    vertex 16.60495307956136 11.77852094333996 13.996597532887613
    vertex 16.604953089895716 11.778520933136257 -1.0647340995720938
  endloop
endfacet
facet normal -0.9978589232384821 -0.06540312923199681 -4.780048305696364e-13
  outer loop
    vertex 16.496016197939028 13.440576576963 13.996597532889618
    vertex 16.604953089895716 11.778520933136257 -1.0647340995720938
    vertex 16.60495307956136 11.77852094333996 13.996597532887613
  endloop
endfacet
facet normal -0.9914448613694249 -0.13052619225336415 -5.551876281612894e-13
  outer loop
    vertex 16.604953089895716 11.778520933136257 -1.0647340995720938
    vertex 16.496016197939028 13.440576576963 13.996597532889618
    vertex 16.49601620827339 13.4405765667593 -1.0647340995700887
  endloop
endfacet
facet normal -1.6729814220622773e-08 1.3311143886916207e-08 0.9999999999999998
  outer loop
    vertex 46.99601592977378 3.707073622146987 13.996597628381974
    vertex 41.996015929772 0.7070738009748696 13.996597597978697
    vertex 46.996015929772 0.7070737637248325 13.996597693560943
  endloop
endfacet
facet normal -1.6729814220622773e-08 1.3311143886916207e-08 0.9999999999999998
  outer loop
    vertex 41.996015929772 0.7070738009748696 13.996597597978697
    vertex 46.99601592977378 3.707073622146987 13.996597628381974
    vertex 41.99601592977379 3.7070736966542945 13.996597556666076
  endloop
endfacet
facet normal -7.153365327966825e-09 -1.5001625141276376e-09 1.0
  outer loop
    vertex 49.99601619406159 14.707073646604814 7.996597695835712
    vertex 46.996016030150884 0.7070736838579688 7.996597663263549
    vertex 49.996016030150884 0.7070736615079466 7.996597695823096
  endloop
endfacet
facet normal -7.153365327966825e-09 -1.5001625141276376e-09 1.0
  outer loop
    vertex 46.996016030150884 0.7070736838579688 7.996597663263549
    vertex 49.99601619406159 14.707073646604814 7.996597695835712
    vertex 46.99601603015267 3.7070735422801233 7.99659759808457
  endloop
endfacet
facet normal -7.153365327966825e-09 -1.5001625141276376e-09 1.0
  outer loop
    vertex 46.99601603015267 3.7070735422801233 7.99659759808457
    vertex 49.99601619406159 14.707073646604814 7.996597695835712
    vertex 41.99601603015268 3.7070736167874307 7.996597526368672
  endloop
endfacet
facet normal -7.153365327966825e-09 -1.5001625141276376e-09 1.0
  outer loop
    vertex 41.99601603015268 3.7070736167874307 7.996597526368672
    vertex 49.99601619406159 14.707073646604814 7.996597695835712
    vertex 37.996016071135664 3.7070736763932737 7.996597533115328
  endloop
endfacet
facet normal -7.153365327966825e-09 -1.5001625141276376e-09 1.0
  outer loop
    vertex 37.996016071135664 3.7070736763932737 7.996597533115328
    vertex 49.99601619406159 14.707073646604814 7.996597695835712
    vertex 32.99601607113567 3.707073750900581 7.996597545107383
  endloop
endfacet
facet normal -7.153365327966825e-09 -1.5001625141276376e-09 1.0
  outer loop
    vertex 32.99601607113567 3.707073750900581 7.996597545107383
    vertex 29.99601607113388 0.7070738105080948 7.9965975328816095
    vertex 32.99601607113388 0.7070737881580725 7.9965975573228345
  endloop
endfacet
facet normal -7.153365327966825e-09 -1.5001625141276376e-09 1.0
  outer loop
    vertex 29.99601607113388 0.7070738105080948 7.9965975328816095
    vertex 32.99601607113567 3.707073750900581 7.996597545107383
    vertex 29.99601619380101 20.707073795604963 7.996597532901611
  endloop
endfacet
facet normal -7.153365327966825e-09 -1.5001625141276376e-09 1.0
  outer loop
    vertex 29.99601619380101 20.707073795604963 7.996597532901611
    vertex 32.99601607113567 3.707073750900581 7.996597545107383
    vertex 35.99601619381101 14.707073750904918 7.996597581776663
  endloop
endfacet
facet normal -7.153365327966825e-09 -1.5001625141276376e-09 1.0
  outer loop
    vertex 35.99601619381101 14.707073750904918 7.996597581776663
    vertex 32.99601607113567 3.707073750900581 7.996597545107383
    vertex 49.99601619406159 14.707073646604814 7.996597695835712
  endloop
endfacet
facet normal -7.153365327966825e-09 -1.5001625141276376e-09 1.0
  outer loop
    vertex 41.99601603015268 3.7070736167874307 7.996597526368672
    vertex 37.99601607113388 0.7070737509080355 7.996597565584919
    vertex 41.996016030150884 0.7070737211080058 7.996597567681304
  endloop
endfacet
facet normal -7.153365327966825e-09 -1.5001625141276376e-09 1.0
  outer loop
    vertex 37.99601607113388 0.7070737509080355 7.996597565584919
    vertex 41.99601603015268 3.7070736167874307 7.996597526368672
    vertex 37.996016071135664 3.7070736763932737 7.996597533115328
  endloop
endfacet
facet normal -1.0 -1.7510893988783465e-16 3.7299702908047e-10
  outer loop
    vertex 32.99601607337365 3.7070737844125143 13.996597514481271
    vertex 32.99601607113388 0.7070737881580725 7.9965975573228345
    vertex 32.99601607337186 0.7070738216700059 13.996597526696736
  endloop
endfacet
facet normal -1.0 -1.7510893988783465e-16 3.7299702908047e-10
  outer loop
    vertex 32.99601607113388 0.7070737881580725 7.9965975573228345
    vertex 32.99601607337365 3.7070737844125143 13.996597514481271
    vertex 32.99601607113567 3.707073750900581 7.996597545107383
  endloop
endfacet
facet normal 1.0 -3.027650334729433e-18 -3.7299702908046897e-10
  outer loop
    vertex 37.99601607113388 0.7070737509080355 7.996597565584919
    vertex 37.996016073373646 3.707073709905207 13.996597502489218
    vertex 37.996016073371855 0.7070737844199688 13.99659753495881
  endloop
endfacet
facet normal 1.0 -3.027650334729433e-18 -3.7299702908046897e-10
  outer loop
    vertex 37.996016073373646 3.707073709905207 13.996597502489218
    vertex 37.99601607113388 0.7070737509080355 7.996597565584919
    vertex 37.996016071135664 3.7070736763932737 7.996597533115328
  endloop
endfacet
facet normal 3.7299702908046897e-10 5.585322275162738e-09 1.0
  outer loop
    vertex 37.996016073373646 3.707073709905207 13.996597502489218
    vertex 32.99601607337186 0.7070738216700059 13.996597526696736
    vertex 37.996016073371855 0.7070737844199688 13.99659753495881
  endloop
endfacet
facet normal 3.7299702908046897e-10 5.585322275162738e-09 1.0
  outer loop
    vertex 32.99601607337186 0.7070738216700059 13.996597526696736
    vertex 37.996016073373646 3.707073709905207 13.996597502489218
    vertex 32.99601607337365 3.7070737844125143 13.996597514481271
  endloop
endfacet
facet normal -3.4476683733276876e-10 0.8660254037838212 0.5000000000010697
  outer loop
    vertex 29.996016243124764 26.476171983666543 2.1852658429773393
    vertex 23.49601619863643 26.714549917552056 1.8746056667361959
    vertex 23.49601619842362 26.476171983654833 2.1852658385157238
  endloop
endfacet
facet normal -4.866406325433002e-10 0.7071067811856758 0.7071067811874194
  outer loop
    vertex 23.49601619863643 26.714549917552056 1.8746056667361959
    vertex 29.996016243124764 26.476171983666543 2.1852658429773393
    vertex 29.99601624333757 26.71454991756376 1.8746056711978116
  endloop
endfacet
facet normal 1.4901461451368042e-08 1.0 -5.585322280720938e-09
  outer loop
    vertex 32.99601607337365 3.7070737844125143 13.996597514481271
    vertex 37.996016071135664 3.7070736763932737 7.996597533115328
    vertex 32.99601607113567 3.707073750900581 7.996597545107383
  endloop
endfacet
facet normal 1.4901461451368042e-08 1.0 -5.585322280720938e-09
  outer loop
    vertex 37.996016071135664 3.7070736763932737 7.996597533115328
    vertex 32.99601607337365 3.7070737844125143 13.996597514481271
    vertex 37.996016073373646 3.707073709905207 13.996597502489218
  endloop
endfacet
facet normal -3.8461980632227533e-13 -1.2099537439893382e-12 1.0
  outer loop
    vertex 29.996016235066723 0.7070737806964399 13.996597532879274
    vertex 27.567463360629947 0.8160106623113407 13.996597532878452
    vertex 29.229518994253393 0.7070737806950694 13.99659753287897
  endloop
endfacet
facet normal -3.8461980632227533e-13 -1.2099537439893382e-12 1.0
  outer loop
    vertex 27.567463360629947 0.8160106623113407 13.996597532878452
    vertex 29.996016235066723 0.7070737806964399 13.996597532879274
    vertex 29.99601623500361 32.70707349751701 13.996597532918733
  endloop
endfacet
facet normal -3.8461980632227533e-13 -1.2099537439893382e-12 1.0
  outer loop
    vertex 27.567463360629947 0.8160106623113407 13.996597532878452
    vertex 29.99601623500361 32.70707349751701 13.996597532918733
    vertex 25.93384595970629 1.140957366918623 13.996597532878198
  endloop
endfacet
facet normal -3.8461980632227533e-13 -1.2099537439893382e-12 1.0
  outer loop
    vertex 25.93384595970629 1.140957366918623 13.996597532878198
    vertex 29.99601623500361 32.70707349751701 13.996597532918733
    vertex 24.356618438136536 1.6763539663088391 13.996597532878237
  endloop
endfacet
facet normal -3.8461980632227533e-13 -1.2099537439893382e-12 1.0
  outer loop
    vertex 24.356618438136536 1.6763539663088391 13.996597532878237
    vertex 29.99601623500361 32.70707349751701 13.996597532918733
    vertex 22.86276759610481 2.41303967622644 13.996597532878548
  endloop
endfacet
facet normal -3.8461980632227533e-13 -1.2099537439893382e-12 1.0
  outer loop
    vertex 22.86276759610481 2.41303967622644 13.996597532878548
    vertex 29.99601623500361 32.70707349751701 13.996597532918733
    vertex 21.47785363569198 3.3384095999268735 13.996597532879136
  endloop
endfacet
facet normal -3.8461980632227533e-13 -1.2099537439893382e-12 1.0
  outer loop
    vertex 21.47785363569198 3.3384095999268735 13.996597532879136
    vertex 29.99601623500361 32.70707349751701 13.996597532918733
    vertex 20.225572818731397 4.436630401454614 13.996597532879994
  endloop
endfacet
facet normal -3.8461980632227533e-13 -1.2099537439893382e-12 1.0
  outer loop
    vertex 20.225572818731397 4.436630401454614 13.996597532879994
    vertex 29.99601623500361 32.70707349751701 13.996597532918733
    vertex 19.127352017199094 5.688911218411191 13.996597532881108
  endloop
endfacet
facet normal -3.8461980632227533e-13 -1.2099537439893382e-12 1.0
  outer loop
    vertex 19.127352017199094 5.688911218411191 13.996597532881108
    vertex 29.99601623500361 32.70707349751701 13.996597532918733
    vertex 18.201982093493612 7.073825178820646 13.996597532882445
  endloop
endfacet
facet normal -3.8461980632227533e-13 -1.2099537439893382e-12 1.0
  outer loop
    vertex 18.201982093493612 7.073825178820646 13.996597532882445
    vertex 29.99601623500361 32.70707349751701 13.996597532918733
    vertex 17.46529638357056 8.567676020849685 13.996597532883992
  endloop
endfacet
facet normal -3.8461980632227533e-13 -1.2099537439893382e-12 1.0
  outer loop
    vertex 17.46529638357056 8.567676020849685 13.996597532883992
    vertex 29.99601623500361 32.70707349751701 13.996597532918733
    vertex 16.929899784174598 10.14490354241749 13.996597532885724
  endloop
endfacet
facet normal -3.8461980632227533e-13 -1.2099537439893382e-12 1.0
  outer loop
    vertex 16.929899784174598 10.14490354241749 13.996597532885724
    vertex 29.99601623500361 32.70707349751701 13.996597532918733
    vertex 16.60495307956136 11.77852094333996 13.996597532887613
  endloop
endfacet
facet normal -3.8461980632227533e-13 -1.2099537439893382e-12 1.0
  outer loop
    vertex 16.60495307956136 11.77852094333996 13.996597532887613
    vertex 29.99601623500361 32.70707349751701 13.996597532918733
    vertex 23.496016197916145 22.775210089316914 13.99659753290266
  endloop
endfacet
facet normal -3.8461980632227533e-13 -1.2099537439893382e-12 1.0
  outer loop
    vertex 16.60495307956136 11.77852094333996 13.996597532887613
    vertex 23.496016197916145 22.775210089316914 13.99659753290266
    vertex 16.496016197939028 13.440576576963 13.996597532889618
  endloop
endfacet
facet normal -3.8461980632227533e-13 -1.2099537439893382e-12 1.0
  outer loop
    vertex 16.496016197939028 13.440576576963 13.996597532889618
    vertex 23.496016197916145 22.775210089316914 13.99659753290266
    vertex 16.496016197921644 22.775210089304455 13.996597532901127
  endloop
endfacet
facet normal -3.8461980632227533e-13 -1.2099537439893382e-12 1.0
  outer loop
    vertex 23.496016197916145 22.775210089316914 13.99659753290266
    vertex 29.99601623500361 32.70707349751701 13.996597532918733
    vertex 23.49601619789412 32.707073497505384 13.996597532914908
  endloop
endfacet
facet normal -0.499999999964781 -0.8660254038047723 -1.2663769173032685e-12
  outer loop
    vertex 22.862767606439167 2.413039666022734 -1.0647340995811598
    vertex 24.356618438136536 1.6763539663088391 13.996597532878237
    vertex 22.86276759610481 2.41303967622644 13.996597532878548
  endloop
endfacet
facet normal -0.3826834323977863 -0.9238795324977436 -1.2911305358517242e-12
  outer loop
    vertex 24.356618438136536 1.6763539663088391 13.996597532878237
    vertex 22.862767606439167 2.413039666022734 -1.0647340995811598
    vertex 24.35661844847089 1.676353956105133 -1.06473409958147
  endloop
endfacet
facet normal -0.6087614289756597 -0.7933533403166038 -1.2199552385861912e-12
  outer loop
    vertex 21.477853646026336 3.3384095897231676 -1.0647340995805705
    vertex 22.86276759610481 2.41303967622644 13.996597532878548
    vertex 21.47785363569198 3.3384095999268735 13.996597532879136
  endloop
endfacet
facet normal -0.5000000000320832 -0.8660254037659156 -1.2663769172820803e-12
  outer loop
    vertex 22.86276759610481 2.41303967622644 13.996597532878548
    vertex 21.477853646026336 3.3384095897231676 -1.0647340995805705
    vertex 22.862767606439167 2.413039666022734 -1.0647340995811598
  endloop
endfacet
facet normal -0.3826834323290612 -0.9238795325262104 -1.2911305358595363e-12
  outer loop
    vertex 24.35661844847089 1.676353956105133 -1.06473409958147
    vertex 25.93384595970629 1.140957366918623 13.996597532878198
    vertex 24.356618438136536 1.6763539663088391 13.996597532878237
  endloop
endfacet
facet normal -0.2588190451344902 -0.9659258262805023 -1.2937925529833334e-12
  outer loop
    vertex 25.93384595970629 1.140957366918623 13.996597532878198
    vertex 24.35661844847089 1.676353956105133 -1.06473409958147
    vertex 25.933845970040633 1.140957356714917 -1.0647340995815096
  endloop
endfacet
facet normal -0.25881904506708053 -0.9659258262985645 -1.2937925529788387e-12
  outer loop
    vertex 25.933845970040633 1.140957356714917 -1.0647340995815096
    vertex 27.567463360629947 0.8160106623113407 13.996597532878452
    vertex 25.93384595970629 1.140957366918623 13.996597532878198
  endloop
endfacet
facet normal -0.13052619224999956 -0.9914448613698676 -1.274300730254211e-12
  outer loop
    vertex 27.567463360629947 0.8160106623113407 13.996597532878452
    vertex 25.933845970040633 1.140957356714917 -1.0647340995815096
    vertex 27.56746337096429 0.8160106521076346 -1.0647340995812558
  endloop
endfacet
facet normal -5.953506728576779e-10 0.4999999999989303 0.8660254037850564
  outer loop
    vertex 29.99601624350063 27.025210089343876 1.6362277373013587
    vertex 23.4960161989017 27.386981521678575 1.4863770990832466
    vertex 23.496016198799495 27.025210089332166 1.6362277328397432
  endloop
endfacet
facet normal -6.634885486803087e-10 0.25881904510132997 0.9659258262893874
  outer loop
    vertex 23.4960161989017 27.386981521678575 1.4863770990832466
    vertex 29.99601624350063 27.025210089343876 1.6362277373013587
    vertex 29.99601624360285 27.386981521690277 1.486377103544862
  endloop
endfacet
facet normal -6.634885486803088e-10 0.258819045101329 0.9659258262893876
  outer loop
    vertex 29.99601624360285 27.386981521690277 1.486377103544862
    vertex 23.496016198936083 27.775210089332415 1.435265838517327
    vertex 23.4960161989017 27.386981521678575 1.4863770990832466
  endloop
endfacet
facet normal -6.864107763770466e-10 -1.2263640309505547e-12 1.0
  outer loop
    vertex 23.496016198936083 27.775210089332415 1.435265838517327
    vertex 29.99601624360285 27.386981521690277 1.486377103544862
    vertex 29.996016243637232 27.775210089344124 1.4352658429789424
  endloop
endfacet
facet normal -4.866406325433e-10 0.7071067811856759 0.7071067811874191
  outer loop
    vertex 29.99601624333757 26.71454991756376 1.8746056711978116
    vertex 23.496016198799495 27.025210089332166 1.6362277328397432
    vertex 23.49601619863643 26.714549917552056 1.8746056667361959
  endloop
endfacet
facet normal -5.953506728576772e-10 0.49999999999893124 0.8660254037850557
  outer loop
    vertex 23.496016198799495 27.025210089332166 1.6362277328397432
    vertex 29.99601624333757 26.71454991756376 1.8746056711978116
    vertex 29.99601624350063 27.025210089343876 1.6362277373013587
  endloop
endfacet
facet normal -6.864107763770465e-10 -1.2263462087307635e-12 1.0
  outer loop
    vertex 29.996016243637232 27.775210089344124 1.4352658429789424
    vertex 23.496016198900303 28.16343865698613 1.4863770990841982
    vertex 23.496016198936083 27.775210089332415 1.435265838517327
  endloop
endfacet
facet normal -6.625552440111305e-10 -0.25881904510371084 0.9659258262887495
  outer loop
    vertex 23.496016198900303 28.16343865698613 1.4863770990841982
    vertex 29.996016243637232 27.775210089344124 1.4352658429789424
    vertex 29.996016243601453 28.16343865699784 1.4863771035458138
  endloop
endfacet
facet normal -1.0 -1.873606726355743e-12 -3.8852726325336676e-13
  outer loop
    vertex 16.496016208255792 22.77521007910075 -1.0647341614903572
    vertex 16.496016197939028 13.440576576963 13.996597532889618
    vertex 16.496016197921644 22.775210089304455 13.996597532901127
  endloop
endfacet
facet normal -1.0 -1.873606726355743e-12 -3.8852726325336676e-13
  outer loop
    vertex 16.496016197939028 13.440576576963 13.996597532889618
    vertex 16.496016208255792 22.77521007910075 -1.0647341614903572
    vertex 16.49601620827339 13.4405765667593 -1.0647340995700887
  endloop
endfacet
facet normal -5.21720312046122e-09 -1.0 5.934731178132191e-09
  outer loop
    vertex 29.22951900458773 0.7070737704913632 -1.0647340995807368
    vertex 29.996016235066723 0.7070737806964399 13.996597532879274
    vertex 29.229518994253393 0.7070737806950694 13.99659753287897
  endloop
endfacet
facet normal -5.21720312046122e-09 -1.0 5.934731178132191e-09
  outer loop
    vertex 29.996016235066723 0.7070737806964399 13.996597532879274
    vertex 29.22951900458773 0.7070737704913632 -1.0647340995807368
    vertex 29.99601607113388 0.7070738105080948 7.9965975328816095
  endloop
endfacet
facet normal -5.21720312046122e-09 -1.0 5.934731178132191e-09
  outer loop
    vertex 49.99601620441429 0.7070736214925856 -1.0647339985707331
    vertex 29.99601607113388 0.7070738105080948 7.9965975328816095
    vertex 29.22951900458773 0.7070737704913632 -1.0647340995807368
  endloop
endfacet
facet normal -5.21720312046122e-09 -1.0 5.934731178132191e-09
  outer loop
    vertex 29.99601607113388 0.7070738105080948 7.9965975328816095
    vertex 49.99601620441429 0.7070736214925856 -1.0647339985707331
    vertex 32.99601607113388 0.7070737881580725 7.9965975573228345
  endloop
endfacet
facet normal -5.21720312046122e-09 -1.0 5.934731178132191e-09
  outer loop
    vertex 32.99601607113388 0.7070737881580725 7.9965975573228345
    vertex 49.99601620441429 0.7070736214925856 -1.0647339985707331
    vertex 37.99601607113388 0.7070737509080355 7.996597565584919
  endloop
endfacet
facet normal -5.21720312046122e-09 -1.0 5.934731178132191e-09
  outer loop
    vertex 32.99601607113388 0.7070737881580725 7.9965975573228345
    vertex 37.99601607113388 0.7070737509080355 7.996597565584919
    vertex 32.99601607337186 0.7070738216700059 13.996597526696736
  endloop
endfacet
facet normal -5.21720312046122e-09 -1.0 5.934731178132191e-09
  outer loop
    vertex 37.99601607113388 0.7070737509080355 7.996597565584919
    vertex 49.99601620441429 0.7070736214925856 -1.0647339985707331
    vertex 41.996016030150884 0.7070737211080058 7.996597567681304
  endloop
endfacet
facet normal -5.21720312046122e-09 -1.0 5.934731178132191e-09
  outer loop
    vertex 41.996016030150884 0.7070737211080058 7.996597567681304
    vertex 49.99601620441429 0.7070736214925856 -1.0647339985707331
    vertex 46.996016030150884 0.7070736838579688 7.996597663263549
  endloop
endfacet
facet normal -5.21720312046122e-09 -1.0 5.934731178132191e-09
  outer loop
    vertex 41.996016030150884 0.7070737211080058 7.996597567681304
    vertex 46.996016030150884 0.7070736838579688 7.996597663263549
    vertex 46.996015929772 0.7070737637248325 13.996597693560943
  endloop
endfacet
facet normal -5.21720312046122e-09 -1.0 5.934731178132191e-09
  outer loop
    vertex 46.996016030150884 0.7070736838579688 7.996597663263549
    vertex 49.99601620441429 0.7070736214925856 -1.0647339985707331
    vertex 49.996016030150884 0.7070736615079466 7.996597695823096
  endloop
endfacet
facet normal -5.21720312046122e-09 -1.0 5.934731178132191e-09
  outer loop
    vertex 46.996015929772 0.7070737637248325 13.996597693560943
    vertex 41.996015929772 0.7070738009748696 13.996597597978697
    vertex 41.996016030150884 0.7070737211080058 7.996597567681304
  endloop
endfacet
facet normal -5.21720312046122e-09 -1.0 5.934731178132191e-09
  outer loop
    vertex 37.996016073371855 0.7070737844199688 13.99659753495881
    vertex 32.99601607337186 0.7070738216700059 13.996597526696736
    vertex 37.99601607113388 0.7070737509080355 7.996597565584919
  endloop
endfacet
facet normal 1.0 -2.5965857053732212e-09 -1.0993389725368318e-09
  outer loop
    vertex 29.99601619380101 20.707073795604963 7.996597532901611
    vertex 29.99601624161378 27.386981521686707 4.384154582412153
    vertex 29.996016241578 27.775210089340423 4.435265842979027
  endloop
endfacet
facet normal 1.0 -2.5965857053732212e-09 -1.0993389725368318e-09
  outer loop
    vertex 29.99601624161378 27.386981521686707 4.384154582412153
    vertex 29.99601619380101 20.707073795604963 7.996597532901611
    vertex 29.996016241717285 27.02521008934067 4.234303948654671
  endloop
endfacet
facet normal 1.0 -2.5965857053732212e-09 -1.0993389725368318e-09
  outer loop
    vertex 29.996016241717285 27.02521008934067 4.234303948654671
    vertex 29.99601619380101 20.707073795604963 7.996597532901611
    vertex 29.996016241881474 26.714549917561147 3.9959260147574494
  endloop
endfacet
facet normal 1.0 -2.5965857053732212e-09 -1.0993389725368318e-09
  outer loop
    vertex 29.996016241881474 26.714549917561147 3.9959260147574494
    vertex 29.99601619380101 20.707073795604963 7.996597532901611
    vertex 29.996016245366008 20.707073785393863 -1.0647341614875598
  endloop
endfacet
facet normal 1.0 -2.5965857053732212e-09 -1.0993389725368318e-09
  outer loop
    vertex 29.996016241881474 26.714549917561147 3.9959260147574494
    vertex 29.996016245366008 20.707073785393863 -1.0647341614875598
    vertex 29.996016242095138 26.476171983664692 3.6852658429773366
  endloop
endfacet
facet normal 1.0 -2.5965857053732212e-09 -1.0993389725368318e-09
  outer loop
    vertex 29.996016242095138 26.476171983664692 3.6852658429773366
    vertex 29.996016245366008 20.707073785393863 -1.0647341614875598
    vertex 29.996016242343746 26.32632134990819 3.3234944106309317
  endloop
endfacet
facet normal 1.0 -2.5965857053732212e-09 -1.0993389725368318e-09
  outer loop
    vertex 29.996016242343746 26.32632134990819 3.3234944106309317
    vertex 29.996016245366008 20.707073785393863 -1.0647341614875598
    vertex 29.996016242610313 26.275210089342277 2.9352658429770897
  endloop
endfacet
facet normal 1.0 -2.5965857053732212e-09 -1.0993389725368318e-09
  outer loop
    vertex 29.996016242610313 26.275210089342277 2.9352658429770897
    vertex 29.996016245366008 20.707073785393863 -1.0647341614875598
    vertex 29.996016242876696 26.32632134990915 2.5470372753233748
  endloop
endfacet
facet normal 1.0 -2.5965857053732212e-09 -1.0993389725368318e-09
  outer loop
    vertex 29.996016242876696 26.32632134990915 2.5470372753233748
    vertex 29.996016245366008 20.707073785393863 -1.0647341614875598
    vertex 29.996016243124764 26.476171983666543 2.1852658429773393
  endloop
endfacet
facet normal 1.0 -2.5965857053732212e-09 -1.0993389725368318e-09
  outer loop
    vertex 29.996016243124764 26.476171983666543 2.1852658429773393
    vertex 29.996016245366008 20.707073785393863 -1.0647341614875598
    vertex 29.99601624333757 26.71454991756376 1.8746056711978116
  endloop
endfacet
facet normal 1.0 -2.5965857053732212e-09 -1.0993389725368318e-09
  outer loop
    vertex 29.99601624333757 26.71454991756376 1.8746056711978116
    vertex 29.996016245366008 20.707073785393863 -1.0647341614875598
    vertex 29.99601624350063 27.025210089343876 1.6362277373013587
  endloop
endfacet
facet normal 1.0 -2.5965857053732212e-09 -1.0993389725368318e-09
  outer loop
    vertex 29.99601624350063 27.025210089343876 1.6362277373013587
    vertex 29.996016245366008 20.707073785393863 -1.0647341614875598
    vertex 29.99601624360285 27.386981521690277 1.486377103544862
  endloop
endfacet
facet normal 1.0 -2.5965857053732212e-09 -1.0993389725368318e-09
  outer loop
    vertex 29.99601624360285 27.386981521690277 1.486377103544862
    vertex 29.996016245366008 20.707073785393863 -1.0647341614875598
    vertex 29.996016243637232 27.775210089344124 1.4352658429789424
  endloop
endfacet
facet normal 1.0 -2.5965857053732212e-09 -1.0993389725368318e-09
  outer loop
    vertex 29.99601607113388 0.7070738105080948 7.9965975328816095
    vertex 29.99601623500361 32.70707349751701 13.996597532918733
    vertex 29.996016235066723 0.7070737806964399 13.996597532879274
  endloop
endfacet
facet normal 1.0 -2.5965857053732212e-09 -1.0993389725368318e-09
  outer loop
    vertex 29.99601623500361 32.70707349751701 13.996597532918733
    vertex 29.99601607113388 0.7070738105080948 7.9965975328816095
    vertex 29.99601619380101 20.707073795604963 7.996597532901611
  endloop
endfacet
facet normal 1.0 -2.5965857053732212e-09 -1.0993389725368318e-09
  outer loop
    vertex 29.99601623500361 32.70707349751701 13.996597532918733
    vertex 29.99601619380101 20.707073795604963 7.996597532901611
    vertex 29.996016241714578 28.52521008934067 4.23430394865652
  endloop
endfacet
facet normal 1.0 -2.5965857053732212e-09 -1.0993389725368318e-09
  outer loop
    vertex 29.99601623500361 32.70707349751701 13.996597532918733
    vertex 29.996016241714578 28.52521008934067 4.23430394865652
    vertex 29.99601624187764 28.835870261120782 3.9959260147600637
  endloop
endfacet
facet normal 1.0 -2.5965857053732212e-09 -1.0993389725368318e-09
  outer loop
    vertex 29.99601623500361 32.70707349751701 13.996597532918733
    vertex 29.99601624187764 28.835870261120782 3.9959260147600637
    vertex 29.99601624209047 29.074248195018004 3.6852658429805403
  endloop
endfacet
facet normal 1.0 -2.5965857053732212e-09 -1.0993389725368318e-09
  outer loop
    vertex 29.99601623500361 32.70707349751701 13.996597532918733
    vertex 29.99601624209047 29.074248195018004 3.6852658429805403
    vertex 29.996016245345988 32.7070734873133 -1.0647341614727635
  endloop
endfacet
facet normal 1.0 -2.5965857053732212e-09 -1.0993389725368318e-09
  outer loop
    vertex 29.996016241714578 28.52521008934067 4.23430394865652
    vertex 29.99601619380101 20.707073795604963 7.996597532901611
    vertex 29.99601624161238 28.16343865699427 4.38415458241311
  endloop
endfacet
facet normal 1.0 -2.5965857053732212e-09 -1.0993389725368318e-09
  outer loop
    vertex 29.99601624161238 28.16343865699427 4.38415458241311
    vertex 29.99601619380101 20.707073795604963 7.996597532901611
    vertex 29.996016241578 27.775210089340423 4.435265842979027
  endloop
endfacet
facet normal 1.0 -2.5965857053732212e-09 -1.0993389725368318e-09
  outer loop
    vertex 29.996016245345988 32.7070734873133 -1.0647341614727635
    vertex 29.99601624209047 29.074248195018004 3.6852658429805403
    vertex 29.996016242338513 29.22409882877539 3.323494410634505
  endloop
endfacet
facet normal 1.0 -2.5965857053732212e-09 -1.0993389725368318e-09
  outer loop
    vertex 29.996016245345988 32.7070734873133 -1.0647341614727635
    vertex 29.996016242338513 29.22409882877539 3.323494410634505
    vertex 29.9960162426049 29.27521008934227 2.9352658429807894
  endloop
endfacet
facet normal 1.0 -2.5965857053732212e-09 -1.0993389725368318e-09
  outer loop
    vertex 29.996016245345988 32.7070734873133 -1.0647341614727635
    vertex 29.9960162426049 29.27521008934227 2.9352658429807894
    vertex 29.996016242871487 29.22409882877635 2.547037275326942
  endloop
endfacet
facet normal 1.0 -2.5965857053732212e-09 -1.0993389725368318e-09
  outer loop
    vertex 29.996016245345988 32.7070734873133 -1.0647341614727635
    vertex 29.996016242871487 29.22409882877635 2.547037275326942
    vertex 29.99601624312007 29.074248195019855 2.185265842980543
  endloop
endfacet
facet normal 1.0 -2.5965857053732212e-09 -1.0993389725368318e-09
  outer loop
    vertex 29.996016245345988 32.7070734873133 -1.0647341614727635
    vertex 29.99601624312007 29.074248195019855 2.185265842980543
    vertex 29.996016243333735 28.8358702611234 1.874605671200427
  endloop
endfacet
facet normal 1.0 -2.5965857053732212e-09 -1.0993389725368318e-09
  outer loop
    vertex 29.996016245345988 32.7070734873133 -1.0647341614727635
    vertex 29.996016243333735 28.8358702611234 1.874605671200427
    vertex 29.996016243497923 28.525210089343872 1.6362277373032088
  endloop
endfacet
facet normal 1.0 -2.5965857053732212e-09 -1.0993389725368318e-09
  outer loop
    vertex 29.996016245345988 32.7070734873133 -1.0647341614727635
    vertex 29.996016243497923 28.525210089343872 1.6362277373032088
    vertex 29.996016243601453 28.16343865699784 1.4863771035458138
  endloop
endfacet
facet normal 1.0 -2.5965857053732212e-09 -1.0993389725368318e-09
  outer loop
    vertex 29.996016245345988 32.7070734873133 -1.0647341614727635
    vertex 29.996016243601453 28.16343865699784 1.4863771035458138
    vertex 29.996016243637232 27.775210089344124 1.4352658429789424
  endloop
endfacet
facet normal 1.0 -2.5965857053732212e-09 -1.0993389725368318e-09
  outer loop
    vertex 29.996016245345988 32.7070734873133 -1.0647341614727635
    vertex 29.996016243637232 27.775210089344124 1.4352658429789424
    vertex 29.996016245366008 20.707073785393863 -1.0647341614875598
  endloop
endfacet
facet normal 2.582488002298184e-09 -2.5543355305819656e-09 -1.0
  outer loop
    vertex 29.22951900458773 0.7070737704913632 -1.0647340995807368
    vertex 49.996016204393015 14.707073636393718 -1.064733998553475
    vertex 49.99601620441429 0.7070736214925856 -1.0647339985707331
  endloop
endfacet
facet normal 2.582488002298184e-09 -2.5543355305819656e-09 -1.0
  outer loop
    vertex 49.996016204393015 14.707073636393718 -1.064733998553475
    vertex 29.22951900458773 0.7070737704913632 -1.0647340995807368
    vertex 27.56746337096429 0.8160106521076346 -1.0647340995812558
  endloop
endfacet
facet normal 2.582488002298184e-09 -2.5543355305819656e-09 -1.0
  outer loop
    vertex 49.996016204393015 14.707073636393718 -1.064733998553475
    vertex 27.56746337096429 0.8160106521076346 -1.0647340995812558
    vertex 25.933845970040633 1.140957356714917 -1.0647340995815096
  endloop
endfacet
facet normal 2.582488002298184e-09 -2.5543355305819656e-09 -1.0
  outer loop
    vertex 49.996016204393015 14.707073636393718 -1.064733998553475
    vertex 25.933845970040633 1.140957356714917 -1.0647340995815096
    vertex 24.35661844847089 1.676353956105133 -1.06473409958147
  endloop
endfacet
facet normal 2.582488002298184e-09 -2.5543355305819656e-09 -1.0
  outer loop
    vertex 49.996016204393015 14.707073636393718 -1.064733998553475
    vertex 24.35661844847089 1.676353956105133 -1.06473409958147
    vertex 22.862767606439167 2.413039666022734 -1.0647340995811598
  endloop
endfacet
facet normal 2.582488002298184e-09 -2.5543355305819656e-09 -1.0
  outer loop
    vertex 49.996016204393015 14.707073636393718 -1.064733998553475
    vertex 22.862767606439167 2.413039666022734 -1.0647340995811598
    vertex 21.477853646026336 3.3384095897231676 -1.0647340995805705
  endloop
endfacet
facet normal 2.582488002298184e-09 -2.5543355305819656e-09 -1.0
  outer loop
    vertex 49.996016204393015 14.707073636393718 -1.064733998553475
    vertex 21.477853646026336 3.3384095897231676 -1.0647340995805705
    vertex 20.225572829065754 4.436630391250911 -1.0647340995797132
  endloop
endfacet
facet normal 2.582488002298184e-09 -2.5543355305819656e-09 -1.0
  outer loop
    vertex 49.996016204393015 14.707073636393718 -1.064733998553475
    vertex 20.225572829065754 4.436630391250911 -1.0647340995797132
    vertex 19.127352027533448 5.688911208207488 -1.0647340995785994
  endloop
endfacet
facet normal 2.582488002298184e-09 -2.5543355305819656e-09 -1.0
  outer loop
    vertex 49.996016204393015 14.707073636393718 -1.064733998553475
    vertex 19.127352027533448 5.688911208207488 -1.0647340995785994
    vertex 18.201982103827973 7.073825168616942 -1.0647340995772627
  endloop
endfacet
facet normal 2.582488002298184e-09 -2.5543355305819656e-09 -1.0
  outer loop
    vertex 49.996016204393015 14.707073636393718 -1.064733998553475
    vertex 18.201982103827973 7.073825168616942 -1.0647340995772627
    vertex 17.46529639390492 8.56767601064598 -1.0647340995757146
  endloop
endfacet
facet normal 2.582488002298184e-09 -2.5543355305819656e-09 -1.0
  outer loop
    vertex 49.996016204393015 14.707073636393718 -1.064733998553475
    vertex 17.46529639390492 8.56767601064598 -1.0647340995757146
    vertex 16.929899794508955 10.144903532213787 -1.0647340995739831
  endloop
endfacet
facet normal 2.582488002298184e-09 -2.5543355305819656e-09 -1.0
  outer loop
    vertex 49.996016204393015 14.707073636393718 -1.064733998553475
    vertex 16.929899794508955 10.144903532213787 -1.0647340995739831
    vertex 16.604953089895716 11.778520933136257 -1.0647340995720938
  endloop
endfacet
facet normal 2.582488002298184e-09 -2.5543355305819656e-09 -1.0
  outer loop
    vertex 49.996016204393015 14.707073636393718 -1.064733998553475
    vertex 16.604953089895716 11.778520933136257 -1.0647340995720938
    vertex 16.49601620827339 13.4405765667593 -1.0647340995700887
  endloop
endfacet
facet normal 2.582488002298184e-09 -2.5543355305819656e-09 -1.0
  outer loop
    vertex 49.996016204393015 14.707073636393718 -1.064733998553475
    vertex 16.49601620827339 13.4405765667593 -1.0647340995700887
    vertex 35.99601624537601 14.707073740693822 -1.0647341126125183
  endloop
endfacet
facet normal 2.582488002298184e-09 -2.5543355305819656e-09 -1.0
  outer loop
    vertex 35.99601624537601 14.707073740693822 -1.0647341126125183
    vertex 16.49601620827339 13.4405765667593 -1.0647340995700887
    vertex 16.496016208255792 22.77521007910075 -1.0647341614903572
  endloop
endfacet
facet normal 2.582488002298184e-09 -2.5543355305819656e-09 -1.0
  outer loop
    vertex 35.99601624537601 14.707073740693822 -1.0647341126125183
    vertex 16.496016208255792 22.77521007910075 -1.0647341614903572
    vertex 29.996016245366008 20.707073785393863 -1.0647341614875598
  endloop
endfacet
facet normal 2.582488002298184e-09 -2.5543355305819656e-09 -1.0
  outer loop
    vertex 29.996016245366008 20.707073785393863 -1.0647341614875598
    vertex 16.496016208255792 22.77521007910075 -1.0647341614903572
    vertex 23.49601620825029 22.775210079113208 -1.064734161488823
  endloop
endfacet
facet normal 2.582488002298184e-09 -2.5543355305819656e-09 -1.0
  outer loop
    vertex 29.996016245366008 20.707073785393863 -1.0647341614875598
    vertex 23.49601620825029 22.775210079113208 -1.064734161488823
    vertex 29.996016245345988 32.7070734873133 -1.0647341614727635
  endloop
endfacet
facet normal 2.582488002298184e-09 -2.5543355305819656e-09 -1.0
  outer loop
    vertex 29.996016245345988 32.7070734873133 -1.0647341614727635
    vertex 23.49601620825029 22.775210079113208 -1.064734161488823
    vertex 23.496016208236504 32.70707348730168 -1.064734161476576
  endloop
endfacet
facet normal -1.0 -1.8028925115290994e-12 -6.864110376558644e-10
  outer loop
    vertex 23.496016208236504 32.70707348730168 -1.064734161476576
    vertex 23.496016197916145 22.775210089316914 13.99659753290266
    vertex 23.49601619789412 32.707073497505384 13.996597532914908
  endloop
endfacet
facet normal -1.0 -1.8028925115290994e-12 -6.864110376558644e-10
  outer loop
    vertex 23.496016197916145 22.775210089316914 13.99659753290266
    vertex 23.496016208236504 32.70707348730168 -1.064734161476576
    vertex 23.49601619738932 29.074248195006295 3.6852658385189243
  endloop
endfacet
facet normal -1.0 -1.8028925115290994e-12 -6.864110376558644e-10
  outer loop
    vertex 23.496016197916145 22.775210089316914 13.99659753290266
    vertex 23.49601619738932 29.074248195006295 3.6852658385189243
    vertex 23.49601619717651 28.835870261109076 3.995926010298448
  endloop
endfacet
facet normal -1.0 -1.8028925115290994e-12 -6.864110376558644e-10
  outer loop
    vertex 23.496016197916145 22.775210089316914 13.99659753290266
    vertex 23.49601619717651 28.835870261109076 3.995926010298448
    vertex 23.496016197013443 28.52521008932896 4.234303944194905
  endloop
endfacet
facet normal -1.0 -1.8028925115290994e-12 -6.864110376558644e-10
  outer loop
    vertex 23.496016197916145 22.775210089316914 13.99659753290266
    vertex 23.496016197013443 28.52521008932896 4.234303944194905
    vertex 23.496016196911235 28.163438656982567 4.384154577951405
  endloop
endfacet
facet normal -1.0 -1.8028925115290994e-12 -6.864110376558644e-10
  outer loop
    vertex 23.496016197916145 22.775210089316914 13.99659753290266
    vertex 23.496016196911235 28.163438656982567 4.384154577951405
    vertex 23.49601619687685 27.775210089328713 4.435265838517322
  endloop
endfacet
facet normal -1.0 -1.8028925115290994e-12 -6.864110376558644e-10
  outer loop
    vertex 23.49601619738932 29.074248195006295 3.6852658385189243
    vertex 23.496016208236504 32.70707348730168 -1.064734161476576
    vertex 23.49601619763737 29.224098828763687 3.3234944061728893
  endloop
endfacet
facet normal -1.0 -1.8028925115290994e-12 -6.864110376558644e-10
  outer loop
    vertex 23.49601619763737 29.224098828763687 3.3234944061728893
    vertex 23.496016208236504 32.70707348730168 -1.064734161476576
    vertex 23.496016197903764 29.27521008933056 2.935265838519174
  endloop
endfacet
facet normal -1.0 -1.8028925115290994e-12 -6.864110376558644e-10
  outer loop
    vertex 23.496016197903764 29.27521008933056 2.935265838519174
    vertex 23.496016208236504 32.70707348730168 -1.064734161476576
    vertex 23.49601619817034 29.224098828764646 2.5470372708653266
  endloop
endfacet
facet normal -1.0 -1.8028925115290994e-12 -6.864110376558644e-10
  outer loop
    vertex 23.49601619817034 29.224098828764646 2.5470372708653266
    vertex 23.496016208236504 32.70707348730168 -1.064734161476576
    vertex 23.496016198418932 29.074248195008146 2.1852658385189274
  endloop
endfacet
facet normal -1.0 -1.8028925115290994e-12 -6.864110376558644e-10
  outer loop
    vertex 23.496016198418932 29.074248195008146 2.1852658385189274
    vertex 23.496016208236504 32.70707348730168 -1.064734161476576
    vertex 23.496016198632603 28.83587026111169 1.8746056667388113
  endloop
endfacet
facet normal -1.0 -1.8028925115290994e-12 -6.864110376558644e-10
  outer loop
    vertex 23.496016198632603 28.83587026111169 1.8746056667388113
    vertex 23.496016208236504 32.70707348730168 -1.064734161476576
    vertex 23.496016198796788 28.525210089332166 1.636227732841593
  endloop
endfacet
facet normal -1.0 -1.8028925115290994e-12 -6.864110376558644e-10
  outer loop
    vertex 23.496016198796788 28.525210089332166 1.636227732841593
    vertex 23.496016208236504 32.70707348730168 -1.064734161476576
    vertex 23.496016198900303 28.16343865698613 1.4863770990841982
  endloop
endfacet
facet normal -1.0 -1.8028925115290994e-12 -6.864110376558644e-10
  outer loop
    vertex 23.496016198900303 28.16343865698613 1.4863770990841982
    vertex 23.496016208236504 32.70707348730168 -1.064734161476576
    vertex 23.496016198936083 27.775210089332415 1.435265838517327
  endloop
endfacet
facet normal -1.0 -1.8028925115290994e-12 -6.864110376558644e-10
  outer loop
    vertex 23.496016197916145 22.775210089316914 13.99659753290266
    vertex 23.49601619718033 26.714549917549437 3.995926010295834
    vertex 23.49601620825029 22.775210079113208 -1.064734161488823
  endloop
endfacet
facet normal -1.0 -1.8028925115290994e-12 -6.864110376558644e-10
  outer loop
    vertex 23.49601619718033 26.714549917549437 3.995926010295834
    vertex 23.496016197916145 22.775210089316914 13.99659753290266
    vertex 23.496016197016147 27.025210089328965 4.234303944193055
  endloop
endfacet
facet normal -1.0 -1.8028925115290994e-12 -6.864110376558644e-10
  outer loop
    vertex 23.496016197016147 27.025210089328965 4.234303944193055
    vertex 23.496016197916145 22.775210089316914 13.99659753290266
    vertex 23.496016196912635 27.386981521675004 4.384154577950447
  endloop
endfacet
facet normal -1.0 -1.8028925115290994e-12 -6.864110376558644e-10
  outer loop
    vertex 23.496016196912635 27.386981521675004 4.384154577950447
    vertex 23.496016197916145 22.775210089316914 13.99659753290266
    vertex 23.49601619687685 27.775210089328713 4.435265838517322
  endloop
endfacet
facet normal -1.0 -1.8028925115290994e-12 -6.864110376558644e-10
  outer loop
    vertex 23.49601620825029 22.775210079113208 -1.064734161488823
    vertex 23.49601619718033 26.714549917549437 3.995926010295834
    vertex 23.496016197394002 26.476171983652982 3.685265838515721
  endloop
endfacet
facet normal -1.0 -1.8028925115290994e-12 -6.864110376558644e-10
  outer loop
    vertex 23.49601620825029 22.775210079113208 -1.064734161488823
    vertex 23.496016197394002 26.476171983652982 3.685265838515721
    vertex 23.496016197642597 26.32632134989649 3.323494406169316
  endloop
endfacet
facet normal -1.0 -1.8028925115290994e-12 -6.864110376558644e-10
  outer loop
    vertex 23.49601620825029 22.775210079113208 -1.064734161488823
    vertex 23.496016197642597 26.32632134989649 3.323494406169316
    vertex 23.496016197909174 26.275210089330567 2.935265838515474
  endloop
endfacet
facet normal -1.0 -1.8028925115290994e-12 -6.864110376558644e-10
  outer loop
    vertex 23.49601620825029 22.775210079113208 -1.064734161488823
    vertex 23.496016197909174 26.275210089330567 2.935265838515474
    vertex 23.496016198175564 26.326321349897448 2.5470372708617592
  endloop
endfacet
facet normal -1.0 -1.8028925115290994e-12 -6.864110376558644e-10
  outer loop
    vertex 23.49601620825029 22.775210079113208 -1.064734161488823
    vertex 23.496016198175564 26.326321349897448 2.5470372708617592
    vertex 23.49601619842362 26.476171983654833 2.1852658385157238
  endloop
endfacet
facet normal -1.0 -1.8028925115290994e-12 -6.864110376558644e-10
  outer loop
    vertex 23.49601620825029 22.775210079113208 -1.064734161488823
    vertex 23.49601619842362 26.476171983654833 2.1852658385157238
    vertex 23.49601619863643 26.714549917552056 1.8746056667361959
  endloop
endfacet
facet normal -1.0 -1.8028925115290994e-12 -6.864110376558644e-10
  outer loop
    vertex 23.49601620825029 22.775210079113208 -1.064734161488823
    vertex 23.49601619863643 26.714549917552056 1.8746056667361959
    vertex 23.496016198799495 27.025210089332166 1.6362277328397432
  endloop
endfacet
facet normal -1.0 -1.8028925115290994e-12 -6.864110376558644e-10
  outer loop
    vertex 23.49601620825029 22.775210079113208 -1.064734161488823
    vertex 23.496016198799495 27.025210089332166 1.6362277328397432
    vertex 23.4960161989017 27.386981521678575 1.4863770990832466
  endloop
endfacet
facet normal -1.0 -1.8028925115290994e-12 -6.864110376558644e-10
  outer loop
    vertex 23.49601620825029 22.775210079113208 -1.064734161488823
    vertex 23.4960161989017 27.386981521678575 1.4863770990832466
    vertex 23.496016198936083 27.775210089332415 1.435265838517327
  endloop
endfacet
facet normal -1.0 -1.8028925115290994e-12 -6.864110376558644e-10
  outer loop
    vertex 23.49601620825029 22.775210079113208 -1.064734161488823
    vertex 23.496016198936083 27.775210089332415 1.435265838517327
    vertex 23.496016208236504 32.70707348730168 -1.064734161476576
  endloop
endfacet
facet normal -1.7875602243848366e-12 1.0 1.2330206300404928e-12
  outer loop
    vertex 29.99601623500361 32.70707349751701 13.996597532918733
    vertex 23.496016208236504 32.70707348730168 -1.064734161476576
    vertex 23.49601619789412 32.707073497505384 13.996597532914908
  endloop
endfacet
facet normal -1.7875602243848366e-12 1.0 1.2330206300404928e-12
  outer loop
    vertex 23.496016208236504 32.70707348730168 -1.064734161476576
    vertex 29.99601623500361 32.70707349751701 13.996597532918733
    vertex 29.996016245345988 32.7070734873133 -1.0647341614727635
  endloop
endfacet
facet normal 7.450007416538126e-09 1.0 1.2328551437418983e-12
  outer loop
    vertex 49.99601619406159 14.707073646604814 7.996597695835712
    vertex 35.99601624537601 14.707073740693822 -1.0647341126125183
    vertex 35.99601619381101 14.707073750904918 7.996597581776663
  endloop
endfacet
facet normal 7.450007416538126e-09 1.0 1.2328551437418983e-12
  outer loop
    vertex 35.99601624537601 14.707073740693822 -1.0647341126125183
    vertex 49.99601619406159 14.707073646604814 7.996597695835712
    vertex 49.996016204393015 14.707073636393718 -1.064733998553475
  endloop
endfacet
facet normal 1.0 -7.450007518981703e-09 8.147073238163376e-09
  outer loop
    vertex 49.99601620441429 0.7070736214925856 -1.0647339985707331
    vertex 49.99601619406159 14.707073646604814 7.996597695835712
    vertex 49.996016030150884 0.7070736615079466 7.996597695823096
  endloop
endfacet
facet normal 1.0 -7.450007518981703e-09 8.147073238163376e-09
  outer loop
    vertex 49.99601619406159 14.707073646604814 7.996597695835712
    vertex 49.99601620441429 0.7070736214925856 -1.0647339985707331
    vertex 49.996016204393015 14.707073636393718 -1.064733998553475
  endloop
endfacet
facet normal -1.7797694585841763e-12 1.0 1.2330206300419287e-12
  outer loop
    vertex 23.496016197916145 22.775210089316914 13.99659753290266
    vertex 16.496016208255792 22.77521007910075 -1.0647341614903572
    vertex 16.496016197921644 22.775210089304455 13.996597532901127
  endloop
endfacet
facet normal -1.7797694585841763e-12 1.0 1.2330206300419287e-12
  outer loop
    vertex 16.496016208255792 22.77521007910075 -1.0647341614903572
    vertex 23.496016197916145 22.775210089316914 13.99659753290266
    vertex 23.49601620825029 22.775210079113208 -1.064734161488823
  endloop
endfacet
endsolid limn
