solid limn
facet normal -1.0 -6.020753303069033e-33 7.73090197309489e-14
  outer loop
    vertex -23.08931951518278 25.999999999999947 5.08931951518318
    vertex -23.089319515182094 5.639932965095795e-15 13.910680484818375
    vertex -23.089319515182094 25.99999999999993 13.910680484818378
  endloop
endfacet
facet normal -1.0 -6.020753303069033e-33 7.73090197309489e-14
  outer loop
    vertex -23.089319515182094 5.639932965095795e-15 13.910680484818375
    vertex -23.08931951518278 25.999999999999947 5.08931951518318
    vertex -23.08931951518278 -2.8199664825478976e-14 5.08931951518318
  endloop
endfacet
facet normal 0.7071067811865476 -0.7071067811865476 -5.4665732098638575e-14
  outer loop
    vertex -18.089319515182794 17.999999999999968 5.089319515182791
    vertex -20.089319515182112 15.999999999999964 13.910680484818144
    vertex -20.089319515182794 15.999999999999964 5.089319515182949
  endloop
endfacet
facet normal 0.7071067811865476 -0.7071067811865476 -5.4665732098638575e-14
  outer loop
    vertex -20.089319515182112 15.999999999999964 13.910680484818144
    vertex -18.089319515182794 17.999999999999968 5.089319515182791
    vertex -18.089319515182112 17.999999999999968 13.91068048481799
  endloop
endfacet
facet normal 0.7071067811865478 0.7071067811865474 -5.4665732098638594e-14
  outer loop
    vertex -18.089319515182794 6.999999999999971 5.089319515182791
    vertex -20.089319515182112 8.999999999999966 13.910680484818144
    vertex -18.089319515182112 6.999999999999971 13.91068048481799
  endloop
endfacet
facet normal 0.7071067811865478 0.7071067811865474 -5.4665732098638594e-14
  outer loop
    vertex -20.089319515182112 8.999999999999966 13.910680484818144
    vertex -18.089319515182794 6.999999999999971 5.089319515182791
    vertex -20.089319515182794 8.999999999999966 5.089319515182949
  endloop
endfacet
facet normal 1.0 0.0 -7.73090197309489e-14
  outer loop
    vertex -20.089319515182794 8.999999999999966 5.089319515182949
    vertex -20.089319515182112 15.999999999999964 13.910680484818144
    vertex -20.089319515182112 8.999999999999966 13.910680484818144
  endloop
endfacet
facet normal 1.0 0.0 -7.73090197309489e-14
  outer loop
    vertex -20.089319515182112 15.999999999999964 13.910680484818144
    vertex -20.089319515182794 8.999999999999966 5.089319515182949
    vertex -20.089319515182794 15.999999999999964 5.089319515182949
  endloop
endfacet
facet normal -7.73090197309489e-14 0.0 -1.0
  outer loop
    vertex -23.08931951518278 25.999999999999947 5.08931951518318
    vertex -20.08931951518279 -2.8199664825478976e-14 5.089319515182949
    vertex -23.08931951518278 -2.8199664825478976e-14 5.08931951518318
  endloop
endfacet
facet normal -7.73090197309489e-14 0.0 -1.0
  outer loop
    vertex -20.08931951518279 -2.8199664825478976e-14 5.089319515182949
    vertex -23.08931951518278 25.999999999999947 5.08931951518318
    vertex -20.08931951518279 3.9999999999999645 5.089319515182949
  endloop
endfacet
facet normal -7.73090197309489e-14 0.0 -1.0
  outer loop
    vertex -20.08931951518279 3.9999999999999645 5.089319515182949
    vertex -23.08931951518278 25.999999999999947 5.08931951518318
    vertex -20.089319515182794 8.999999999999966 5.089319515182949
  endloop
endfacet
facet normal -7.73090197309489e-14 0.0 -1.0
  outer loop
    vertex -20.08931951518279 3.9999999999999645 5.089319515182949
    vertex -20.089319515182794 8.999999999999966 5.089319515182949
    vertex -18.089319515182794 6.999999999999971 5.089319515182791
  endloop
endfacet
facet normal -7.73090197309489e-14 0.0 -1.0
  outer loop
    vertex -20.08931951518279 3.9999999999999645 5.089319515182949
    vertex -18.089319515182794 6.999999999999971 5.089319515182791
    vertex -4.089319515182694 3.999999999999978 5.089319515181714
  endloop
endfacet
facet normal -7.73090197309489e-14 0.0 -1.0
  outer loop
    vertex -20.089319515182794 8.999999999999966 5.089319515182949
    vertex -23.08931951518278 25.999999999999947 5.08931951518318
    vertex -20.089319515182794 15.999999999999964 5.089319515182949
  endloop
endfacet
facet normal -7.73090197309489e-14 0.0 -1.0
  outer loop
    vertex -20.089319515182794 15.999999999999964 5.089319515182949
    vertex -23.08931951518278 25.999999999999947 5.08931951518318
    vertex -20.089319515182776 20.999999999999968 5.089319515182949
  endloop
endfacet
facet normal -7.73090197309489e-14 0.0 -1.0
  outer loop
    vertex -20.089319515182794 15.999999999999964 5.089319515182949
    vertex -20.089319515182776 20.999999999999968 5.089319515182949
    vertex -18.089319515182794 17.999999999999968 5.089319515182791
  endloop
endfacet
facet normal -7.73090197309489e-14 0.0 -1.0
  outer loop
    vertex -18.089319515182794 17.999999999999968 5.089319515182791
    vertex -20.089319515182776 20.999999999999968 5.089319515182949
    vertex -4.0893195151827255 20.999999999999943 5.089319515181719
  endloop
endfacet
facet normal -7.73090197309489e-14 0.0 -1.0
  outer loop
    vertex -20.089319515182776 20.999999999999968 5.089319515182949
    vertex -23.08931951518278 25.999999999999947 5.08931951518318
    vertex -20.089319515182776 25.999999999999947 5.089319515182949
  endloop
endfacet
facet normal -7.73090197309489e-14 0.0 -1.0
  outer loop
    vertex -4.0893195151827255 20.999999999999943 5.089319515181719
    vertex -4.089319515182736 17.999999999999943 5.089319515181719
    vertex -18.089319515182794 17.999999999999968 5.089319515182791
  endloop
endfacet
facet normal -7.73090197309489e-14 0.0 -1.0
  outer loop
    vertex -4.0893195151827 6.999999999999983 5.089319515181714
    vertex -4.089319515182694 3.999999999999978 5.089319515181714
    vertex -18.089319515182794 6.999999999999971 5.089319515182791
  endloop
endfacet
facet normal -8.752046747251006e-16 1.0 7.020162708561396e-17
  outer loop
    vertex -4.089319515182026 6.999999999999981 13.910680484816906
    vertex -18.089319515182794 6.999999999999971 5.089319515182791
    vertex -18.089319515182112 6.999999999999971 13.91068048481799
  endloop
endfacet
facet normal -8.752046747251006e-16 1.0 7.020162708561396e-17
  outer loop
    vertex -18.089319515182794 6.999999999999971 5.089319515182791
    vertex -4.089319515182026 6.999999999999981 13.910680484816906
    vertex -4.0893195151827 6.999999999999983 5.089319515181714
  endloop
endfacet
facet normal 1.279684377651073e-28 1.0 1.6570616415935847e-15
  outer loop
    vertex -20.089319515182094 25.99999999999993 13.910680484818148
    vertex -23.08931951518278 25.999999999999947 5.08931951518318
    vertex -23.089319515182094 25.99999999999993 13.910680484818378
  endloop
endfacet
facet normal 1.279684377651073e-28 1.0 1.6570616415935847e-15
  outer loop
    vertex -23.08931951518278 25.999999999999947 5.08931951518318
    vertex -20.089319515182094 25.99999999999993 13.910680484818148
    vertex -20.089319515182776 25.999999999999947 5.089319515182949
  endloop
endfacet
facet normal 1.0 0.0 -7.73090197309489e-14
  outer loop
    vertex -20.089319515182094 20.999999999999968 13.910680484818144
    vertex -20.089319515182776 25.999999999999947 5.089319515182949
    vertex -20.089319515182094 25.99999999999993 13.910680484818148
  endloop
endfacet
facet normal 1.0 0.0 -7.73090197309489e-14
  outer loop
    vertex -20.089319515182776 25.999999999999947 5.089319515182949
    vertex -20.089319515182094 20.999999999999968 13.910680484818144
    vertex -20.089319515182776 20.999999999999968 5.089319515182949
  endloop
endfacet
facet normal 1.5862311464331874e-15 1.0 -1.22629974997449e-28
  outer loop
    vertex -4.0893195151820425 20.999999999999943 13.910680484816897
    vertex -20.089319515182776 20.999999999999968 5.089319515182949
    vertex -20.089319515182094 20.999999999999968 13.910680484818144
  endloop
endfacet
facet normal 1.5862311464331874e-15 1.0 -1.22629974997449e-28
  outer loop
    vertex -20.089319515182776 20.999999999999968 5.089319515182949
    vertex -4.0893195151820425 20.999999999999943 13.910680484816897
    vertex -4.0893195151827255 20.999999999999943 5.089319515181719
  endloop
endfacet
facet normal 7.73090197309489e-14 0.0 1.0
  outer loop
    vertex -4.089319515182026 6.999999999999981 13.910680484816906
    vertex -18.089319515182112 6.999999999999971 13.91068048481799
    vertex -4.08931951518202 3.999999999999979 13.910680484816906
  endloop
endfacet
facet normal 7.73090197309489e-14 0.0 1.0
  outer loop
    vertex -4.0893195151820425 20.999999999999943 13.910680484816897
    vertex -18.089319515182112 17.999999999999968 13.91068048481799
    vertex -4.089319515182054 17.999999999999943 13.910680484816897
  endloop
endfacet
facet normal 7.73090197309489e-14 0.0 1.0
  outer loop
    vertex -20.08931951518211 3.9999999999999645 13.910680484818144
    vertex -23.089319515182094 5.639932965095795e-15 13.910680484818375
    vertex -20.08931951518211 5.639932965095795e-15 13.910680484818144
  endloop
endfacet
facet normal 7.73090197309489e-14 0.0 1.0
  outer loop
    vertex -23.089319515182094 5.639932965095795e-15 13.910680484818375
    vertex -20.08931951518211 3.9999999999999645 13.910680484818144
    vertex -23.089319515182094 25.99999999999993 13.910680484818378
  endloop
endfacet
facet normal 7.73090197309489e-14 0.0 1.0
  outer loop
    vertex -23.089319515182094 25.99999999999993 13.910680484818378
    vertex -20.08931951518211 3.9999999999999645 13.910680484818144
    vertex -20.089319515182112 8.999999999999966 13.910680484818144
  endloop
endfacet
facet normal 7.73090197309489e-14 0.0 1.0
  outer loop
    vertex -20.089319515182112 8.999999999999966 13.910680484818144
    vertex -20.08931951518211 3.9999999999999645 13.910680484818144
    vertex -18.089319515182112 6.999999999999971 13.91068048481799
  endloop
endfacet
facet normal 7.73090197309489e-14 0.0 1.0
  outer loop
    vertex -18.089319515182112 6.999999999999971 13.91068048481799
    vertex -20.08931951518211 3.9999999999999645 13.910680484818144
    vertex -4.08931951518202 3.999999999999979 13.910680484816906
  endloop
endfacet
facet normal 7.73090197309489e-14 0.0 1.0
  outer loop
    vertex -23.089319515182094 25.99999999999993 13.910680484818378
    vertex -20.089319515182112 8.999999999999966 13.910680484818144
    vertex -20.089319515182112 15.999999999999964 13.910680484818144
  endloop
endfacet
facet normal 7.73090197309489e-14 0.0 1.0
  outer loop
    vertex -23.089319515182094 25.99999999999993 13.910680484818378
    vertex -20.089319515182112 15.999999999999964 13.910680484818144
    vertex -20.089319515182094 20.999999999999968 13.910680484818144
  endloop
endfacet
facet normal 7.73090197309489e-14 0.0 1.0
  outer loop
    vertex -20.089319515182094 20.999999999999968 13.910680484818144
    vertex -20.089319515182112 15.999999999999964 13.910680484818144
    vertex -18.089319515182112 17.999999999999968 13.91068048481799
  endloop
endfacet
facet normal 7.73090197309489e-14 0.0 1.0
  outer loop
    vertex -20.089319515182094 20.999999999999968 13.910680484818144
    vertex -18.089319515182112 17.999999999999968 13.91068048481799
    vertex -4.0893195151820425 20.999999999999943 13.910680484816897
  endloop
endfacet
facet normal 7.73090197309489e-14 0.0 1.0
  outer loop
    vertex -23.089319515182094 25.99999999999993 13.910680484818378
    vertex -20.089319515182094 20.999999999999968 13.910680484818144
    vertex -20.089319515182094 25.99999999999993 13.910680484818148
  endloop
endfacet
facet normal 8.93371274434115e-16 -1.0 8.695639256238021e-17
  outer loop
    vertex -4.089319515182694 3.999999999999978 5.089319515181714
    vertex -20.08931951518211 3.9999999999999645 13.910680484818144
    vertex -20.08931951518279 3.9999999999999645 5.089319515182949
  endloop
endfacet
facet normal 8.93371274434115e-16 -1.0 8.695639256238021e-17
  outer loop
    vertex -20.08931951518211 3.9999999999999645 13.910680484818144
    vertex -4.089319515182694 3.999999999999978 5.089319515181714
    vertex -4.08931951518202 3.999999999999979 13.910680484816906
  endloop
endfacet
facet normal 3.1702039316968997e-28 -1.0 4.105092961193029e-15
  outer loop
    vertex -20.08931951518279 -2.8199664825478976e-14 5.089319515182949
    vertex -23.089319515182094 5.639932965095795e-15 13.910680484818375
    vertex -23.08931951518278 -2.8199664825478976e-14 5.08931951518318
  endloop
endfacet
facet normal 3.1702039316968997e-28 -1.0 4.105092961193029e-15
  outer loop
    vertex -23.089319515182094 5.639932965095795e-15 13.910680484818375
    vertex -20.08931951518279 -2.8199664825478976e-14 5.089319515182949
    vertex -20.08931951518211 5.639932965095795e-15 13.910680484818144
  endloop
endfacet
facet normal 1.0 0.0 -7.73090197309489e-14
  outer loop
    vertex -20.08931951518279 -2.8199664825478976e-14 5.089319515182949
    vertex -20.08931951518211 3.9999999999999645 13.910680484818144
    vertex -20.08931951518211 5.639932965095795e-15 13.910680484818144
  endloop
endfacet
facet normal 1.0 0.0 -7.73090197309489e-14
  outer loop
    vertex -20.08931951518211 3.9999999999999645 13.910680484818144
    vertex -20.08931951518279 -2.8199664825478976e-14 5.089319515182949
    vertex -20.08931951518279 3.9999999999999645 5.089319515182949
  endloop
endfacet
facet normal 1.0 9.39988827515965e-16 -7.638161770040138e-14
  outer loop
    vertex -4.089319515182694 3.999999999999978 5.089319515181714
    vertex -4.089319515182026 6.999999999999981 13.910680484816906
    vertex -4.08931951518202 3.999999999999979 13.910680484816906
  endloop
endfacet
facet normal 1.0 9.39988827515965e-16 -7.638161770040138e-14
  outer loop
    vertex -4.089319515182026 6.999999999999981 13.910680484816906
    vertex -4.089319515182694 3.999999999999978 5.089319515181714
    vertex -4.0893195151827 6.999999999999983 5.089319515181714
  endloop
endfacet
facet normal 1.0 -3.133296091719886e-15 -7.724310559111508e-14
  outer loop
    vertex -4.089319515182736 17.999999999999943 5.089319515181719
    vertex -4.0893195151820425 20.999999999999943 13.910680484816897
    vertex -4.089319515182054 17.999999999999943 13.910680484816897
  endloop
endfacet
facet normal 1.0 -3.133296091719886e-15 -7.724310559111508e-14
  outer loop
    vertex -4.0893195151820425 20.999999999999943 13.910680484816897
    vertex -4.089319515182736 17.999999999999943 5.089319515181719
    vertex -4.0893195151827255 20.999999999999943 5.089319515181719
  endloop
endfacet
facet normal -1.8128355959236414e-15 -1.0 1.4028635104025708e-28
  outer loop
    vertex -4.089319515182736 17.999999999999943 5.089319515181719
    vertex -18.089319515182112 17.999999999999968 13.91068048481799
    vertex -18.089319515182794 17.999999999999968 5.089319515182791
  endloop
endfacet
facet normal -1.8128355959236414e-15 -1.0 1.4028635104025708e-28
  outer loop
    vertex -18.089319515182112 17.999999999999968 13.91068048481799
    vertex -4.089319515182736 17.999999999999943 5.089319515181719
    vertex -4.089319515182054 17.999999999999943 13.910680484816897
  endloop
endfacet
endsolid limn
